<?xml version="1.0" encoding="utf-8"?>
<!-- Generator: Adobe Illustrator 16.0.0, SVG Export Plug-In . SVG Version: 6.00 Build 0)  -->
<!DOCTYPE svg PUBLIC "-//W3C//DTD SVG 1.1//EN" "http://www.w3.org/Graphics/SVG/1.1/DTD/svg11.dtd">
<svg version="1.1" id="Layer_1" xmlns="http://www.w3.org/2000/svg" xmlns:xlink="http://www.w3.org/1999/xlink" x="0px" y="0px"
	 width="652.266px" height="111.428px" viewBox="0 0 652.266 111.428" enable-background="new 0 0 652.266 111.428"
	 xml:space="preserve">
<circle cx="156.904" cy="-56.217" r="2.25"/>
<circle cx="317.75" cy="-56.217" r="2.25"/>
<g>
	<rect x="27.633" y="60.955" fill="none" width="590" height="52.473"/>
	<path d="M45.612,60.956c0.223,0,0.315,0.406,0.315,0.928v8.932c0,0.58-0.186,0.754-0.464,0.754h-3.562v6.09h8.832v-6.09h-3.748
		c-0.186,0-0.315-0.174-0.315-0.696v-8.758c0-0.522,0.111-1.16,0.39-1.16h17.256c0.186,0,0.371,0.406,0.371,1.16v8.293
		c0,0.406-0.056,1.16-0.297,1.16h-4.101v21.808h3.971c0.278,0,0.52,0.116,0.52,1.16v8.99c0,0.695-0.13,0.928-0.39,0.928H46.967
		c-0.204,0-0.297-0.232-0.297-0.986v-9.454c0-0.406,0.093-0.638,0.223-0.638h3.841v-6.264h-8.832v6.264h3.841
		c0.111,0,0.186,0.232,0.186,0.58v9.859c0,0.406-0.148,0.639-0.278,0.639H28.208c-0.093,0-0.204-0.232-0.204-0.812v-9.569
		c0-0.29,0.093-0.696,0.204-0.696h4.286V71.57h-4.305c-0.167,0-0.278-0.232-0.278-0.986v-8.816c0-0.406,0.074-0.812,0.204-0.812
		H45.612z"/>
	<path d="M83.475,60.956c8.554,0,13.972,10.092,13.972,20.474c0,10.614-3.841,23.025-13.118,23.025H80.97
		c-7.607,0-10.762-5.104-12.877-9.918c-1.633-3.77-2.115-9.105-2.115-12.47c0-4.408,1.002-8.352,1.948-11.193
		c1.614-4.814,5.733-9.918,11.875-9.918H83.475z M76.98,82.125c0,6.206,2.115,12.238,4.861,12.238c3.099,0,4.769-6.032,4.769-11.252
		c0-5.162-1.855-12.063-4.973-12.063C79.263,71.048,76.98,76.267,76.98,82.125z"/>
	<path d="M124.508,93.783c0.167,0,0.278,0.058,0.278,0.348v9.976c0,0.289-0.111,0.348-0.278,0.348h-18.573
		c-0.074,0-0.204-0.232-0.204-0.812v-9.105c0-0.29,0.093-0.754,0.204-0.754h4.435v-22.33h-4.973v7.772
		c0,0.406-0.148,0.406-0.26,0.406H98.94c-0.167,0-0.297-0.29-0.297-0.754V61.768c0-0.406,0.093-0.812,0.223-0.812h32.452
		c0.204,0,0.334,0.116,0.334,1.392V78.82c0,0.406-0.056,0.928-0.223,0.928h-5.975c-0.111,0-0.204,0-0.204-0.696v-7.598h-5.325v22.33
		H124.508z"/>
	<path d="M159.644,60.956c8.554,0,13.972,10.092,13.972,20.474c0,10.614-3.841,23.025-13.118,23.025h-3.358
		c-7.607,0-10.762-5.104-12.877-9.918c-1.633-3.77-2.115-9.105-2.115-12.47c0-4.408,1.002-8.352,1.948-11.193
		c1.614-4.814,5.733-9.918,11.875-9.918H159.644z M153.15,82.125c0,6.206,2.115,12.238,4.861,12.238
		c3.099,0,4.769-6.032,4.769-11.252c0-5.162-1.855-12.063-4.973-12.063C155.432,71.048,153.15,76.267,153.15,82.125z"/>
	<path d="M205.799,60.956c0.445,0,0.687,0.406,0.687,2.03v15.776c0,0.58,0,1.45-0.278,1.45h-6.216c-0.278,0-0.408,0.116-0.408-0.58
		v-8.294H188.84v6.612h5.938c0.241,0,0.371,0.406,0.371,1.276v7.83c0,0.406-0.204,0.522-0.371,0.522h-5.845v6.147h4.101
		c0.148,0,0.223,0.232,0.223,0.812v9.628c0,0.29-0.167,0.29-0.39,0.29h-17.664c-0.186,0-0.371,0.116-0.371-0.58v-9.802
		c0-0.58,0.148-0.87,0.408-0.87h4.063V71.686h-4.008c-0.186,0-0.557,0-0.557-0.696v-8.874c0-0.87,0.278-1.16,0.594-1.16H205.799z"/>
	<path d="M238.223,60.956c0.445,0,0.687,0.406,0.687,2.03v15.776c0,0.58,0,1.45-0.278,1.45h-6.216c-0.278,0-0.408,0.116-0.408-0.58
		v-8.294h-10.743v6.612h5.938c0.241,0,0.371,0.406,0.371,1.276v7.83c0,0.406-0.204,0.522-0.371,0.522h-5.845v6.147h4.101
		c0.148,0,0.223,0.232,0.223,0.812v9.628c0,0.29-0.167,0.29-0.39,0.29h-17.664c-0.186,0-0.371,0.116-0.371-0.58v-9.802
		c0-0.58,0.148-0.87,0.408-0.87h4.063V71.686h-4.008c-0.186,0-0.557,0-0.557-0.696v-8.874c0-0.87,0.278-1.16,0.594-1.16H238.223z"/>
	<path d="M274.806,93.783c0.167,0,0.278,0.058,0.278,0.348v9.976c0,0.289-0.111,0.348-0.278,0.348h-18.573
		c-0.074,0-0.204-0.232-0.204-0.812v-9.105c0-0.29,0.093-0.754,0.204-0.754h4.435v-22.33h-4.973v7.772
		c0,0.406-0.148,0.406-0.26,0.406h-6.197c-0.167,0-0.297-0.29-0.297-0.754V61.768c0-0.406,0.093-0.812,0.223-0.812h32.452
		c0.204,0,0.334,0.116,0.334,1.392V78.82c0,0.406-0.056,0.928-0.223,0.928h-5.975c-0.111,0-0.204,0-0.204-0.696v-7.598h-5.325v22.33
		H274.806z"/>
	<path d="M300.31,60.956c0.223,0,0.315,0.406,0.315,0.928v8.932c0,0.58-0.186,0.754-0.464,0.754h-3.562v6.09h8.832v-6.09h-3.748
		c-0.186,0-0.315-0.174-0.315-0.696v-8.758c0-0.522,0.111-1.16,0.39-1.16h17.256c0.186,0,0.371,0.406,0.371,1.16v8.293
		c0,0.406-0.056,1.16-0.297,1.16h-4.101v21.808h3.971c0.278,0,0.52,0.116,0.52,1.16v8.99c0,0.695-0.13,0.928-0.39,0.928h-17.423
		c-0.204,0-0.297-0.232-0.297-0.986v-9.454c0-0.406,0.093-0.638,0.223-0.638h3.841v-6.264h-8.832v6.264h3.841
		c0.111,0,0.186,0.232,0.186,0.58v9.859c0,0.406-0.148,0.639-0.278,0.639h-17.441c-0.093,0-0.204-0.232-0.204-0.812v-9.569
		c0-0.29,0.093-0.696,0.204-0.696h4.286V71.57h-4.305c-0.167,0-0.278-0.232-0.278-0.986v-8.816c0-0.406,0.074-0.812,0.204-0.812
		H300.31z"/>
	<path d="M351.513,60.956c0.334,0,0.427,0.406,0.427,1.276v16.53c0,0.58-0.056,0.986-0.241,0.986h-6.383
		c-0.13,0-0.241,0-0.241-0.406v-7.308H334.35v5.51h5.975c0.186,0,0.26,0.116,0.26,0.58v9.106c0,0.464-0.223,0.58-0.445,0.58h-5.789
		v5.858h10.873v-7.076c0-0.522,0.056-1.16,0.353-1.16h6.791c0.13,0,0.204,0.29,0.204,1.102v17.109c0,0.406-0.074,0.812-0.427,0.812
		h-31.469c-0.241,0-0.464,0.059-0.464-0.639v-9.163c0-0.522,0.111-0.986,0.278-0.986h4.212V71.975h-4.23
		c-0.148,0-0.26,0.116-0.26-0.58v-9.918c0-0.29,0.186-0.522,0.464-0.522H351.513z"/>
	<path d="M362.899,104.455c-0.13,0-0.223-0.348-0.223-0.812v-9.047c0-0.464,0.223-1.102,0.39-1.102h4.026V71.918h-4.23
		c-0.186,0-0.26-0.29-0.26-0.58v-9.86c0-0.464,0.186-0.522,0.315-0.522h23.602c5.177,0,8.869,6.612,8.869,13.514
		c0,11.426-7.014,13.282-8.183,13.282h-10.613v5.742h4.286c0.334,0,0.408,0.58,0.408,1.044v8.816c0,0.754-0.093,1.102-0.408,1.102
		H362.899z M383.272,77.601c0.315,0,1.559-0.464,1.559-2.726c0-2.088-1.039-2.958-1.466-2.958h-6.772v5.684H383.272z"/>
	<path d="M419.854,60.956c0.482,0,4.49,0.406,6.104,2.436c1.15,1.45,2.839,4.408,2.839,9.106c0,4.35-1.893,7.598-3.711,9.802
		c1.466,2.204,2.394,3.479,2.95,9.454c0.13,1.102,0.297,1.856,0.594,1.856c0.39,0,1.429-1.044,1.429-4.872v-1.624
		c0-0.348,0.074-0.58,0.26-0.58h2.189c0.13,0,0.204,0.232,0.204,0.928v6.264c0,6.206-2.913,10.73-4.268,10.73h-7.366
		c-1.206,0-2.338-3.248-2.616-4.872c-0.278-1.45-0.687-5.974-0.872-7.366c-0.594-4.524-2.449-4.756-2.876-4.756h-4.676v6.322h4.323
		c0.167,0,0.278,0.058,0.278,0.348v9.976c0,0.289-0.111,0.348-0.278,0.348h-17.942c-0.093,0-0.204-0.232-0.204-0.812v-9.511
		c0-0.29,0.093-0.696,0.204-0.696h4.101v-22.04H396.4c-0.167,0-0.278-0.116-0.278-0.87v-8.758c0-0.406,0.074-0.812,0.204-0.812
		H419.854z M410.038,71.628v6.496h5.659c1.206,0,2.672-0.812,2.672-3.074c0-2.726-1.911-3.422-2.227-3.422H410.038z"/>
	<path d="M464.748,60.956c0.334,0,0.427,0.406,0.427,1.276v16.53c0,0.58-0.056,0.986-0.241,0.986h-6.383
		c-0.13,0-0.241,0-0.241-0.406v-7.308h-10.725v5.51h5.975c0.186,0,0.26,0.116,0.26,0.58v9.106c0,0.464-0.223,0.58-0.445,0.58h-5.789
		v5.858h10.873v-7.076c0-0.522,0.056-1.16,0.353-1.16h6.791c0.13,0,0.204,0.29,0.204,1.102v17.109c0,0.406-0.074,0.812-0.427,0.812
		H433.91c-0.241,0-0.464,0.059-0.464-0.639v-9.163c0-0.522,0.111-0.986,0.278-0.986h4.212V71.975h-4.23
		c-0.148,0-0.26,0.116-0.26-0.58v-9.918c0-0.29,0.186-0.522,0.464-0.522H464.748z"/>
	<path d="M487.691,61.652c0.037-0.464,0.204-0.638,0.353-0.638h5.084c0.353,0,0.482,0.812,0.482,1.218v10.614
		c0,0.406-0.093,0.696-0.241,0.696h-6.142c-0.074,0-0.167,0-0.204-0.29c-0.612-3.306-2.635-4.06-3.229-4.06h-5.696
		c-0.464,0-1.837,0.174-1.837,2.9c0,2.9,2.227,2.784,2.969,2.784l3.544,0.116c1.837,0,6.104,1.102,7.218,1.856
		c1.076,0.812,4.973,3.19,4.973,12.47c0,13.282-7.645,15.138-10.298,15.138h-5.028c-2.097,0-4.323-2.029-5.641-3.944l-0.111,3.364
		c-0.037,0.464-0.148,0.58-0.278,0.58H467.3c-0.13,0-0.186-0.232-0.186-0.695V91.927c0-0.29,0.056-0.696,0.204-0.696h6.624
		c0.148,0,0.241,0.232,0.278,0.638c0.371,3.828,3.377,4.06,3.581,4.06h6.698c0.204,0,1.317-0.348,1.317-2.262
		c0-2.204-1.039-2.842-1.299-2.842l-5.381-0.116c-1.429,0-5.715-1.392-7.422-2.9c-3.043-2.726-4.509-8.062-4.509-12.18
		c0-5.8,2.022-9.222,3.043-10.904c1.28-2.262,3.767-3.77,6.772-3.77h5.103c2.579,0,4.379,1.972,5.325,3.306L487.691,61.652z"/>
	<path d="M517.257,61.652c0.037-0.464,0.204-0.638,0.353-0.638h5.084c0.353,0,0.482,0.812,0.482,1.218v10.614
		c0,0.406-0.093,0.696-0.241,0.696h-6.142c-0.074,0-0.167,0-0.204-0.29c-0.612-3.306-2.635-4.06-3.229-4.06h-5.696
		c-0.464,0-1.837,0.174-1.837,2.9c0,2.9,2.227,2.784,2.969,2.784l3.544,0.116c1.837,0,6.104,1.102,7.218,1.856
		c1.076,0.812,4.973,3.19,4.973,12.47c0,13.282-7.645,15.138-10.298,15.138h-5.028c-2.097,0-4.323-2.029-5.641-3.944l-0.111,3.364
		c-0.037,0.464-0.148,0.58-0.278,0.58h-6.309c-0.13,0-0.186-0.232-0.186-0.695V91.927c0-0.29,0.056-0.696,0.204-0.696h6.624
		c0.148,0,0.241,0.232,0.278,0.638c0.371,3.828,3.377,4.06,3.581,4.06h6.698c0.204,0,1.317-0.348,1.317-2.262
		c0-2.204-1.039-2.842-1.299-2.842l-5.381-0.116c-1.429,0-5.715-1.392-7.422-2.9c-3.043-2.726-4.509-8.062-4.509-12.18
		c0-5.8,2.022-9.222,3.043-10.904c1.28-2.262,3.767-3.77,6.772-3.77h5.103c2.579,0,4.379,1.972,5.325,3.306L517.257,61.652z"/>
	<path d="M556.99,60.956c0.334,0,0.427,0.406,0.427,1.276v16.53c0,0.58-0.056,0.986-0.241,0.986h-6.383c-0.13,0-0.241,0-0.241-0.406
		v-7.308h-10.725v5.51h5.975c0.186,0,0.26,0.116,0.26,0.58v9.106c0,0.464-0.223,0.58-0.445,0.58h-5.789v5.858H550.7v-7.076
		c0-0.522,0.056-1.16,0.353-1.16h6.791c0.13,0,0.204,0.29,0.204,1.102v17.109c0,0.406-0.074,0.812-0.427,0.812h-31.469
		c-0.241,0-0.464,0.059-0.464-0.639v-9.163c0-0.522,0.111-0.986,0.278-0.986h4.212V71.975h-4.23c-0.148,0-0.26,0.116-0.26-0.58
		v-9.918c0-0.29,0.186-0.522,0.464-0.522H556.99z"/>
	<path d="M579.934,61.652c0.037-0.464,0.204-0.638,0.353-0.638h5.084c0.353,0,0.482,0.812,0.482,1.218v10.614
		c0,0.406-0.093,0.696-0.241,0.696h-6.142c-0.074,0-0.167,0-0.204-0.29c-0.612-3.306-2.635-4.06-3.229-4.06h-5.696
		c-0.464,0-1.837,0.174-1.837,2.9c0,2.9,2.227,2.784,2.969,2.784l3.544,0.116c1.837,0,6.104,1.102,7.218,1.856
		c1.076,0.812,4.973,3.19,4.973,12.47c0,13.282-7.645,15.138-10.298,15.138h-5.028c-2.097,0-4.323-2.029-5.641-3.944l-0.111,3.364
		c-0.037,0.464-0.148,0.58-0.278,0.58h-6.309c-0.13,0-0.186-0.232-0.186-0.695V91.927c0-0.29,0.056-0.696,0.204-0.696h6.624
		c0.148,0,0.241,0.232,0.278,0.638c0.371,3.828,3.377,4.06,3.581,4.06h6.698c0.204,0,1.317-0.348,1.317-2.262
		c0-2.204-1.039-2.842-1.299-2.842l-5.381-0.116c-1.429,0-5.715-1.392-7.422-2.9c-3.043-2.726-4.509-8.062-4.509-12.18
		c0-5.8,2.022-9.222,3.043-10.904c1.28-2.262,3.767-3.77,6.772-3.77h5.103c2.579,0,4.379,1.972,5.325,3.306L579.934,61.652z"/>
	<path d="M597.42,60.956c0.167,0,0.297,0.29,0.297,0.812c0,0.638-0.575,24.591-0.594,25.055c-0.037,1.16-0.241,1.45-0.371,1.45
		h-5.975c-0.223,0-0.315-0.406-0.334-1.16c0-0.29-0.612-24.475-0.612-25.055c0-0.812,0.167-1.102,0.353-1.102H597.42z
		 M597.086,91.405c0.148,0,0.278,0.348,0.278,0.928v11.542c0,0.348-0.223,0.58-0.39,0.58h-6.476c-0.186,0-0.297-0.348-0.297-1.102
		V92.159c0-0.406,0.148-0.754,0.353-0.754H597.086z"/>
</g>
<g>
	<rect x="28.922" y="23.927" fill="none" width="482.71" height="65"/>
	<path d="M29.04,27.139v-3.208h8.159v3.237l-3.246,18.809h-3.346l3.251-18.838H29.04z"/>
	<path d="M38.634,39.312v-2.856h4.351v2.856H38.634z"/>
	<path d="M45.255,45.977V23.931h3.032v22.046H45.255z"/>
	<path d="M50.895,45.977V23.931h2.944l3.133,11.478l0.277,1.017h0.164v-1.024v-11.47h3.032v22.046h-2.944l-3.138-11.502
		l-0.278-1.019h-0.158v1.026v11.495H50.895z"/>
	<path d="M62.526,41.451V28.458c0-0.117,0.009-0.286,0.027-0.505c0.019-0.22,0.096-0.605,0.233-1.157s0.333-1.038,0.59-1.458
		c0.256-0.42,0.661-0.801,1.214-1.143s1.238-0.513,2.056-0.513c0.817,0,1.522,0.166,2.116,0.498s1.028,0.728,1.303,1.187
		s0.486,0.923,0.633,1.392c0.147,0.469,0.231,0.874,0.25,1.216l0.029,0.483v3.032h-3.032v-3.223c-0.02,0-0.02-0.06,0-0.179
		c0.02-0.12,0.002-0.262-0.052-0.428s-0.116-0.335-0.184-0.506c-0.069-0.171-0.189-0.316-0.361-0.436
		c-0.172-0.12-0.386-0.179-0.641-0.179c-0.344,0-0.612,0.142-0.804,0.425c-0.191,0.284-0.297,0.557-0.317,0.82l-0.029,0.44v13.462
		c0,0.122,0.01,0.276,0.029,0.463c0.02,0.188,0.125,0.435,0.317,0.744c0.192,0.309,0.459,0.463,0.804,0.463
		c0.403,0,0.709-0.143,0.921-0.428c0.211-0.286,0.317-0.579,0.317-0.88v-0.405v-3.224h3.032v3.032c0,0.117-0.01,0.286-0.029,0.505
		c-0.02,0.22-0.103,0.605-0.25,1.157s-0.358,1.038-0.633,1.458c-0.275,0.42-0.709,0.798-1.303,1.135s-1.299,0.505-2.116,0.505
		c-0.817,0-1.502-0.164-2.056-0.491s-0.958-0.72-1.214-1.179c-0.256-0.459-0.453-0.925-0.59-1.399s-0.215-0.867-0.233-1.179
		L62.526,41.451z"/>
	<path d="M73.102,45.977V23.931h3.032v9.111h2.534v-9.111h3.032v22.046h-3.032v-9.595h-2.534v9.595H73.102z"/>
	<path d="M89.113,45.977V23.931h3.032v19.189h4.497v2.856H89.113z"/>
	<path d="M97.96,45.977V23.931h3.032v22.046H97.96z"/>
	<path d="M103.6,45.977V23.931h3.982l1.926,10.073l0.159,1.172l0.027,0.005l0.143-1.172l1.939-10.078h3.997v22.046h-3.032V32.12
		v-0.938h-0.207l-0.123,0.937l-2.061,13.858h-1.374l-2.06-13.868l-0.138-0.927h-0.146v0.938v13.857H103.6z"/>
	<path d="M118.117,45.977V23.931h3.032v22.046H118.117z"/>
	<path d="M122.409,27.257v-3.325h9.565v3.325h-3.267v18.721h-3.032V27.257H122.409z"/>
	<path d="M133.234,45.977V23.931h7.412v3.325h-4.38v5.786h3.208v3.545h-3.208v6.064h4.38v3.325H133.234z"/>
	<path d="M142.433,45.977V23.931h2.427c0.837,0,1.551,0.059,2.141,0.176c0.591,0.117,1.114,0.281,1.569,0.491
		s0.828,0.54,1.116,0.989c0.288,0.449,0.523,0.916,0.704,1.399c0.182,0.483,0.314,1.165,0.398,2.043
		c0.083,0.879,0.14,1.743,0.169,2.593s0.044,1.965,0.044,3.347s-0.015,2.498-0.044,3.347s-0.086,1.709-0.169,2.578
		c-0.084,0.869-0.216,1.543-0.398,2.021c-0.181,0.479-0.416,0.942-0.704,1.392c-0.289,0.449-0.661,0.779-1.116,0.989
		s-0.979,0.376-1.569,0.498c-0.59,0.122-1.304,0.183-2.141,0.183H142.433z M145.465,42.74c0.923,0,1.528-0.2,1.812-0.601
		c0.383-0.537,0.585-2.1,0.604-4.688v-2.52c0-0.264,0-0.518,0-0.762c0-3.223-0.123-5.186-0.369-5.889
		c-0.226-0.645-0.678-1.006-1.356-1.084c-0.177-0.02-0.408-0.029-0.692-0.029V42.74z"/>
	<path d="M158.195,45.977V23.931h7.412v3.325h-4.38v5.786h3.208v3.545h-3.208v6.064h4.38v3.325H158.195z"/>
	<path d="M167.394,45.977V23.931h2.427c0.837,0,1.551,0.059,2.141,0.176c0.591,0.117,1.114,0.281,1.569,0.491
		s0.828,0.54,1.116,0.989c0.288,0.449,0.523,0.916,0.704,1.399c0.182,0.483,0.314,1.165,0.398,2.043
		c0.083,0.879,0.14,1.743,0.169,2.593s0.044,1.965,0.044,3.347s-0.015,2.498-0.044,3.347s-0.086,1.709-0.169,2.578
		c-0.084,0.869-0.216,1.543-0.398,2.021c-0.181,0.479-0.416,0.942-0.704,1.392c-0.289,0.449-0.661,0.779-1.116,0.989
		s-0.979,0.376-1.569,0.498c-0.59,0.122-1.304,0.183-2.141,0.183H167.394z M170.426,42.74c0.923,0,1.528-0.2,1.812-0.601
		c0.383-0.537,0.585-2.1,0.604-4.688v-2.52c0-0.264,0-0.518,0-0.762c0-3.223-0.123-5.186-0.369-5.889
		c-0.226-0.645-0.678-1.006-1.356-1.084c-0.177-0.02-0.408-0.029-0.692-0.029V42.74z"/>
	<path d="M178.542,45.977V23.931h3.032v22.046H178.542z"/>
	<path d="M182.833,27.257v-3.325h9.565v3.325h-3.267v18.721H186.1V27.257H182.833z"/>
	<path d="M193.659,45.977V23.931h3.032v22.046H193.659z"/>
	<path d="M199.093,41.451V28.458c0-0.117,0.009-0.286,0.027-0.505c0.019-0.22,0.096-0.605,0.233-1.157s0.333-1.038,0.59-1.458
		c0.256-0.42,0.661-0.801,1.214-1.143s1.237-0.513,2.051-0.513s1.498,0.166,2.051,0.498s0.958,0.728,1.214,1.187
		c0.256,0.459,0.453,0.923,0.59,1.392s0.215,0.874,0.233,1.216l0.027,0.483v12.993c0,0.117-0.009,0.286-0.027,0.505
		c-0.019,0.22-0.096,0.605-0.233,1.157s-0.334,1.038-0.59,1.458c-0.256,0.42-0.661,0.798-1.214,1.135s-1.237,0.505-2.051,0.505
		s-1.498-0.164-2.051-0.491s-0.958-0.72-1.214-1.179c-0.256-0.459-0.453-0.925-0.59-1.399s-0.215-0.867-0.233-1.179L199.093,41.451z
		 M202.125,41.686c0,0.122,0.005,0.276,0.015,0.463c0.01,0.188,0.106,0.435,0.288,0.744s0.442,0.463,0.782,0.463
		s0.6-0.139,0.782-0.417c0.182-0.278,0.273-0.564,0.273-0.857l0.029-0.395V28.223c0-0.121-0.005-0.275-0.015-0.463
		c-0.01-0.187-0.106-0.438-0.288-0.751c-0.182-0.313-0.442-0.471-0.782-0.471s-0.6,0.142-0.782,0.425
		c-0.182,0.284-0.273,0.557-0.273,0.82l-0.029,0.44V41.686z"/>
	<path d="M209.904,45.977V23.931h2.944l3.133,11.478l0.277,1.017h0.164v-1.024v-11.47h3.032v22.046h-2.944l-3.138-11.502
		l-0.278-1.019h-0.158v1.026v11.495H209.904z"/>
	<path d="M226.354,45.977V23.931h7.412v3.325h-4.38v5.786h3.208v3.545h-3.208v6.064h4.38v3.325H226.354z"/>
	<path d="M235.553,45.977V23.931h3.083c1.544,0,2.834,0.515,3.872,1.545s1.556,2.715,1.556,5.054s-0.523,4.028-1.57,5.068
		s-2.35,1.56-3.908,1.56v8.818H235.553z M238.585,33.863c1.002,0,1.66-0.222,1.975-0.667s0.472-1.296,0.472-2.556
		c0-1.279-0.162-2.168-0.486-2.666s-0.978-0.747-1.96-0.747V33.863z"/>
	<path fill="#FF9933" d="M255.329,45.977V23.931h3.083c1.544,0,2.834,0.515,3.872,1.545s1.556,2.715,1.556,5.054
		s-0.523,4.028-1.57,5.068s-2.35,1.56-3.908,1.56v8.818H255.329z M258.361,33.863c1.002,0,1.66-0.222,1.975-0.667
		s0.472-1.296,0.472-2.556c0-1.279-0.162-2.168-0.486-2.666s-0.978-0.747-1.96-0.747V33.863z"/>
	<path fill="#FF9933" d="M265.875,45.977V23.931h3.135c3.564,0,5.347,2.119,5.347,6.357c0,2.531-0.546,4.208-1.638,5.032
		l2.061,10.657h-3.118l-1.68-9.303h-1.074v9.303H265.875z M268.908,33.673c0.304,0,0.562-0.024,0.773-0.073
		c0.211-0.049,0.462-0.168,0.752-0.359c0.29-0.19,0.511-0.525,0.663-1.003s0.229-1.089,0.229-1.831s-0.076-1.353-0.229-1.831
		s-0.374-0.813-0.663-1.003c-0.29-0.19-0.541-0.31-0.752-0.359c-0.211-0.049-0.469-0.073-0.773-0.073V33.673z"/>
	<path fill="#FF9933" d="M276.701,45.977V23.931h7.412v3.325h-4.38v5.786h3.208v3.545h-3.208v6.064h4.38v3.325H276.701z"/>
	<path fill="#FF9933" d="M285.783,39.312v-2.856h4.351v2.856H285.783z"/>
	<path fill="#FF9933" d="M292.199,41.451V28.458c0-0.117,0.009-0.286,0.027-0.505c0.019-0.22,0.096-0.605,0.233-1.157
		s0.333-1.038,0.59-1.458c0.256-0.42,0.661-0.801,1.214-1.143s1.237-0.513,2.051-0.513s1.498,0.166,2.051,0.498
		s0.958,0.728,1.214,1.187c0.256,0.459,0.453,0.923,0.59,1.392s0.215,0.874,0.233,1.216l0.027,0.483v12.993
		c0,0.117-0.009,0.286-0.027,0.505c-0.019,0.22-0.096,0.605-0.233,1.157s-0.334,1.038-0.59,1.458
		c-0.256,0.42-0.661,0.798-1.214,1.135s-1.237,0.505-2.051,0.505s-1.498-0.164-2.051-0.491s-0.958-0.72-1.214-1.179
		c-0.256-0.459-0.453-0.925-0.59-1.399s-0.215-0.867-0.233-1.179L292.199,41.451z M295.231,41.686c0,0.122,0.005,0.276,0.015,0.463
		c0.01,0.188,0.106,0.435,0.288,0.744s0.442,0.463,0.782,0.463s0.6-0.139,0.782-0.417c0.182-0.278,0.273-0.564,0.273-0.857
		l0.029-0.395V28.223c0-0.121-0.005-0.275-0.015-0.463c-0.01-0.187-0.106-0.438-0.288-0.751c-0.182-0.313-0.442-0.471-0.782-0.471
		s-0.6,0.142-0.782,0.425c-0.182,0.284-0.273,0.557-0.273,0.82l-0.029,0.44V41.686z"/>
	<path fill="#FF9933" d="M303.009,45.977V23.931h3.135c3.564,0,5.347,2.119,5.347,6.357c0,2.531-0.546,4.208-1.638,5.032
		l2.061,10.657h-3.118l-1.68-9.303h-1.074v9.303H303.009z M306.042,33.673c0.304,0,0.562-0.024,0.773-0.073
		c0.211-0.049,0.462-0.168,0.752-0.359c0.29-0.19,0.511-0.525,0.663-1.003s0.229-1.089,0.229-1.831s-0.076-1.353-0.229-1.831
		s-0.374-0.813-0.663-1.003c-0.29-0.19-0.541-0.31-0.752-0.359c-0.211-0.049-0.469-0.073-0.773-0.073V33.673z"/>
	<path fill="#FF9933" d="M313.834,45.977V23.931h2.427c0.837,0,1.551,0.059,2.141,0.176c0.591,0.117,1.114,0.281,1.569,0.491
		s0.828,0.54,1.116,0.989c0.288,0.449,0.523,0.916,0.704,1.399c0.182,0.483,0.314,1.165,0.398,2.043
		c0.083,0.879,0.14,1.743,0.169,2.593s0.044,1.965,0.044,3.347s-0.015,2.498-0.044,3.347s-0.086,1.709-0.169,2.578
		c-0.084,0.869-0.216,1.543-0.398,2.021c-0.181,0.479-0.416,0.942-0.704,1.392c-0.289,0.449-0.661,0.779-1.116,0.989
		s-0.979,0.376-1.569,0.498c-0.59,0.122-1.304,0.183-2.141,0.183H313.834z M316.867,42.74c0.923,0,1.528-0.2,1.812-0.601
		c0.383-0.537,0.585-2.1,0.604-4.688v-2.52c0-0.264,0-0.518,0-0.762c0-3.223-0.123-5.186-0.369-5.889
		c-0.226-0.645-0.678-1.006-1.356-1.084c-0.177-0.02-0.408-0.029-0.692-0.029V42.74z"/>
	<path fill="#FF9933" d="M324.982,45.977V23.931h7.413v3.325h-4.381v5.786h3.209v3.545h-3.209v6.064h4.381v3.325H324.982z"/>
	<path fill="#FF9933" d="M334.182,45.977V23.931h3.135c3.564,0,5.346,2.119,5.346,6.357c0,2.531-0.545,4.208-1.638,5.032
		l2.062,10.657h-3.119l-1.68-9.303h-1.074v9.303H334.182z M337.213,33.673c0.305,0,0.562-0.024,0.773-0.073
		c0.212-0.049,0.463-0.168,0.752-0.359c0.29-0.19,0.512-0.525,0.664-1.003s0.229-1.089,0.229-1.831s-0.076-1.353-0.229-1.831
		s-0.374-0.813-0.664-1.003c-0.289-0.19-0.54-0.31-0.752-0.359c-0.211-0.049-0.469-0.073-0.773-0.073V33.673z"/>
	<path fill="#FF9933" d="M349.621,45.977V23.931h2.943l3.133,11.478l0.277,1.017h0.164v-1.024v-11.47h3.033v22.046h-2.945
		l-3.138-11.502l-0.278-1.019h-0.158v1.026v11.495H349.621z"/>
	<path fill="#FF9933" d="M361.252,41.451V28.458c0-0.117,0.009-0.286,0.027-0.505c0.018-0.22,0.096-0.605,0.232-1.157
		c0.138-0.552,0.334-1.038,0.59-1.458s0.662-0.801,1.215-1.143s1.237-0.513,2.051-0.513c0.814,0,1.498,0.166,2.052,0.498
		s0.958,0.728,1.214,1.187s0.453,0.923,0.59,1.392c0.138,0.469,0.215,0.874,0.234,1.216l0.027,0.483v12.993
		c0,0.117-0.01,0.286-0.027,0.505c-0.02,0.22-0.097,0.605-0.234,1.157c-0.137,0.552-0.334,1.038-0.59,1.458s-0.66,0.798-1.214,1.135
		s-1.237,0.505-2.052,0.505c-0.813,0-1.498-0.164-2.051-0.491s-0.959-0.72-1.215-1.179s-0.452-0.925-0.59-1.399
		c-0.137-0.474-0.215-0.867-0.232-1.179L361.252,41.451z M364.283,41.686c0,0.122,0.006,0.276,0.016,0.463
		c0.01,0.188,0.105,0.435,0.287,0.744s0.442,0.463,0.781,0.463c0.34,0,0.6-0.139,0.782-0.417c0.182-0.278,0.272-0.564,0.272-0.857
		l0.029-0.395V28.223c0-0.121-0.004-0.275-0.014-0.463c-0.011-0.187-0.106-0.438-0.288-0.751c-0.183-0.313-0.442-0.471-0.782-0.471
		c-0.339,0-0.6,0.142-0.781,0.425c-0.182,0.284-0.273,0.557-0.273,0.82l-0.029,0.44V41.686z"/>
	<path fill="#FF9933" d="M371.23,23.931h2.984l1.531,11.426l0.096,0.711h-0.029l0.088-0.715l1.377-11.422h2.344l1.377,11.455
		l0.088,0.718l-0.023-0.037l0.097-0.726l1.522-11.411h2.986l-2.957,22.046h-2.52l-1.494-10.444l-0.189-1.289h-0.117l-0.176,1.289
		l-1.51,10.444h-2.52L371.23,23.931z"/>
	<path fill="#FF9933" d="M387.121,23.931h3.383l-0.775,16.099h-1.891L387.121,23.931z M387.297,45.977v-3.325h3.031v3.325H387.297z"
		/>
</g>
<g>
</g>
</svg>
