<?xml version="1.0" encoding="utf-8"?>
<!-- Generator: Adobe Illustrator 16.0.0, SVG Export Plug-In . SVG Version: 6.00 Build 0)  -->
<!DOCTYPE svg PUBLIC "-//W3C//DTD SVG 1.1//EN" "http://www.w3.org/Graphics/SVG/1.1/DTD/svg11.dtd">
<svg version="1.1" id="Layer_1" xmlns="http://www.w3.org/2000/svg" xmlns:xlink="http://www.w3.org/1999/xlink" x="0px" y="0px"
	 width="511.5px" height="38.761px" viewBox="-11.5 0 511.5 38.761" enable-background="new -11.5 0 511.5 38.761"
	 xml:space="preserve">
<g>
	<rect x="21.718" y="8.446" fill="none" width="471.282" height="61.044"/>
	<path d="M21.991,29.025l2.868-20.576H28.8l2.86,20.576h-2.696l-0.562-4.197H25.5l-0.563,4.197H21.991z M25.929,21.628h2.044
		l-0.869-6.484l-0.073-0.542h-0.16l-0.073,0.542L25.929,21.628z"/>
	<path d="M33.298,29.025V8.449h2.83v17.91h4.197v2.666H33.298z"/>
	<path d="M41.556,29.025V8.449h2.83v17.91h4.197v2.666H41.556z"/>
	<path d="M53.19,8.449h2.954l1.509,6.582l0.037,0.186h0.024l0.078-0.191l1.441-6.576h2.83L59.11,20.262v8.764h-2.83v-8.764
		L53.19,8.449z"/>
	<path d="M63.499,24.8V12.674c0-0.109,0.009-0.267,0.025-0.472c0.018-0.205,0.09-0.565,0.218-1.08
		c0.128-0.515,0.312-0.968,0.551-1.36c0.239-0.392,0.617-0.747,1.133-1.066c0.517-0.319,1.155-0.479,1.915-0.479
		c0.76,0,1.398,0.155,1.915,0.465s0.894,0.679,1.133,1.107c0.239,0.429,0.422,0.861,0.551,1.299c0.128,0.438,0.2,0.816,0.218,1.135
		l0.025,0.451V24.8c0,0.109-0.009,0.268-0.025,0.473c-0.018,0.205-0.09,0.564-0.218,1.08s-0.312,0.969-0.551,1.359
		c-0.239,0.393-0.617,0.746-1.133,1.061c-0.516,0.314-1.155,0.473-1.915,0.473c-0.76,0-1.398-0.154-1.915-0.459
		c-0.517-0.305-0.895-0.672-1.133-1.101c-0.239-0.429-0.423-0.862-0.551-1.306c-0.128-0.442-0.2-0.81-0.218-1.102L63.499,24.8z
		 M66.329,25.02c0,0.112,0.004,0.257,0.014,0.433c0.01,0.174,0.099,0.405,0.269,0.693c0.169,0.288,0.413,0.432,0.729,0.432
		c0.316,0,0.56-0.129,0.729-0.39c0.169-0.26,0.255-0.526,0.255-0.8l0.027-0.368V12.455c0-0.113-0.005-0.257-0.014-0.432
		c-0.009-0.174-0.099-0.408-0.269-0.701c-0.17-0.293-0.413-0.439-0.729-0.439s-0.56,0.132-0.729,0.396
		c-0.17,0.265-0.255,0.52-0.255,0.765l-0.027,0.411V25.02z"/>
	<path d="M73.562,24.8V8.449h2.83V25.05c0,0.111,0.004,0.253,0.014,0.424c0.01,0.171,0.099,0.398,0.269,0.68
		c0.169,0.282,0.415,0.424,0.736,0.424c0.321,0,0.564-0.127,0.729-0.383c0.165-0.254,0.248-0.516,0.248-0.783l0.041-0.361V8.449
		h2.83V24.8c0,0.109-0.009,0.268-0.025,0.473c-0.018,0.205-0.092,0.564-0.224,1.08c-0.133,0.516-0.316,0.969-0.551,1.359
		c-0.235,0.393-0.61,0.746-1.127,1.061s-1.157,0.473-1.921,0.473c-0.764,0-1.405-0.154-1.921-0.459
		c-0.516-0.305-0.892-0.672-1.127-1.101c-0.235-0.429-0.418-0.862-0.551-1.306c-0.132-0.442-0.207-0.81-0.224-1.102L73.562,24.8z"/>
	<path d="M87.944,24.8V12.674c0-0.109,0.009-0.267,0.025-0.472c0.018-0.205,0.09-0.565,0.218-1.08s0.312-0.968,0.551-1.36
		c0.239-0.392,0.617-0.747,1.133-1.066c0.517-0.319,1.156-0.479,1.918-0.479c0.762,0,1.421,0.155,1.975,0.465
		c0.554,0.31,0.959,0.679,1.216,1.107c0.256,0.429,0.453,0.861,0.59,1.299c0.138,0.438,0.215,0.816,0.234,1.135l0.027,0.451v2.83
		h-2.83v-3.008c-0.019,0-0.019-0.056,0-0.167c0.018-0.111,0.002-0.245-0.048-0.399c-0.05-0.155-0.108-0.312-0.172-0.472
		c-0.064-0.16-0.176-0.295-0.337-0.407c-0.161-0.112-0.36-0.167-0.598-0.167c-0.321,0-0.571,0.132-0.75,0.396
		c-0.179,0.265-0.277,0.52-0.296,0.765l-0.027,0.411V25.02c0,0.112,0.009,0.257,0.027,0.433c0.019,0.174,0.117,0.405,0.296,0.693
		c0.179,0.288,0.429,0.432,0.75,0.432c0.376,0,0.662-0.133,0.859-0.399c0.197-0.267,0.296-0.54,0.296-0.821v-0.378V21.97h2.83v2.83
		c0,0.109-0.009,0.267-0.027,0.472c-0.019,0.205-0.096,0.565-0.234,1.08c-0.137,0.515-0.334,0.969-0.591,1.36
		c-0.256,0.392-0.662,0.744-1.216,1.06c-0.554,0.313-1.212,0.472-1.975,0.472c-0.763,0-1.402-0.152-1.918-0.457
		c-0.516-0.306-0.895-0.672-1.133-1.102c-0.239-0.428-0.423-0.863-0.551-1.307c-0.128-0.441-0.2-0.809-0.218-1.101L87.944,24.8z"/>
	<path d="M96.968,29.025l2.868-20.576h3.941l2.86,20.576h-2.696l-0.562-4.197h-2.901l-0.563,4.197H96.968z M100.906,21.628h2.044
		l-0.869-6.484l-0.073-0.542h-0.16l-0.073,0.542L100.906,21.628z"/>
	<path d="M108.274,29.025V8.449h2.748l2.924,10.712l0.259,0.949h0.153v-0.956V8.449h2.83v20.576h-2.748l-2.929-10.736l-0.259-0.95
		h-0.147v0.958v10.729L108.274,29.025L108.274,29.025z"/>
	<path d="M123.628,29.025V8.449h6.918v3.104h-4.088v5.4h2.994v3.309h-2.994v5.659h4.088v3.104L123.628,29.025L123.628,29.025z"/>
	<path d="M131.366,29.025l2.868-20.576h3.941l2.86,20.576h-2.696l-0.562-4.197h-2.901l-0.563,4.197H131.366z M135.304,21.628h2.044
		l-0.869-6.484l-0.073-0.542h-0.16l-0.073,0.542L135.304,21.628z"/>
	<path d="M141.415,11.553V8.449h8.928v3.104h-3.049v17.473h-2.83V11.553H141.415z"/>
	<path d="M163.591,29.025l2.868-20.576h3.941l2.86,20.576h-2.696l-0.562-4.197H167.1l-0.563,4.197H163.591z M167.529,21.628h2.044
		l-0.869-6.484l-0.073-0.542h-0.16l-0.073,0.542L167.529,21.628z"/>
	<path d="M174.897,29.025V8.449h2.83v17.91h4.197v2.666H174.897z"/>
	<path d="M183.155,29.025V8.449h2.83v17.91h4.197v2.666H183.155z"/>
	<path d="M194.79,8.449h2.954l1.509,6.582l0.037,0.186h0.024l0.078-0.191l1.441-6.576h2.83l-2.953,11.812v8.764h-2.83v-8.764
		L194.79,8.449z"/>
	<path d="M205.099,24.8V12.674c0-0.109,0.009-0.267,0.025-0.472c0.018-0.205,0.09-0.565,0.218-1.08
		c0.128-0.515,0.312-0.968,0.551-1.36c0.239-0.392,0.617-0.747,1.133-1.066c0.517-0.319,1.155-0.479,1.915-0.479
		c0.76,0,1.398,0.155,1.915,0.465s0.894,0.679,1.133,1.107c0.239,0.429,0.422,0.861,0.551,1.299c0.128,0.438,0.2,0.816,0.218,1.135
		l0.025,0.451V24.8c0,0.109-0.009,0.268-0.025,0.473c-0.018,0.205-0.09,0.564-0.218,1.08s-0.312,0.969-0.551,1.359
		c-0.239,0.393-0.617,0.746-1.133,1.061s-1.155,0.473-1.915,0.473c-0.76,0-1.398-0.154-1.915-0.459s-0.895-0.672-1.133-1.101
		c-0.239-0.429-0.423-0.862-0.551-1.306c-0.128-0.442-0.2-0.81-0.218-1.102L205.099,24.8z M207.929,25.02
		c0,0.112,0.004,0.257,0.014,0.433c0.01,0.174,0.099,0.405,0.269,0.693c0.169,0.288,0.413,0.432,0.729,0.432s0.56-0.129,0.729-0.39
		c0.169-0.26,0.255-0.526,0.255-0.8l0.027-0.368V12.455c0-0.113-0.005-0.257-0.014-0.432c-0.009-0.174-0.099-0.408-0.269-0.701
		c-0.17-0.293-0.413-0.439-0.729-0.439s-0.56,0.132-0.729,0.396c-0.17,0.265-0.255,0.52-0.255,0.765l-0.027,0.411V25.02z"/>
	<path d="M215.161,24.8V8.449h2.83V25.05c0,0.111,0.004,0.253,0.014,0.424c0.01,0.171,0.099,0.398,0.269,0.68
		c0.169,0.282,0.415,0.424,0.736,0.424c0.321,0,0.564-0.127,0.729-0.383c0.165-0.254,0.248-0.516,0.248-0.783l0.041-0.361V8.449
		h2.83V24.8c0,0.109-0.009,0.268-0.025,0.473c-0.018,0.205-0.092,0.564-0.224,1.08c-0.133,0.516-0.316,0.969-0.551,1.359
		c-0.235,0.393-0.61,0.746-1.127,1.061s-1.157,0.473-1.921,0.473c-0.764,0-1.405-0.154-1.921-0.459
		c-0.516-0.305-0.892-0.672-1.127-1.101s-0.418-0.862-0.551-1.306c-0.132-0.442-0.207-0.81-0.224-1.102L215.161,24.8z"/>
	<path d="M229.544,24.8V12.674c0-0.109,0.009-0.267,0.025-0.472c0.018-0.205,0.09-0.565,0.218-1.08s0.312-0.968,0.551-1.36
		c0.239-0.392,0.617-0.747,1.133-1.066c0.517-0.319,1.156-0.479,1.918-0.479c0.762,0,1.421,0.155,1.975,0.465
		c0.554,0.31,0.959,0.679,1.216,1.107c0.256,0.429,0.453,0.861,0.59,1.299c0.138,0.438,0.215,0.816,0.234,1.135l0.027,0.451v2.83
		h-2.83v-3.008c-0.019,0-0.019-0.056,0-0.167c0.018-0.111,0.002-0.245-0.048-0.399c-0.05-0.155-0.108-0.312-0.172-0.472
		s-0.176-0.295-0.337-0.407c-0.161-0.112-0.36-0.167-0.598-0.167c-0.321,0-0.571,0.132-0.75,0.396
		c-0.179,0.265-0.277,0.52-0.296,0.765l-0.027,0.411V25.02c0,0.112,0.009,0.257,0.027,0.433c0.019,0.174,0.117,0.405,0.296,0.693
		c0.179,0.288,0.429,0.432,0.75,0.432c0.376,0,0.662-0.133,0.859-0.399c0.197-0.267,0.296-0.54,0.296-0.821v-0.378V21.97h2.83v2.83
		c0,0.109-0.009,0.267-0.027,0.472c-0.019,0.205-0.096,0.565-0.234,1.08c-0.137,0.515-0.334,0.969-0.591,1.36
		c-0.256,0.392-0.662,0.744-1.216,1.06c-0.554,0.313-1.212,0.472-1.975,0.472c-0.763,0-1.402-0.152-1.918-0.457
		c-0.516-0.306-0.895-0.672-1.133-1.102c-0.239-0.428-0.423-0.863-0.551-1.307c-0.128-0.441-0.2-0.809-0.218-1.101L229.544,24.8z"/>
	<path d="M238.567,29.025l2.868-20.576h3.941l2.86,20.576h-2.696l-0.562-4.197h-2.901l-0.563,4.197H238.567z M242.505,21.628h2.044
		l-0.869-6.484l-0.073-0.542h-0.16l-0.073,0.542L242.505,21.628z"/>
	<path d="M249.874,29.025V8.449h2.748l2.924,10.712l0.259,0.949h0.153v-0.956V8.449h2.83v20.576h-2.748l-2.929-10.736l-0.26-0.95
		h-0.147v0.958v10.729L249.874,29.025L249.874,29.025z"/>
	<path d="M265.229,29.025V8.449h2.267c0.78,0,1.446,0.055,1.998,0.164c0.551,0.109,1.039,0.262,1.465,0.458
		c0.426,0.196,0.771,0.504,1.041,0.923s0.487,0.854,0.657,1.306c0.169,0.451,0.294,1.087,0.371,1.907
		c0.078,0.82,0.132,1.627,0.158,2.42c0.027,0.793,0.041,1.834,0.041,3.124c0,1.29-0.014,2.331-0.041,3.124
		c-0.026,0.793-0.08,1.596-0.158,2.406c-0.077,0.812-0.202,1.44-0.371,1.887c-0.17,0.447-0.389,0.881-0.657,1.299
		c-0.271,0.42-0.615,0.728-1.041,0.924c-0.426,0.195-0.914,0.352-1.465,0.465c-0.552,0.113-1.218,0.171-1.998,0.171L265.229,29.025
		L265.229,29.025z M268.059,26.003c0.861,0,1.426-0.187,1.691-0.561c0.357-0.501,0.545-1.959,0.564-4.375v-2.352
		c0-0.246,0-0.483,0-0.711c0-3.008-0.115-4.84-0.344-5.496c-0.212-0.602-0.634-0.938-1.267-1.012
		c-0.166-0.018-0.381-0.027-0.646-0.027V26.003L268.059,26.003z"/>
	<path d="M275.633,29.025V8.449h2.926c3.326,0,4.99,1.978,4.99,5.934c0,2.362-0.51,3.927-1.529,4.696l1.924,9.946h-2.909
		l-1.568-8.684h-1.002v8.684H275.633z M278.463,17.541c0.283,0,0.523-0.022,0.721-0.068c0.197-0.045,0.433-0.157,0.703-0.335
		c0.271-0.178,0.478-0.49,0.619-0.937c0.141-0.446,0.213-1.016,0.213-1.709c0-0.692-0.072-1.262-0.213-1.709
		c-0.143-0.446-0.35-0.759-0.619-0.937c-0.271-0.178-0.506-0.289-0.703-0.335c-0.197-0.045-0.438-0.068-0.721-0.068V17.541z"/>
	<path d="M285.736,29.025V8.449h2.83v20.576H285.736z"/>
	<path d="M291,29.025V8.449h2.748l2.924,10.712l0.258,0.949h0.154v-0.956V8.449h2.83v20.576h-2.748l-2.93-10.736l-0.26-0.95h-0.146
		v0.958v10.729L291,29.025L291,29.025z"/>
	<path d="M302.047,29.025V8.449h2.83v6.85v0.342l0.053-0.107l0.146-0.343l2.543-6.742h2.973l-2.674,6.225l3.268,14.352H308.2
		l-2.082-8.965l-0.097-0.413l-0.25,0.02l-0.178,0.416l-0.717,1.67v7.272L302.047,29.025L302.047,29.025z"/>
	<path d="M324.619,29.025l2.867-20.576h3.94l2.859,20.576h-2.695l-0.562-4.197h-2.902l-0.562,4.197H324.619z M328.557,21.628h2.043
		l-0.867-6.484l-0.071-0.542h-0.16l-0.071,0.542L328.557,21.628z"/>
	<path d="M335.926,29.025V8.449h2.83v17.91h4.197v2.666H335.926z"/>
	<path d="M344.184,29.025V8.449h2.83v17.91h4.197v2.666H344.184z"/>
	<path d="M355.818,8.449h2.953l1.51,6.582l0.037,0.186h0.022l0.078-0.191l1.44-6.576h2.83l-2.953,11.812v8.764h-2.829v-8.764
		L355.818,8.449z"/>
	<path d="M366.127,24.8V12.674c0-0.109,0.008-0.267,0.025-0.472c0.017-0.205,0.09-0.565,0.217-1.08
		c0.129-0.515,0.312-0.968,0.551-1.36c0.24-0.392,0.617-0.747,1.135-1.066c0.516-0.319,1.154-0.479,1.914-0.479
		s1.398,0.155,1.914,0.465s0.895,0.679,1.133,1.107c0.24,0.429,0.424,0.861,0.551,1.299c0.129,0.438,0.201,0.816,0.22,1.135
		l0.024,0.451V24.8c0,0.109-0.01,0.268-0.024,0.473c-0.019,0.205-0.091,0.564-0.22,1.08c-0.127,0.516-0.311,0.969-0.551,1.359
		c-0.238,0.393-0.617,0.746-1.133,1.061s-1.154,0.473-1.914,0.473s-1.398-0.154-1.914-0.459c-0.518-0.305-0.895-0.672-1.135-1.101
		c-0.238-0.429-0.422-0.862-0.551-1.306c-0.127-0.442-0.199-0.81-0.217-1.102L366.127,24.8z M368.957,25.02
		c0,0.112,0.004,0.257,0.014,0.433c0.008,0.174,0.098,0.405,0.269,0.693c0.17,0.288,0.413,0.432,0.729,0.432s0.559-0.129,0.729-0.39
		c0.17-0.26,0.256-0.526,0.256-0.8l0.026-0.368V12.455c0-0.113-0.006-0.257-0.014-0.432c-0.01-0.174-0.1-0.408-0.27-0.701
		c-0.17-0.293-0.412-0.439-0.729-0.439c-0.318,0-0.562,0.132-0.73,0.396c-0.17,0.265-0.254,0.52-0.254,0.765l-0.027,0.411V25.02
		L368.957,25.02z"/>
	<path d="M376.189,24.8V8.449h2.83V25.05c0,0.111,0.004,0.253,0.014,0.424c0.008,0.171,0.098,0.398,0.268,0.68
		c0.17,0.282,0.416,0.424,0.736,0.424c0.322,0,0.564-0.127,0.73-0.383c0.164-0.254,0.248-0.516,0.248-0.783l0.041-0.361V8.449h2.829
		V24.8c0,0.109-0.01,0.268-0.024,0.473c-0.019,0.205-0.092,0.564-0.226,1.08c-0.133,0.516-0.315,0.969-0.551,1.359
		c-0.233,0.393-0.61,0.746-1.127,1.061s-1.156,0.473-1.922,0.473c-0.765,0-1.404-0.154-1.921-0.459
		c-0.518-0.305-0.893-0.672-1.129-1.101c-0.233-0.429-0.418-0.862-0.549-1.306c-0.133-0.442-0.207-0.81-0.225-1.102L376.189,24.8z"
		/>
	<path d="M390.572,24.8V12.674c0-0.109,0.008-0.267,0.025-0.472c0.016-0.205,0.09-0.565,0.217-1.08
		c0.129-0.515,0.312-0.968,0.551-1.36c0.24-0.392,0.617-0.747,1.135-1.066c0.516-0.319,1.154-0.479,1.918-0.479
		c0.762,0,1.42,0.155,1.975,0.465c0.556,0.31,0.959,0.679,1.218,1.107c0.256,0.429,0.453,0.861,0.59,1.299s0.215,0.816,0.233,1.135
		l0.027,0.451v2.83h-2.83v-3.008c-0.02,0-0.02-0.056,0-0.167c0.018-0.111,0.002-0.245-0.049-0.399
		c-0.051-0.155-0.107-0.312-0.172-0.472s-0.176-0.295-0.336-0.407c-0.162-0.112-0.361-0.167-0.6-0.167
		c-0.32,0-0.57,0.132-0.75,0.396c-0.179,0.265-0.277,0.52-0.295,0.765l-0.027,0.411V25.02c0,0.112,0.008,0.257,0.027,0.433
		c0.018,0.174,0.116,0.405,0.295,0.693c0.18,0.288,0.43,0.432,0.75,0.432c0.377,0,0.662-0.133,0.858-0.399
		c0.197-0.267,0.297-0.54,0.297-0.821v-0.378V21.97h2.83v2.83c0,0.109-0.01,0.267-0.027,0.472c-0.02,0.205-0.098,0.565-0.233,1.08
		c-0.137,0.515-0.334,0.969-0.59,1.36c-0.259,0.392-0.662,0.744-1.218,1.06c-0.555,0.315-1.212,0.472-1.975,0.472
		c-0.765,0-1.401-0.152-1.918-0.457c-0.519-0.306-0.896-0.672-1.136-1.102c-0.237-0.428-0.422-0.863-0.551-1.307
		c-0.127-0.441-0.199-0.809-0.217-1.101L390.572,24.8z"/>
	<path d="M399.596,29.025l2.867-20.576h3.941l2.858,20.576h-2.694l-0.562-4.197h-2.902l-0.562,4.197H399.596z M403.533,21.628h2.043
		l-0.867-6.484l-0.072-0.542h-0.16l-0.071,0.542L403.533,21.628z"/>
	<path d="M410.902,29.025V8.449h2.748l2.924,10.712l0.258,0.949h0.154v-0.956V8.449h2.83v20.576h-2.748l-2.931-10.736l-0.26-0.95
		h-0.146v0.958v10.729L410.902,29.025L410.902,29.025z"/>
	<path d="M425.641,23.309l2.83-0.276c0,2.363,0.476,3.545,1.429,3.545c0.823,0,1.241-0.771,1.252-2.312
		c0-0.27-0.035-0.547-0.104-0.829c-0.069-0.283-0.197-0.625-0.385-1.024c-0.189-0.398-0.336-0.697-0.441-0.892l-0.715-1.103
		c-0.356-0.529-0.57-0.858-0.643-0.986c-0.58-0.895-1.049-1.616-1.404-2.163s-0.678-1.226-0.965-2.039
		c-0.287-0.812-0.43-1.568-0.43-2.268c0-1.246,0.313-2.343,0.944-3.292c0.631-0.949,1.586-1.434,2.865-1.452c0.045,0,0.09,0,0.133,0
		c0.777,0,1.439,0.157,1.986,0.472c0.582,0.333,1.004,0.789,1.264,1.369c0.262,0.58,0.447,1.151,0.558,1.713
		c0.109,0.562,0.166,1.176,0.166,1.841l-2.83,0.277c0-2.004-0.408-3.006-1.226-3.006c-0.697,0.019-1.041,0.717-1.031,2.095
		c0,0.168,0.023,0.352,0.068,0.552c0.047,0.2,0.105,0.382,0.176,0.545c0.068,0.163,0.177,0.363,0.32,0.601
		c0.146,0.237,0.26,0.419,0.342,0.544s0.211,0.322,0.387,0.588l0.384,0.583l0.44,0.675l0.42,0.639l1.425,2.171
		c0.227,0.456,0.469,1.103,0.731,1.944c0.262,0.842,0.394,1.614,0.394,2.32c0,3.412-1.361,5.113-4.084,5.104
		c-0.726,0-1.354-0.115-1.884-0.345c-0.53-0.229-0.944-0.519-1.246-0.86c-0.301-0.344-0.536-0.791-0.709-1.342
		c-0.174-0.551-0.284-1.082-0.34-1.592C425.666,24.593,425.641,23.996,425.641,23.309z"/>
	<path d="M434.596,11.553V8.449h8.929v3.104h-3.05v17.473h-2.83V11.553H434.596z"/>
	<path d="M443.852,29.025l2.867-20.576h3.941l2.858,20.576h-2.694l-0.562-4.197h-2.901l-0.562,4.197H443.852z M447.789,21.628h2.043
		l-0.867-6.484l-0.072-0.542h-0.159l-0.072,0.542L447.789,21.628z"/>
	<path d="M455.158,29.025V8.449h2.748l2.924,10.712l0.258,0.949h0.154v-0.956V8.449h2.83v20.576h-2.748l-2.931-10.736l-0.26-0.95
		h-0.146v0.958v10.729L455.158,29.025L455.158,29.025z"/>
	<path d="M466.205,29.025V8.449h2.266c0.781,0,1.447,0.055,1.998,0.164c0.551,0.109,1.039,0.262,1.465,0.458
		c0.427,0.196,0.771,0.504,1.041,0.923c0.271,0.419,0.488,0.854,0.658,1.306c0.168,0.451,0.293,1.087,0.371,1.907
		s0.131,1.627,0.158,2.42c0.026,0.793,0.041,1.834,0.041,3.124c0,1.29-0.015,2.331-0.041,3.124c-0.027,0.793-0.08,1.596-0.158,2.406
		c-0.078,0.812-0.203,1.44-0.371,1.887c-0.17,0.447-0.389,0.881-0.658,1.299c-0.27,0.42-0.614,0.728-1.041,0.924
		c-0.426,0.195-0.914,0.352-1.465,0.465s-1.217,0.171-1.998,0.171L466.205,29.025L466.205,29.025z M469.035,26.003
		c0.861,0,1.426-0.187,1.69-0.561c0.357-0.501,0.546-1.959,0.564-4.375v-2.352c0-0.246,0-0.483,0-0.711
		c0-3.008-0.115-4.84-0.344-5.496c-0.211-0.602-0.633-0.938-1.267-1.012c-0.166-0.018-0.381-0.027-0.646-0.027L469.035,26.003
		L469.035,26.003z"/>
</g>
<circle cx="156.904" cy="19.449" r="2.25"/>
<circle cx="317.75" cy="19.449" r="2.25"/>
</svg>
