<?xml version="1.0" encoding="utf-8"?>
<!-- Generator: Adobe Illustrator 16.0.0, SVG Export Plug-In . SVG Version: 6.00 Build 0)  -->
<!DOCTYPE svg PUBLIC "-//W3C//DTD SVG 1.1//EN" "http://www.w3.org/Graphics/SVG/1.1/DTD/svg11.dtd">
<svg version="1.1" id="Layer_1" xmlns="http://www.w3.org/2000/svg" xmlns:xlink="http://www.w3.org/1999/xlink" x="0px" y="0px"
	 width="612px" height="1437.562px" viewBox="0 0 612 1437.562" enable-background="new 0 0 612 1437.562" xml:space="preserve">
<g>
	<polygon fill="#FFFFFF" stroke="#603913" stroke-width="3" stroke-miterlimit="10" points="570.333,1128.573 305,1388.333 
		38.094,1130.455 39.093,37 573.506,37 573.506,99.999 	"/>
</g>
<g>
	<rect x="51.27" y="50" fill="#663434" width="511.236" height="1078.573"/>
	<polygon fill="#663434" points="562.505,1127.994 306.888,1374.517 51.27,1127.994 	"/>
</g>
<path stroke="#000000" stroke-miterlimit="10" d="M593.002,1227.998"/>
<rect x="140.09" y="330.798" fill-rule="evenodd" clip-rule="evenodd" fill="none" width="471.91" height="793.775"/>
<text transform="matrix(1 0 0 1 140.0903 514.5444)"><tspan x="0" y="0" fill="#FFFFFF" font-family="'LeagueGothic'" font-size="250">BEEF </tspan><tspan x="0" y="171" fill="#FFFFFF" font-family="'LeagueGothic'" font-size="220" letter-spacing="4">BEER</tspan><tspan x="311.936" y="171" fill="#FFFFFF" font-family="'LeagueGothic'" font-size="250"> </tspan><tspan x="0" y="361" fill="#FFFFFF" font-family="'LeagueGothic'" font-size="250">FUN! </tspan></text>
<rect x="155.934" y="131" fill-rule="evenodd" clip-rule="evenodd" fill="none" width="303.066" height="793.775"/>
<text transform="matrix(1 0 0 1 155.9336 173)"><tspan x="0" y="0" fill="#FFFFFF" font-family="'BlackoakStd'" font-size="56">SUN </tspan><tspan x="0" y="17" fill="#FFFFFF" font-family="'BlackoakStd'" font-size="56"> </tspan><tspan x="0" y="34" fill="#FFFFFF" font-family="'BlackoakStd'" font-size="56"> </tspan><tspan x="0" y="51" fill="#FFFFFF" font-family="'BlackoakStd'" font-size="53">APR</tspan><tspan x="0" y="102" fill="#FFFFFF" font-family="'BlackoakStd'" font-size="48">13TH</tspan></text>
<rect x="141.09" y="947.998" fill="none" width="318.91" height="612"/>
<text transform="matrix(1 0 0 1 141.0903 982.543)"><tspan x="0" y="0" fill="#FFFFFF" font-family="'LeagueGothic'" font-size="47">TICKETS AVAILABLE NOW</tspan><tspan x="0" y="17" fill="#FFFFFF" font-family="'LeagueGothic'" font-size="47"> </tspan><tspan x="0" y="68" fill="#FFFFFF" font-family="'LeagueGothic'" font-size="72">THE BELL HOUSE</tspan></text>
</svg>
