<?xml version="1.0" encoding="utf-8"?>
<!-- Generator: Adobe Illustrator 16.0.0, SVG Export Plug-In . SVG Version: 6.00 Build 0)  -->
<!DOCTYPE svg PUBLIC "-//W3C//DTD SVG 1.1//EN" "http://www.w3.org/Graphics/SVG/1.1/DTD/svg11.dtd">
<svg version="1.1" id="Layer_1" xmlns="http://www.w3.org/2000/svg" xmlns:xlink="http://www.w3.org/1999/xlink" x="0px" y="0px"
	 width="612px" height="515.73px" viewBox="0 0 612 515.73" enable-background="new 0 0 612 515.73" xml:space="preserve">
<path fill="#FFFFFF" d="M563.526,225.943c-4.064-37.854-21.49-83.506-47.666-100.576c-15.811-10.313-39.603-15.327-72.729-15.327
	c-25.729,0-53.802,2.95-78.562,5.558c-19.08,2.002-37.098,3.898-50.786,4.095c-12.158,0.192-29.773-1.212-50.34-2.825
	c-25.423-1.992-54.235-4.245-81.529-4.245c-57.308,0-89.175,10.367-100.291,32.628c-3.227,6.466-17.036,40.855-21.166,72.583
	c-1.482,11.372-0.071,26.558,1.604,35.393c6.015,31.813,35.327,37.738,68.887,48.037c28.796,8.84,67.694,14.212,100.394,39.999
	C482.158,539.034,572.787,312.375,563.526,225.943z M102.277,153.678c7.484-14.992,16.28-20.621,64.579-20.621
	c4.978,0,16.642,0.235,18.957,4.76c3.095,6.048,1.967,5.668-1.92,10.581c-13.902,17.565-29.339,23.667-28.258,32.242
	c2.682,21.353,27.979,33.69,54.984,38.065c22.359,3.627,52.314,24.969,108.6,65.339c24.533,17.603-44.974-18.351-67.57-32.462
	c-37.341-23.316-74.434-34.698-104.24-43.845c-27.807-8.538-46.049-15.282-51.016-26.867
	C93.725,174.663,96.128,165.994,102.277,153.678z M531.448,292.807c-10.776,11.866-31.619,21.075-65.109,21.075
	c-31.836,0-73.455,8.806-101.062-15.937c-52.065-46.66-108.351-79.086-138.826-89.431c-24.267-8.235-42.342-19.35-43.958-32.175
	c-0.043-4.341,4.359-11.236,11.349-20.067c8.221-10.39,15.286-17.521,22.486-18.155c20.548-1.811,36.333-0.041,52.27,1.21
	c21.04,1.647,35.115,1.411,48.036,1.204c14.511-0.206,33.983-1.118,53.472-3.171c24.33-2.556,48.244-9.2,73.027-9.2
	c29.5,0,50.049,4.05,62.818,12.381c17.902,11.675,34.549,48.56,39.592,87.707C549.46,258.739,541.979,281.199,531.448,292.807z"/>
<path fill="#FFFFFF" d="M468.909,228.748c-13.444,0-26.338-8.229-32.84-20.965c-9.315-18.25-3.132-40.13,13.781-48.758
	c4.583-2.339,9.544-3.529,14.729-3.529c13.451,0,26.344,8.23,32.845,20.963c9.319,18.253,3.133,40.125-13.777,48.758
	C479.056,227.561,474.102,228.748,468.909,228.748L468.909,228.748z M464.581,168.182c-3.168,0-6.182,0.722-8.959,2.141
	c-10.688,5.457-14.386,19.667-8.249,31.685c4.354,8.533,12.81,14.046,21.536,14.046c3.168,0,6.187-0.721,8.964-2.138
	c10.684-5.457,14.387-19.668,8.245-31.688C481.77,173.696,473.312,168.182,464.581,168.182L464.581,168.182z"/>
</svg>
