<?xml version="1.0" encoding="utf-8"?>
<!-- Generator: Adobe Illustrator 16.0.0, SVG Export Plug-In . SVG Version: 6.00 Build 0)  -->
<!DOCTYPE svg PUBLIC "-//W3C//DTD SVG 1.1//EN" "http://www.w3.org/Graphics/SVG/1.1/DTD/svg11.dtd">
<svg version="1.1" id="Layer_1" xmlns="http://www.w3.org/2000/svg" xmlns:xlink="http://www.w3.org/1999/xlink" x="0px" y="0px"
	 width="700px" height="440.5px" viewBox="0 0 700 440.5" enable-background="new 0 0 700 440.5" xml:space="preserve">
<polygon fill="none" stroke="#000000" stroke-width="3" stroke-miterlimit="10" points="110.976,183.167 110.976,422.168 
	580.977,244.167 580.977,12.167 "/>
<g>
	<path fill="none" stroke="#000000" stroke-width="3" stroke-miterlimit="10" d="M151.987,283.471l12.005-77.181l19.815-7.67
		c7.409-2.867,12.585-2.992,15.532-0.375c2.986,2.697,3.973,7.295,2.962,13.793c-1.503,9.664-6.24,16.414-14.208,20.25
		c4.341-0.929,7.338-0.396,8.986,1.596c1.647,1.992,2.062,5.622,1.243,10.888c-1.031,6.631-3.618,12.644-7.758,18.037
		c-4.12,5.416-9.025,9.225-14.717,11.428L151.987,283.471z M171.567,260.527c0.321-0.092,0.603-0.178,0.847-0.256
		c0.242-0.078,0.445-0.147,0.608-0.211c2.124-0.822,3.929-2.182,5.414-4.072c1.484-1.896,2.411-4.021,2.778-6.383
		c0.367-2.36,0.021-3.963-1.038-4.81c-1.059-0.843-2.691-0.838-4.897,0.017l-1.349,0.521L171.567,260.527z M176.457,229.087
		l1.145-0.442c2.043-0.791,3.747-1.998,5.114-3.623c1.366-1.625,2.212-3.486,2.539-5.586c0.694-4.465-0.96-5.924-4.963-4.374
		c-0.191,0.073-0.432,0.175-0.72,0.302c-0.289,0.129-0.641,0.288-1.054,0.479L176.457,229.087z"/>
	<path fill="none" stroke="#000000" stroke-width="3" stroke-miterlimit="10" d="M247.019,246.688l-18.426,7.133l-4.141-24.236
		c-0.009-0.434-0.056-0.994-0.141-1.684c-0.085-0.688-0.195-1.506-0.329-2.457l-0.67,5.052l-4.199,26.991l-16.956,6.563
		l12.005-77.18l17.445-6.753c7.682-2.973,13.14-3.349,16.379-1.125c4.112,2.855,5.49,8.649,4.132,17.38
		c-1.452,9.331-5.709,17.039-12.774,23.124L247.019,246.688z M225.813,214.917l1.145-0.443c1.961-0.758,3.737-2.307,5.33-4.646
		c1.592-2.338,2.609-4.924,3.049-7.757c0.896-5.766-1.121-7.694-6.05-5.786l-0.612,0.237L225.813,214.917z"/>
	<path fill="none" stroke="#000000" stroke-width="3" stroke-miterlimit="10" d="M304.239,188.523
		c-1.767,11.359-5.396,21.442-10.887,30.25c-5.459,8.767-11.689,14.504-18.689,17.213c-6.211,2.404-11.112,1.746-14.707-1.973
		c-4.512-4.726-5.698-13.975-3.556-27.747c2.052-13.192,6.536-24.409,13.451-33.648c5.136-6.855,10.673-11.434,16.612-13.731
		c7.271-2.815,12.514-1.548,15.727,3.801S306.086,176.649,304.239,188.523z M286.521,195.546
		c2.129-13.689,1.177-19.756-2.852-18.196c-2.017,0.78-3.902,3.2-5.66,7.259c-1.69,3.786-3.038,8.914-4.044,15.383
		c-0.991,6.371-1.209,11.101-0.652,14.185c0.557,3.087,1.815,4.249,3.777,3.489c2.016-0.779,3.837-3.11,5.465-6.998
		C284.238,206.763,285.56,201.723,286.521,195.546z"/>
	<path fill="none" stroke="#000000" stroke-width="3" stroke-miterlimit="10" d="M357.883,167.761
		c-1.768,11.359-5.396,21.442-10.887,30.25c-5.459,8.767-11.689,14.505-18.688,17.214c-6.211,2.403-11.112,1.745-14.707-1.974
		c-4.513-4.725-5.697-13.975-3.556-27.746c2.052-13.193,6.535-24.41,13.45-33.648c5.137-6.855,10.674-11.434,16.613-13.732
		c7.271-2.814,12.515-1.547,15.728,3.801C359.049,147.274,359.73,155.886,357.883,167.761z M340.166,174.783
		c2.13-13.689,1.178-19.756-2.854-18.195c-2.017,0.78-3.901,3.199-5.659,7.258c-1.689,3.787-3.038,8.915-4.044,15.384
		c-0.991,6.371-1.209,11.1-0.651,14.185c0.556,3.087,1.813,4.248,3.776,3.489c2.017-0.78,3.837-3.111,5.465-6.998
		C337.883,186,339.205,180.958,340.166,174.783z"/>
	<path fill="none" stroke="#000000" stroke-width="3" stroke-miterlimit="10" d="M405.486,185.354l-18.386,7.116l-5.78-31.21
		l-5.088,35.416l-17.037,6.595l12.006-77.18l17.037-6.595l-5.599,33.266l15.199-36.981l17.978-6.958l-19.396,42.506L405.486,185.354
		z"/>
	<path fill="none" stroke="#000000" stroke-width="3" stroke-miterlimit="10" d="M440.215,171.912l-29.826,11.544l12.006-77.18
		l17.037-6.595l-9.129,58.684l12.789-4.949L440.215,171.912z"/>
	<path fill="none" stroke="#000000" stroke-width="3" stroke-miterlimit="10" d="M469.789,160.465l-17.037,6.595l5.086-32.691
		l-8.729-38.433l17.772-6.879l1.283,10.261c0.252,2.002,0.455,3.942,0.611,5.824c0.153,1.882,0.274,3.698,0.36,5.449
		c1.064-3.074,1.99-5.727,2.771-7.955c0.78-2.228,1.446-4.044,2-5.447l4.899-12.749l17.65-6.831l-21.59,50.165L469.789,160.465z"/>
	<path fill="none" stroke="#000000" stroke-width="3" stroke-miterlimit="10" d="M488.869,153.08l12.006-77.18l16.26-6.293
		l4.326,23.787c0.213,1.421,0.453,3.051,0.717,4.891c0.265,1.839,0.539,3.972,0.828,6.396l0.701,6.117
		c0.414-6.455,0.83-12.002,1.242-16.641c0.414-4.64,0.873-8.574,1.377-11.809l2.697-17.344l16.424-6.357l-12.004,77.18
		l-16.425,6.357l-4.68-24.874c-0.481-2.662-0.897-5.17-1.252-7.524c-0.354-2.353-0.631-4.617-0.836-6.794
		c-0.166,5.171-0.406,9.71-0.719,13.621c-0.312,3.91-0.705,7.383-1.179,10.414l-3.062,19.695L488.869,153.08z"/>
</g>
<g>
	<path fill="none" stroke="#000000" stroke-width="3" stroke-miterlimit="10" d="M152.461,375.217l11.902-77.195l19.805-7.694
		c7.405-2.878,12.583-3.009,15.532-0.396c2.989,2.691,3.982,7.289,2.98,13.786c-1.491,9.668-6.218,16.423-14.182,20.271
		c4.341-0.934,7.337-0.405,8.988,1.584c1.651,1.99,2.071,5.619,1.258,10.887c-1.022,6.632-3.601,12.648-7.734,18.045
		c-4.112,5.422-9.013,9.236-14.702,11.447L152.461,375.217z M172.01,352.248c0.322-0.092,0.604-0.178,0.846-0.256
		c0.243-0.078,0.445-0.148,0.608-0.213c2.123-0.824,3.927-2.187,5.409-4.082c1.483-1.896,2.406-4.022,2.77-6.383
		c0.364-2.362,0.016-3.965-1.044-4.81c-1.06-0.843-2.693-0.836-4.897,0.021l-1.349,0.523L172.01,352.248z M176.859,320.803
		l1.145-0.443c2.042-0.793,3.744-2.004,5.108-3.631c1.364-1.627,2.208-3.489,2.532-5.59c0.689-4.468-0.968-5.923-4.97-4.367
		c-0.19,0.074-0.431,0.177-0.719,0.304c-0.289,0.129-0.639,0.288-1.054,0.479L176.859,320.803z"/>
	<path fill="none" stroke="#000000" stroke-width="3" stroke-miterlimit="10" d="M202.607,355.73l11.902-77.195l31.648-12.299
		l-2.852,18.5l-14.62,5.681l-1.519,9.851l13.108-5.095l-2.852,18.5l-13.108,5.095l-1.827,11.849l14.62-5.681l-2.853,18.498
		L202.607,355.73z"/>
	<path fill="none" stroke="#000000" stroke-width="3" stroke-miterlimit="10" d="M241.524,340.609l11.902-77.195l31.648-12.296
		l-2.852,18.498l-14.62,5.682l-1.519,9.849l13.108-5.094l-2.852,18.5l-13.108,5.094l-1.827,11.851l14.62-5.683l-2.853,18.5
		L241.524,340.609z"/>
	<path fill="none" stroke="#000000" stroke-width="3" stroke-miterlimit="10" d="M297.468,318.871l-17.027,6.615l11.902-77.194
		l30.097-11.694l-2.853,18.5l-13.068,5.077L305,270.023l12.17-4.729l-2.853,18.5l-12.17,4.729L297.468,318.871z"/>
	<path fill="none" stroke="#000000" stroke-width="3" stroke-miterlimit="10" d="M316.291,308.598l3.661-23.748
		c2.483,4.297,5.675,5.688,9.566,4.178c1.471-0.571,2.738-1.494,3.807-2.771c1.065-1.275,1.706-2.605,1.919-3.988
		c0.308-1.994-0.4-3.548-2.123-4.66l-2.382-1.479c-1.6-0.92-2.926-1.938-3.981-3.055c-1.058-1.115-1.86-2.378-2.413-3.778
		c-0.551-1.402-0.875-2.945-0.975-4.632c-0.101-1.685,0.008-3.538,0.32-5.562c0.535-3.474,1.775-7.373,3.725-11.697
		c0.951-2.031,1.991-3.954,3.115-5.766c1.124-1.812,2.356-3.511,3.702-5.09c3.708-4.464,7.835-7.579,12.382-9.346
		c4.056-1.576,7.94-1.885,11.66-0.926l-3.572,23.164c-0.982-2.094-2.24-3.556-3.777-4.385c-1.535-0.83-3.161-0.91-4.875-0.244
		c-1.309,0.508-2.451,1.377-3.435,2.604c-1.006,1.208-1.604,2.421-1.79,3.641c-0.309,1.992,0.545,3.52,2.559,4.579l2.33,1.313
		c3.123,1.654,5.213,3.787,6.269,6.396c1.084,2.6,1.295,6.053,0.631,10.356c-1.129,7.325-3.953,14.101-8.471,20.325
		c-4.518,6.226-9.675,10.465-15.474,12.718C324.667,308.302,320.541,308.919,316.291,308.598z"/>
	<path fill="none" stroke="#000000" stroke-width="3" stroke-miterlimit="10" d="M378.137,287.525l-17.026,6.617l9.049-58.697
		l-9.394,3.648l2.854-18.499l36.182-14.06l-2.854,18.5l-9.761,3.792L378.137,287.525z"/>
	<path fill="none" stroke="#000000" stroke-width="3" stroke-miterlimit="10" d="M392.309,282.02l11.902-77.194l31.646-12.298
		l-2.854,18.499l-14.619,5.681l-1.52,9.85l13.11-5.096l-2.852,18.5l-13.109,5.094l-1.828,11.848l14.621-5.68l-2.854,18.5
		L392.309,282.02z"/>
	<path fill="none" stroke="#000000" stroke-width="3" stroke-miterlimit="10" d="M476.633,249.252l-17.602,6.839l0.246-9.307
		l-11.476,4.458l-2.899,10.338l-17.601,6.839l27.054-83.083l20.825-8.092L476.633,249.252z M459.783,231.312l0.285-8.571
		c-0.021-0.021-0.009-0.45,0.045-1.286c0.059-0.711,0.219-3.5,0.481-8.365c0.033-0.546,0.086-1.295,0.154-2.246
		c0.068-0.951,0.152-2.15,0.248-3.598l0.596-7.094c-0.164,0.721-0.358,1.534-0.588,2.437c-0.229,0.905-0.479,1.895-0.746,2.97
		c-0.508,2.142-0.865,3.626-1.069,4.459c-0.205,0.831-0.337,1.336-0.388,1.512l-2.627,9.811l-3.58,12.767L459.783,231.312z"/>
	<path fill="none" stroke="#000000" stroke-width="3" stroke-miterlimit="10" d="M527.842,229.354l-18.375,7.141l-5.824-31.201
		l-5.039,35.423l-17.028,6.616l11.901-77.195l17.029-6.616l-5.553,33.272l15.147-37.002l17.968-6.981l-19.343,42.532
		L527.842,229.354z"/>
</g>
</svg>
