<?xml version="1.0" encoding="utf-8"?>
<!-- Generator: Adobe Illustrator 16.0.0, SVG Export Plug-In . SVG Version: 6.00 Build 0)  -->
<!DOCTYPE svg PUBLIC "-//W3C//DTD SVG 1.1//EN" "http://www.w3.org/Graphics/SVG/1.1/DTD/svg11.dtd">
<svg version="1.1" id="Layer_1" xmlns="http://www.w3.org/2000/svg" xmlns:xlink="http://www.w3.org/1999/xlink" x="0px" y="0px"
	 width="700px" height="700px" viewBox="0 0 700 700" enable-background="new 0 0 700 700" xml:space="preserve">
<polygon fill="none" stroke="#FFFFFF" stroke-width="2" stroke-miterlimit="10" points="123,278 123,517 593,339 593,107 "/>
<g>
	<path fill="#FFFFFF" d="M164.011,378.303l12.005-77.18l19.815-7.67c7.409-2.867,12.585-2.992,15.532-0.375
		c2.986,2.697,3.973,7.295,2.962,13.793c-1.503,9.664-6.24,16.414-14.208,20.25c4.341-0.929,7.338-0.396,8.986,1.596
		c1.647,1.992,2.062,5.622,1.243,10.888c-1.031,6.631-3.618,12.643-7.758,18.035c-4.12,5.416-9.025,9.225-14.717,11.428
		L164.011,378.303z M183.591,355.359c0.321-0.091,0.603-0.178,0.847-0.255c0.242-0.078,0.445-0.148,0.608-0.212
		c2.124-0.822,3.929-2.18,5.414-4.072c1.484-1.894,2.411-4.021,2.778-6.382c0.367-2.361,0.021-3.964-1.038-4.81
		c-1.059-0.843-2.691-0.838-4.897,0.016l-1.349,0.521L183.591,355.359z M188.481,323.92l1.145-0.443
		c2.043-0.79,3.747-1.998,5.114-3.622c1.366-1.625,2.212-3.487,2.539-5.587c0.694-4.465-0.96-5.924-4.963-4.374
		c-0.191,0.073-0.432,0.175-0.72,0.302c-0.289,0.129-0.641,0.288-1.054,0.479L188.481,323.92z"/>
	<path fill="#FFFFFF" d="M259.043,341.521l-18.426,7.132l-4.141-24.236c-0.009-0.434-0.056-0.994-0.141-1.684
		c-0.085-0.688-0.195-1.505-0.329-2.456l-0.67,5.051l-4.199,26.993l-16.956,6.563l12.005-77.18l17.445-6.753
		c7.682-2.973,13.14-3.349,16.379-1.125c4.112,2.855,5.49,8.649,4.132,17.38c-1.452,9.331-5.709,17.039-12.774,23.124
		L259.043,341.521z M237.837,309.75l1.145-0.443c1.961-0.758,3.737-2.307,5.33-4.646c1.592-2.338,2.609-4.924,3.049-7.757
		c0.896-5.766-1.121-7.694-6.05-5.786l-0.612,0.237L237.837,309.75z"/>
	<path fill="#FFFFFF" d="M316.263,283.356c-1.767,11.359-5.396,21.442-10.887,30.25c-5.459,8.767-11.689,14.505-18.689,17.214
		c-6.211,2.404-11.112,1.746-14.707-1.974c-4.512-4.725-5.698-13.974-3.556-27.746c2.052-13.192,6.536-24.409,13.451-33.648
		c5.136-6.855,10.673-11.434,16.612-13.731c7.271-2.815,12.514-1.548,15.727,3.801C317.427,262.871,318.11,271.482,316.263,283.356z
		 M298.545,290.379c2.129-13.689,1.177-19.756-2.852-18.196c-2.017,0.78-3.902,3.2-5.66,7.259c-1.69,3.786-3.038,8.914-4.044,15.383
		c-0.991,6.371-1.209,11.101-0.652,14.185c0.557,3.087,1.815,4.249,3.777,3.489c2.016-0.779,3.837-3.11,5.465-6.998
		C296.262,301.595,297.584,296.555,298.545,290.379z"/>
	<path fill="#FFFFFF" d="M369.907,262.594c-1.767,11.359-5.396,21.442-10.887,30.25c-5.459,8.767-11.69,14.505-18.689,17.214
		c-6.211,2.403-11.113,1.745-14.707-1.974c-4.513-4.725-5.698-13.975-3.556-27.746c2.052-13.193,6.535-24.41,13.451-33.648
		c5.136-6.855,10.673-11.434,16.613-13.732c7.271-2.814,12.514-1.547,15.727,3.801C371.072,242.107,371.754,250.719,369.907,262.594
		z M352.189,269.615c2.13-13.689,1.178-19.756-2.852-18.195c-2.017,0.78-3.902,3.199-5.66,7.258
		c-1.69,3.787-3.038,8.915-4.044,15.384c-0.991,6.371-1.209,11.1-0.652,14.185c0.556,3.087,1.815,4.248,3.777,3.489
		c2.016-0.78,3.837-3.111,5.465-6.998C349.907,280.832,351.229,275.791,352.189,269.615z"/>
	<path fill="#FFFFFF" d="M417.511,280.186l-18.386,7.116l-5.781-31.21l-5.087,35.416l-17.037,6.595l12.005-77.18l17.037-6.595
		l-5.597,33.266l15.198-36.981l17.977-6.958l-19.397,42.506L417.511,280.186z"/>
	<path fill="#FFFFFF" d="M452.239,266.744l-29.826,11.544l12.005-77.18l17.037-6.595l-9.128,58.684l12.789-4.949L452.239,266.744z"
		/>
	<path fill="#FFFFFF" d="M481.812,255.298l-17.036,6.595l5.085-32.691l-8.729-38.433l17.772-6.879l1.284,10.261
		c0.251,2.002,0.455,3.942,0.611,5.824c0.154,1.882,0.275,3.698,0.361,5.449c1.065-3.074,1.99-5.727,2.773-7.955
		c0.781-2.229,1.447-4.044,1.999-5.447l4.901-12.749l17.65-6.831l-21.589,50.165L481.812,255.298z"/>
	<path fill="#FFFFFF" d="M500.893,247.912l12.005-77.18l16.261-6.293l4.325,23.787c0.214,1.421,0.453,3.051,0.718,4.891
		c0.264,1.839,0.539,3.972,0.828,6.396l0.7,6.117c0.414-6.455,0.83-12.002,1.244-16.641c0.414-4.64,0.873-8.574,1.376-11.809
		l2.698-17.344l16.424-6.357l-12.005,77.18l-16.424,6.357l-4.68-24.874c-0.481-2.662-0.898-5.17-1.251-7.524
		c-0.354-2.353-0.632-4.617-0.837-6.794c-0.165,5.171-0.405,9.71-0.718,13.621c-0.313,3.91-0.705,7.383-1.177,10.414l-3.063,19.695
		L500.893,247.912z"/>
</g>
<g>
	<path fill="#FFFFFF" d="M164.485,470.049l11.902-77.195l19.805-7.695c7.405-2.878,12.583-3.009,15.532-0.395
		c2.989,2.692,3.982,7.289,2.98,13.787c-1.491,9.668-6.218,16.423-14.182,20.27c4.341-0.934,7.337-0.406,8.988,1.583
		c1.651,1.991,2.071,5.619,1.258,10.887c-1.022,6.632-3.601,12.648-7.734,18.045c-4.112,5.422-9.013,9.236-14.702,11.447
		L164.485,470.049z M184.034,447.081c0.322-0.092,0.604-0.179,0.846-0.257c0.243-0.078,0.445-0.148,0.608-0.212
		c2.123-0.825,3.927-2.186,5.409-4.081c1.483-1.895,2.406-4.023,2.77-6.384c0.364-2.362,0.016-3.964-1.044-4.808
		c-1.06-0.843-2.693-0.836-4.897,0.021l-1.349,0.524L184.034,447.081z M188.883,415.636l1.145-0.444
		c2.042-0.794,3.744-2.004,5.108-3.631c1.364-1.626,2.208-3.49,2.532-5.59c0.689-4.467-0.968-5.922-4.97-4.367
		c-0.19,0.074-0.431,0.176-0.719,0.303c-0.289,0.129-0.639,0.288-1.054,0.48L188.883,415.636z"/>
	<path fill="#FFFFFF" d="M214.631,450.563l11.902-77.195l31.648-12.298l-2.852,18.5l-14.62,5.68l-1.519,9.85l13.108-5.094
		l-2.852,18.5l-13.108,5.094l-1.827,11.848l14.62-5.68l-2.853,18.498L214.631,450.563z"/>
	<path fill="#FFFFFF" d="M253.548,435.441l11.902-77.195l31.648-12.296l-2.852,18.498l-14.62,5.682l-1.519,9.848l13.108-5.093
		l-2.852,18.5l-13.108,5.093l-1.827,11.85l14.62-5.682l-2.853,18.5L253.548,435.441z"/>
	<path fill="#FFFFFF" d="M309.492,413.703l-17.027,6.616l11.902-77.195l30.096-11.694l-2.852,18.499l-13.068,5.078l-1.519,9.849
		l12.17-4.729l-2.852,18.5l-12.17,4.729L309.492,413.703z"/>
	<path fill="#FFFFFF" d="M328.314,403.431l3.662-23.75c2.484,4.298,5.674,5.69,9.567,4.178c1.47-0.571,2.738-1.494,3.806-2.77
		c1.066-1.276,1.706-2.606,1.919-3.989c0.307-1.994-0.401-3.547-2.123-4.661l-2.382-1.478c-1.599-0.92-2.926-1.938-3.982-3.055
		c-1.057-1.115-1.861-2.376-2.413-3.778c-0.551-1.403-0.875-2.946-0.974-4.632c-0.1-1.684,0.007-3.538,0.32-5.563
		c0.536-3.472,1.776-7.371,3.724-11.695c0.952-2.032,1.992-3.955,3.116-5.767c1.124-1.812,2.357-3.51,3.702-5.089
		c3.708-4.464,7.835-7.579,12.382-9.346c4.056-1.576,7.941-1.884,11.659-0.925l-3.572,23.164c-0.982-2.094-2.241-3.556-3.777-4.386
		c-1.535-0.829-3.161-0.909-4.876-0.243c-1.308,0.508-2.451,1.376-3.434,2.603c-1.006,1.208-1.603,2.421-1.79,3.641
		c-0.308,1.992,0.545,3.519,2.558,4.579l2.33,1.313c3.123,1.656,5.214,3.788,6.269,6.397c1.084,2.6,1.295,6.053,0.631,10.357
		c-1.13,7.325-3.953,14.101-8.471,20.326c-4.518,6.225-9.675,10.464-15.474,12.717C336.69,403.135,332.564,403.752,328.314,403.431z
		"/>
	<path fill="#FFFFFF" d="M390.161,382.357l-17.028,6.617l9.05-58.696l-9.393,3.649l2.853-18.499l36.181-14.06l-2.853,18.5
		l-9.76,3.792L390.161,382.357z"/>
	<path fill="#FFFFFF" d="M404.332,376.852l11.902-77.195l31.647-12.298l-2.853,18.499l-14.62,5.681l-1.519,9.849L442,316.293
		l-2.852,18.5l-13.109,5.094l-1.827,11.848l14.62-5.68l-2.853,18.499L404.332,376.852z"/>
	<path fill="#FFFFFF" d="M488.657,344.085l-17.601,6.839l0.245-9.307l-11.475,4.458l-2.899,10.338l-17.601,6.839l27.053-83.083
		l20.827-8.092L488.657,344.085z M471.807,326.145l0.285-8.571c-0.022-0.021-0.007-0.45,0.045-1.286
		c0.058-0.711,0.219-3.5,0.483-8.365c0.033-0.546,0.085-1.295,0.154-2.246s0.152-2.15,0.247-3.598l0.596-7.094
		c-0.163,0.721-0.358,1.534-0.587,2.437c-0.229,0.905-0.479,1.895-0.746,2.97c-0.509,2.142-0.866,3.626-1.071,4.459
		c-0.205,0.831-0.335,1.336-0.387,1.512l-2.626,9.811l-3.581,12.766L471.807,326.145z"/>
	<path fill="#FFFFFF" d="M539.866,324.187l-18.376,7.14l-5.824-31.201l-5.039,35.423l-17.028,6.616l11.902-77.195l17.028-6.616
		l-5.553,33.272l15.149-37.002l17.968-6.981l-19.342,42.532L539.866,324.187z"/>
</g>
<g>
</g>
<g>
</g>
<g>
</g>
<g>
</g>
<g>
</g>
<g>
</g>
</svg>
