<?xml version="1.0" encoding="utf-8"?>
<!-- Generator: Adobe Illustrator 16.0.0, SVG Export Plug-In . SVG Version: 6.00 Build 0)  -->
<!DOCTYPE svg PUBLIC "-//W3C//DTD SVG 1.1//EN" "http://www.w3.org/Graphics/SVG/1.1/DTD/svg11.dtd">
<svg version="1.1" id="Layer_1" xmlns="http://www.w3.org/2000/svg" xmlns:xlink="http://www.w3.org/1999/xlink" x="0px" y="0px"
	 width="612px" height="792px" viewBox="0 0 612 792" enable-background="new 0 0 612 792" xml:space="preserve">
<path fill-rule="evenodd" clip-rule="evenodd" fill="#583F3F" d="M538.713,59.963c0.723,16.654-6.51,31.283-12.705,45.899
	c-3.365,7.944-3.207,13.03,1.035,20.995c11.467,21.515,18.326,43.715-1.223,65.64c-7.953,8.927-5.764,19.905,0.172,29.834
	c13.92,23.294,17.422,45.884-1.074,69.261c-6.963,8.801-5.012,20.25,0.818,30.305c13.525,23.308,17.709,46.275-1.316,69.277
	c-5.457,6.599-2.652,14.745,0.512,22.054c11.654,26.96,19.482,53.236-1.094,80.538c-6.195,8.215-4.039,20.305,3.908,29.739
	c10.92,12.961,13.133,27.949,5.982,43.349c-8.701,18.744-7.043,36.499,1.684,54.727c6.227,13.011,4.361,26.801-0.375,39.936
	c-5.562,15.44-5.029,30.233,2.713,44.7c7.955,14.87,4.057,28.221-7.225,38.735c-11.371,10.592-22.66,2.836-31.885-4.57
	c-15.734-12.634-29.896-12.117-46.721-1.095c-24.549,16.09-27.928,15.623-49.844-3.254c-9.1-7.839-16.752-5.56-23.918-0.445
	c-21.91,15.649-43.345,20.039-67.12,3.387c-8.709-6.105-18.657-4.438-27.936,2.912c-13.942,11.052-28.712,14.884-45.564,3.575
	c-16.198-10.878-33.057-14.926-50.495,0.264c-9.438,8.223-21.765,5.651-31.722-0.675c-13.961-8.864-26.667-7.617-39.687,1.351
	c-9.811,6.76-19.667,10.87-30.667,1.437c-11.062-9.483-11.002-20.808-4.968-31.964c6.289-11.623,5.285-22.151,1.157-34.025
	c-6.104-17.566-8.243-35.418-1.387-53.856c7.731-20.786,6.655-41.767-1.964-62.413c-4.529-10.85-4.383-22.172,0.687-32.812
	c9.083-19.059,8.013-37.864,0.038-56.818c-6.63-15.762-7.839-30.854-2.16-48.114c5.916-17.957,4.742-37.565-1.818-56.093
	c-4.307-12.173-4.199-23.587,1.407-36.005c5.979-13.246,4.867-27.872,0.132-41.808c-6.672-19.644-8.264-38.736,0.735-58.632
	c9.707-21.461,3.418-42.906-3.86-63.915c-5.564-16.054-6.947-31.694-0.255-48.491c6.864-17.222,1.206-35.14-3.002-52.407
	c-3.167-12.992-2.46-24.67,8.264-34.081c12.082-10.605,23.681-7.511,35.551,0.812c14.117,9.898,29.594,9.661,43.816,1.484
	c17.322-9.961,33.746-9.345,50.428-0.038c13.553,7.56,26.197,5.571,38.533-2.45c15.745-10.236,31.175-10.125,46.282,1.191
	c11.463,8.588,23.587,8.651,34.632,0.554c14.752-10.822,29.266-11.926,44.631-2.467c15.109,9.306,29.434,9.692,44.701-0.613
	c12.064-8.146,25.975-8.968,38.822-1.303c15.398,9.191,30.092,7.759,45.703,0.655C523.863,23.851,539.076,34.544,538.713,59.963z"/>
<rect x="143.833" y="125.932" fill-rule="evenodd" clip-rule="evenodd" fill="none" width="471.91" height="793.775"/>
<text transform="matrix(1 0 0 1 143.8325 309.6782)"><tspan x="0" y="0" fill="#FFFFFF" font-family="'LeagueGothic'" font-size="250">BEEF </tspan><tspan x="0" y="171" fill="#FFFFFF" font-family="'LeagueGothic'" font-size="220" letter-spacing="4">BEER</tspan><tspan x="311.936" y="171" fill="#FFFFFF" font-family="'LeagueGothic'" font-size="250"> </tspan><tspan x="0" y="361" fill="#FFFFFF" font-family="'LeagueGothic'" font-size="250">FUN! </tspan></text>
</svg>
