<?xml version="1.0" encoding="utf-8"?>
<!-- Generator: Adobe Illustrator 16.0.0, SVG Export Plug-In . SVG Version: 6.00 Build 0)  -->
<!DOCTYPE svg PUBLIC "-//W3C//DTD SVG 1.1//EN" "http://www.w3.org/Graphics/SVG/1.1/DTD/svg11.dtd">
<svg version="1.1" id="Layer_1" xmlns="http://www.w3.org/2000/svg" xmlns:xlink="http://www.w3.org/1999/xlink" x="0px" y="0px"
	 width="612px" height="792px" viewBox="0 0 612 792" enable-background="new 0 0 612 792" xml:space="preserve">
<path fill="#339966" stroke="#231F20" stroke-width="15" stroke-miterlimit="10" d="M538.713,59.963
	c0.723,16.654-6.51,31.283-12.705,45.899c-3.365,7.944-3.207,13.03,1.035,20.995c11.467,21.515,18.326,43.715-1.223,65.64
	c-7.953,8.927-5.765,19.905,0.172,29.834c13.92,23.294,17.422,45.884-1.074,69.261c-6.963,8.801-5.012,20.25,0.818,30.306
	c13.524,23.308,17.709,46.274-1.316,69.276c-5.457,6.6-2.652,14.745,0.512,22.055c11.654,26.96,19.482,53.235-1.094,80.537
	c-6.195,8.216-4.039,20.306,3.908,29.739c10.92,12.961,13.133,27.949,5.982,43.349c-8.701,18.744-7.044,36.5,1.684,54.728
	c6.227,13.011,4.361,26.801-0.375,39.936c-5.562,15.44-5.029,30.233,2.713,44.7c7.955,14.87,4.057,28.221-7.225,38.735
	c-11.371,10.592-22.66,2.836-31.886-4.57c-15.733-12.634-29.896-12.117-46.721-1.095c-24.549,16.09-27.928,15.623-49.844-3.254
	c-9.101-7.839-16.752-5.561-23.918-0.445c-21.91,15.649-43.345,20.039-67.12,3.387c-8.709-6.104-18.657-4.438-27.936,2.912
	c-13.942,11.053-28.712,14.884-45.564,3.575c-16.198-10.878-33.057-14.926-50.495,0.264c-9.438,8.224-21.765,5.651-31.722-0.675
	c-13.961-8.864-26.667-7.617-39.687,1.352c-9.811,6.76-19.667,10.869-30.667,1.437c-11.062-9.482-11.002-20.808-4.968-31.964
	c6.289-11.623,5.285-22.151,1.157-34.025c-6.104-17.565-8.243-35.418-1.387-53.855c7.731-20.786,6.655-41.768-1.964-62.413
	c-4.529-10.851-4.383-22.172,0.687-32.812c9.083-19.059,8.013-37.863,0.038-56.817c-6.63-15.763-7.839-30.854-2.16-48.114
	c5.916-17.957,4.742-37.565-1.818-56.093c-4.307-12.173-4.199-23.587,1.407-36.005c5.979-13.246,4.867-27.872,0.132-41.809
	c-6.672-19.644-8.264-38.736,0.735-58.632c9.707-21.461,3.418-42.906-3.86-63.915c-5.564-16.054-6.947-31.694-0.255-48.491
	c6.864-17.222,1.206-35.14-3.002-52.407c-3.167-12.992-2.46-24.67,8.264-34.081c12.082-10.605,23.681-7.511,35.551,0.812
	c14.117,9.898,29.594,9.661,43.816,1.484c17.322-9.961,33.746-9.345,50.428-0.038c13.553,7.56,26.197,5.571,38.533-2.45
	c15.745-10.236,31.175-10.125,46.282,1.191c11.463,8.588,23.587,8.651,34.632,0.554c14.753-10.822,29.267-11.926,44.632-2.467
	c15.108,9.306,29.434,9.692,44.7-0.613c12.064-8.146,25.976-8.968,38.822-1.303c15.397,9.191,30.092,7.759,45.703,0.655
	C523.863,23.851,539.076,34.544,538.713,59.963z"/>
<rect x="143.833" y="125.932" fill="none" width="471.91" height="793.775"/>
<g enable-background="new    ">
	<path fill="#FFFFFF" d="M153.842,286.678V102.962h22.93c16.151,0,28.148,3.736,35.988,11.209s11.761,20.117,11.761,37.935
		c0,8.652-1.167,15.791-3.5,21.422c-2.334,5.63-6.584,11.181-12.752,16.647c0.423,0.16,0.99,0.544,1.699,1.146
		c0.708,0.603,2.018,2.01,3.929,4.221c1.911,2.211,3.594,4.843,5.047,7.898c1.452,3.056,2.745,7.338,3.878,12.844
		c1.133,5.509,1.699,11.639,1.699,18.391c0,33.691-13.05,51.025-39.146,52.002H153.842z M179.11,179.622
		c1.882,0,3.275-0.04,4.175-0.124s2.539-0.498,4.913-1.246c2.373-0.748,4.215-1.93,5.526-3.547c1.31-1.618,2.56-4.129,3.746-7.532
		c1.186-3.403,1.781-7.574,1.781-12.514c0-4.938-0.595-9.109-1.781-12.512c-1.187-3.403-2.436-5.915-3.746-7.532
		c-1.311-1.617-3.153-2.8-5.526-3.547c-2.375-0.748-4.013-1.162-4.913-1.246s-2.293-0.126-4.175-0.126V179.622z M179.11,259.944
		c6.058,0,10.521-1.261,13.388-3.784c4.501-4.475,6.754-12.653,6.754-24.536c0-6.672-0.677-12.125-2.027-16.357
		c-1.351-4.23-3.235-7.099-5.65-8.606c-2.415-1.505-4.379-2.42-5.894-2.747c-1.515-0.324-3.378-0.488-5.588-0.488h-0.982V259.944z"
		/>
	<path fill="#FFFFFF" d="M244.784,286.678V102.962h61.768v27.71h-36.499v48.218h26.733v29.541h-26.733v50.537h36.499v27.71H244.784z
		"/>
	<path fill="#FFFFFF" d="M321.444,286.678V102.962h61.768v27.71h-36.499v48.218h26.733v29.541h-26.733v50.537h36.499v27.71H321.444z
		"/>
	<path fill="#FFFFFF" d="M398.104,286.678V102.962h64.209v27.71h-38.94v48.218h26.733v27.832h-26.733v79.956H398.104z"/>
</g>
<g enable-background="new    ">
	<path fill="#FFFFFF" d="M152.641,469.678V308.008h20.179c14.213,0,24.771,3.288,31.669,9.864s10.35,17.703,10.35,33.383
		c0,7.613-1.027,13.896-3.08,18.851c-2.054,4.955-5.794,9.839-11.222,14.65c0.373,0.141,0.871,0.478,1.496,1.009
		c0.623,0.53,1.776,1.769,3.458,3.714c1.682,1.945,3.162,4.262,4.441,6.951c1.277,2.689,2.415,6.457,3.412,11.302
		c0.997,4.848,1.496,10.242,1.496,16.184c0,29.648-11.484,44.902-34.449,45.762H152.641z M174.877,375.469
		c1.657,0,2.882-0.035,3.674-0.109c0.792-0.074,2.234-0.438,4.324-1.096c2.088-0.658,3.709-1.699,4.862-3.122
		c1.153-1.423,2.252-3.634,3.296-6.628c1.044-2.994,1.568-6.665,1.568-11.012c0-4.346-0.523-8.017-1.568-11.011
		c-1.044-2.994-2.143-5.205-3.296-6.628c-1.153-1.423-2.774-2.464-4.862-3.122c-2.09-0.658-3.532-1.022-4.324-1.096
		c-0.792-0.074-2.018-0.111-3.674-0.111V375.469z M174.877,446.152c5.331,0,9.258-1.109,11.781-3.33
		c3.961-3.938,5.943-11.135,5.943-21.592c0-5.871-0.596-10.67-1.784-14.395c-1.188-3.723-2.847-6.246-4.972-7.572
		c-2.125-1.324-3.854-2.131-5.187-2.418c-1.333-0.285-2.973-0.429-4.918-0.429h-0.864V446.152z"/>
	<path fill="#FFFFFF" d="M236.63,469.678V308.008h54.355v24.385h-32.119v42.432h23.525v25.996h-23.525v44.473h32.119v24.385H236.63z
		"/>
	<path fill="#FFFFFF" d="M308.051,469.678V308.008h54.355v24.385h-32.119v42.432h23.525v25.996h-23.525v44.473h32.119v24.385
		H308.051z"/>
	<path fill="#FFFFFF" d="M379.472,469.678V308.008h22.986c26.141,0,39.211,15.541,39.211,46.621
		c0,18.559-4.005,30.858-12.013,36.901l15.114,78.147h-22.867l-12.318-68.219h-7.877v68.219H379.472z M401.708,379.444
		c2.232,0,4.124-0.178,5.673-0.537c1.55-0.357,3.388-1.235,5.513-2.632s3.746-3.849,4.864-7.358
		c1.116-3.508,1.675-7.984,1.675-13.428c0-5.441-0.559-9.918-1.675-13.428c-1.118-3.508-2.739-5.962-4.864-7.358
		s-3.963-2.272-5.513-2.632c-1.549-0.357-3.44-0.537-5.673-0.537V379.444z"/>
</g>
<g enable-background="new    ">
</g>
<g enable-background="new    ">
	<path fill="#FFFFFF" d="M153.842,679.678V495.963h64.209v27.709h-38.94v48.219h26.733v27.832H179.11v79.955H153.842z"/>
	<path fill="#FFFFFF" d="M228.793,641.959V495.963h25.269v148.23c0,0.992,0.04,2.254,0.122,3.781
		c0.082,1.529,0.881,3.553,2.397,6.072c1.515,2.521,3.706,3.781,6.575,3.781c2.866,0,5.037-1.135,6.513-3.408
		c1.475-2.271,2.213-4.607,2.213-7.002l0.368-3.225v-148.23h25.269v145.996c0,0.977-0.076,2.379-0.229,4.211
		c-0.153,1.83-0.82,5.047-2.001,9.643c-1.183,4.6-2.821,8.648-4.917,12.146c-2.097,3.5-5.449,6.652-10.062,9.461
		c-4.612,2.807-10.33,4.211-17.154,4.211c-6.825,0-12.543-1.363-17.155-4.09c-4.612-2.725-7.967-6-10.063-9.826
		c-2.096-3.824-3.735-7.709-4.916-11.658c-1.182-3.945-1.848-7.221-2-9.826L228.793,641.959z"/>
	<path fill="#FFFFFF" d="M320.468,679.678V495.963h24.536l26.105,95.647l2.312,8.474h1.367v-8.535v-95.586h25.269v183.715h-24.536
		l-26.151-95.854l-2.315-8.487h-1.318v8.552v95.789H320.468z"/>
	<path fill="#FFFFFF" d="M418.124,495.963h28.198l-6.47,134.154h-15.747L418.124,495.963z M419.589,679.678v-27.709h25.269v27.709
		H419.589z"/>
</g>
</svg>
