<?xml version="1.0" encoding="utf-8"?>
<!-- Generator: Adobe Illustrator 16.0.0, SVG Export Plug-In . SVG Version: 6.00 Build 0)  -->
<!DOCTYPE svg PUBLIC "-//W3C//DTD SVG 1.1//EN" "http://www.w3.org/Graphics/SVG/1.1/DTD/svg11.dtd">
<svg version="1.1" id="Layer_1" xmlns="http://www.w3.org/2000/svg" xmlns:xlink="http://www.w3.org/1999/xlink" x="0px" y="0px"
	 width="356px" height="304px" viewBox="0 0 356 304" enable-background="new 0 0 356 304" xml:space="preserve">
<g id="beer">
	<path d="M294.609,144.96c-1.082-15.461-4.706-27.155-11.075-35.76c-7.479-10.082-23.835-12.879-39.388-12.404l-0.264-4.361
		c8.749-3.643,14.952-12.28,14.952-22.259c0-13.307-10.832-24.135-24.138-24.135c-4.228,0-8.312,1.102-11.895,3.138
		c-4.122-9.824-13.771-16.533-25.011-16.533c-7.785,0-14.985,3.315-20.017,8.812c-4.904-8.136-13.844-13.509-23.822-13.509
		c-11.239,0-21.076,6.667-25.428,16.554c-3.205-1.383-6.662-2.097-10.243-2.097c-14.31,0-25.955,11.641-25.955,25.952
		c0,10.169,5.749,18.922,14.243,23.176l-9.211,153.113c-10.33,2.233-10.797,7.74-10.797,10.649c0,7.723,36.601,16.755,88.641,16.755
		c52.03,0,88.63-9.032,88.63-16.755c0-2.909-0.472-8.416-10.798-10.649l-2.384-39.718c15.936-1.469,29.015-8.956,35.146-20.226
		C290.924,175.299,295.686,160.416,294.609,144.96z M234.929,84.566c-0.107,0.003-0.214,0.006-0.316,0.015H165.75
		c-2.686,0-4.865,2.179-4.865,4.864v25.605c0,3.206-2.605,5.812-5.812,5.812c-3.204,0-5.812-2.605-5.812-5.812V89.444
		c0-2.688-2.18-4.864-4.862-4.864h-2.123c-2.685,0-4.862,2.179-4.862,4.864v54.211c0,4.117-3.349,7.467-7.468,7.467
		c-4.115,0-7.467-3.353-7.467-7.467V89.411c0-2.625-2.088-4.779-4.711-4.861c-5.76-0.185-10.66-3.314-13.392-7.902
		c-0.349-0.575-0.663-1.161-0.938-1.775c-0.119-0.264-0.213-0.532-0.313-0.805c-0.293-0.77-0.543-1.557-0.715-2.379
		c-0.03-0.129-0.041-0.258-0.063-0.387c-0.178-0.956-0.287-1.935-0.287-2.944c0-8.947,7.28-16.224,16.225-16.224
		c3.685,0,7.16,1.211,10.056,3.512c1.345,1.064,3.157,1.349,4.755,0.734c1.608-0.615,2.77-2.025,3.059-3.713
		c1.508-8.683,8.99-14.984,17.801-14.984c9.01,0,16.708,6.736,17.908,15.666c0.299,2.238,2.104,3.977,4.352,4.19
		c2.248,0.227,4.354-1.144,5.076-3.288c2.393-7.104,9.023-11.868,16.507-11.868c9.064,0,16.521,6.8,17.338,15.825
		c0.182,1.952,1.515,3.609,3.385,4.199c1.865,0.597,3.912-0.005,5.181-1.5c2.752-3.261,6.759-5.127,11.003-5.127
		c7.949,0,14.411,6.462,14.411,14.407c0,0.866-0.107,1.714-0.258,2.538c-0.031,0.183-0.061,0.358-0.098,0.539
		c-0.172,0.748-0.396,1.48-0.675,2.181c-0.095,0.236-0.209,0.461-0.312,0.693c-0.24,0.511-0.505,1.005-0.803,1.481
		c-0.229,0.378-0.481,0.74-0.745,1.096c-0.266,0.348-0.534,0.685-0.823,1.01c-0.274,0.301-0.544,0.594-0.841,0.875
		c-0.42,0.39-0.854,0.763-1.314,1.102l0,0C240.896,83.436,238.039,84.521,234.929,84.566z M266.195,174.02
		c-3.989,4.132-7.955,7.564-16.888,8.57l-3.82-63.453c8.683-0.093,15.647,2.142,18.577,4.949c5.871,5.661,7.501,11.501,8.262,22.422
		C273.085,157.442,270.521,169.538,266.195,174.02z"/>
</g>
</svg>
