<?xml version="1.0" encoding="utf-8"?>
<!-- Generator: Adobe Illustrator 16.0.0, SVG Export Plug-In . SVG Version: 6.00 Build 0)  -->
<!DOCTYPE svg PUBLIC "-//W3C//DTD SVG 1.1//EN" "http://www.w3.org/Graphics/SVG/1.1/DTD/svg11.dtd">
<svg version="1.1" id="Layer_1" xmlns="http://www.w3.org/2000/svg" xmlns:xlink="http://www.w3.org/1999/xlink" x="0px" y="0px"
	 width="652.267px" height="201.856px" viewBox="0 0 652.267 201.856" enable-background="new 0 0 652.267 201.856"
	 xml:space="preserve">
<circle cx="156.904" cy="-56.217" r="2.25"/>
<g>
	<rect x="29.133" y="12.763" fill="none" width="614" height="102.666"/>
	<path fill="#FFFFFF" d="M102.664,74.818c0.468,0,0.78,0.109,0.78,0.658v18.857c0,0.547-0.312,0.657-0.78,0.657H50.61
		c-0.208,0-0.572-0.438-0.572-1.534V76.244c0-0.549,0.26-1.426,0.572-1.426h12.429V32.609H49.102v14.691
		c0,0.768-0.416,0.768-0.728,0.768H31.005c-0.468,0-0.832-0.549-0.832-1.426V14.3c0-0.768,0.26-1.535,0.624-1.535h90.951
		c0.572,0,0.937,0.219,0.937,2.631v31.137c0,0.768-0.156,1.754-0.624,1.754h-16.745c-0.312,0-0.572,0-0.572-1.316V32.609H89.82
		v42.209H102.664z"/>
	<path fill="#FFFFFF" d="M124.865,14.849c0-1.425,0.364-2.083,0.832-2.083h50.702c0.468,0,1.092,0.219,1.092,0.986v18.199
		c0,1.097-0.364,1.535-0.78,1.535h-11.804V74.49h11.804c0.521,0,0.78,0.438,0.78,1.205v17.432c0,1.316-0.104,1.864-0.78,1.864
		h-50.754c-0.832,0-1.092-0.768-1.092-1.534V76.354c0-1.535,0.364-2.083,0.676-2.083h11.805V33.377h-11.492
		c-0.572,0-0.988-0.439-0.988-1.097V14.849z"/>
	<path fill="#FFFFFF" d="M257.676,58.812c0.467,0,0.986,0.657,0.727,1.754c-0.832,3.398-3.848,34.425-36.089,34.425
		c-33.177,0-41.446-21.05-41.446-39.578c0-18.419,8.581-42.647,36.87-42.647c10.245,0,16.537,3.837,21.893,9.977l0.364-7.236
		c0.052-1.206,0.416-1.974,0.676-1.974h17.005c0.623,0,0.986,0.438,0.986,2.412V47.19c0,1.097-0.154,1.755-0.779,1.974h-16.38
		c-0.468,0-0.572,0-0.988-0.986c-0.364-0.987-4.004-14.691-15.289-14.691c-11.336,0-13.676,13.814-13.676,19.953
		c0,4.824,1.248,21.16,15.288,21.16c11.285,0,16.329-10.635,17.681-15.021c0.208-0.657,0.521-0.767,0.988-0.767H257.676z"/>
	<path fill="#FFFFFF" d="M274.363,74.271V33.486h-11.596c-0.52,0-1.041-0.549-1.041-2.193V15.177c0-1.315,0.365-2.412,1.301-2.412
		h45.293c0.676,0,1.197,0.548,1.197,3.289v15.787c0,1.096-0.572,1.645-1.977,1.645h-6.553v20.939l22.83-20.721v-0.219H312.74
		c-0.779,0-1.195-0.109-1.195-2.74V14.958c0-1.096,0.26-2.192,1.561-2.192h41.602c0.779,0,1.299,0.548,1.299,3.289v15.238
		c0,1.098-0.52,2.193-1.299,2.193h-11.648L331.723,44.34l13.832,29.931h12.012c0.625,0,0.988,0.877,0.988,2.521v16.007
		c0,0.877-0.26,2.192-1.404,2.192h-49.453c-0.625,0-1.041-1.097-1.041-2.96V75.915c0-0.768,0.416-1.645,1.145-1.645h3.641
		l-4.629-10.306l-5.824,5.481v4.824h2.809c0.676,0,0.779,1.097,0.779,2.192v16.664c0,1.097-0.363,1.864-1.248,1.864h-40.717
		c-0.52,0-0.885-0.768-0.885-2.741V76.463c0-1.315,0.365-2.192,0.781-2.192H274.363z"/>
	<path fill="#FFFFFF" d="M448.357,12.766c0.936,0,1.197,0.767,1.197,2.412v31.247c0,1.096-0.156,1.863-0.678,1.863h-17.889
		c-0.363,0-0.676,0-0.676-0.768V33.705h-30.057v10.416H417c0.521,0,0.729,0.219,0.729,1.096V62.43c0,0.877-0.623,1.097-1.248,1.097
		h-16.225V74.6h30.473V61.224c0-0.986,0.156-2.192,0.988-2.192h19.033c0.363,0,0.572,0.548,0.572,2.083v32.343
		c0,0.767-0.209,1.534-1.197,1.534H361.93c-0.676,0-1.299,0.11-1.299-1.206V76.463c0-0.986,0.312-1.863,0.779-1.863h11.805V33.596
		h-11.855c-0.416,0-0.729,0.22-0.729-1.096V13.752c0-0.548,0.52-0.986,1.299-0.986H448.357z"/>
	<path fill="#FFFFFF" d="M525.889,74.818c0.469,0,0.779,0.109,0.779,0.658v18.857c0,0.547-0.311,0.657-0.779,0.657h-52.055
		c-0.207,0-0.57-0.438-0.57-1.534V76.244c0-0.549,0.26-1.426,0.57-1.426h12.43V32.609h-13.938v14.691
		c0,0.768-0.416,0.768-0.727,0.768H454.23c-0.469,0-0.832-0.549-0.832-1.426V14.3c0-0.768,0.26-1.535,0.623-1.535h90.951
		c0.572,0,0.938,0.219,0.938,2.631v31.137c0,0.768-0.156,1.754-0.625,1.754h-16.744c-0.312,0-0.572,0-0.572-1.316V32.609h-14.924
		v42.209H525.889z"/>
	<path fill="#FFFFFF" d="M607.215,14.081c0.104-0.877,0.572-1.206,0.988-1.206h14.248c0.988,0,1.354,1.535,1.354,2.302V35.24
		c0,0.768-0.262,1.316-0.678,1.316h-17.211c-0.209,0-0.469,0-0.572-0.549c-1.717-6.249-7.385-7.674-9.049-7.674H580.33
		c-1.301,0-5.148,0.328-5.148,5.481c0,5.481,6.24,5.263,8.32,5.263l9.934,0.219c5.146,0,17.107,2.083,20.229,3.508
		c3.016,1.535,13.936,6.03,13.936,23.572c0,25.105-21.424,28.614-28.861,28.614h-14.092c-5.877,0-12.117-3.837-15.809-7.455
		l-0.312,6.358c-0.104,0.877-0.416,1.097-0.779,1.097h-17.682c-0.363,0-0.52-0.438-0.52-1.315V71.311
		c0-0.549,0.156-1.316,0.572-1.316h18.564c0.416,0,0.676,0.439,0.779,1.207c1.041,7.235,9.465,7.674,10.037,7.674h18.773
		c0.572,0,3.691-0.658,3.691-4.275c0-4.166-2.912-5.373-3.641-5.373l-15.08-0.219c-4.004,0-16.016-2.631-20.801-5.481
		c-8.527-5.153-12.637-15.239-12.637-23.023c0-10.964,5.668-17.432,8.529-20.611c3.588-4.276,10.557-7.126,18.98-7.126h14.301
		c7.229,0,12.271,3.728,14.924,6.249L607.215,14.081z"/>
</g>
<circle cx="317.75" cy="-56.217" r="2.25"/>
<g>
	<rect x="49.333" y="103.668" fill="none" width="438.667" height="68.666"/>
	<path fill="#FFFFFF" d="M49.841,141.887l5.326-38.213h7.319l5.312,38.213H62.79l-1.044-7.795h-5.39l-1.045,7.795H49.841z
		 M57.154,128.15h3.796l-1.613-12.044l-0.135-1.006l-0.297-0.001l-0.135,1.007L57.154,128.15z"/>
	<path fill="#FFFFFF" d="M69.214,103.674h5.471l2.796,21.013l0.214,1.61h0.33l0.246-1.61l3.202-21.013h5.008l-5.819,38.213h-6.054
		L69.214,103.674z"/>
	<path fill="#FFFFFF" d="M87.444,141.887l5.326-38.213h7.319l5.312,38.213h-5.007l-1.044-7.795h-5.39l-1.045,7.795H87.444z
		 M94.758,128.15h3.796l-1.613-12.044l-0.135-1.006l-0.297-0.001l-0.135,1.007L94.758,128.15z"/>
	<path fill="#FFFFFF" d="M108.442,141.887v-38.213h5.256v38.213H108.442z"/>
	<path fill="#FFFFFF" d="M118.218,141.887v-38.213h5.256v33.262h7.795v4.951H118.218z"/>
	<path fill="#FFFFFF" d="M131.979,141.887l5.326-38.213h7.319l5.312,38.213h-5.007l-1.044-7.795h-5.39l-1.045,7.795H131.979z
		 M139.293,128.15h3.796l-1.613-12.044l-0.135-1.006l-0.297-0.001l-0.135,1.007L139.293,128.15z"/>
	<path fill="#FFFFFF" d="M152.978,141.887v-38.213h4.77c3.359,0,5.855,0.777,7.485,2.332c1.631,1.554,2.446,4.184,2.446,7.89
		c0,1.8-0.243,3.285-0.728,4.456s-1.37,2.325-2.652,3.463c0.088,0.033,0.206,0.113,0.354,0.238c0.147,0.125,0.419,0.418,0.817,0.878
		s0.748,1.007,1.05,1.643s0.571,1.526,0.807,2.672s0.354,2.421,0.354,3.825c0,7.008-2.714,10.613-8.143,10.816H152.978z
		 M158.233,119.619c0.392,0,0.681-0.009,0.869-0.025c0.187-0.018,0.528-0.104,1.022-0.26c0.493-0.155,0.876-0.401,1.149-0.737
		c0.273-0.337,0.533-0.859,0.779-1.567c0.247-0.707,0.371-1.575,0.371-2.603s-0.124-1.895-0.371-2.603s-0.506-1.23-0.779-1.566
		c-0.272-0.337-0.656-0.583-1.149-0.738c-0.494-0.155-0.835-0.241-1.022-0.259c-0.188-0.018-0.477-0.026-0.869-0.026V119.619z
		 M158.233,136.326c1.26,0,2.188-0.263,2.785-0.787c0.936-0.931,1.405-2.632,1.405-5.104c0-1.388-0.141-2.522-0.422-3.402
		c-0.281-0.88-0.673-1.477-1.175-1.79c-0.502-0.313-0.911-0.504-1.226-0.571s-0.703-0.102-1.163-0.102h-0.204V136.326z"/>
	<path fill="#FFFFFF" d="M171.894,141.887v-38.213h5.256v33.262h7.795v4.951H171.894z"/>
	<path fill="#FFFFFF" d="M187.229,141.887v-38.213h12.848v5.764h-7.592v10.029h5.561v6.145h-5.561v10.512h7.592v5.764H187.229z"/>
	<path fill="#FFFFFF" d="M211.173,141.887v-38.213h5.104l5.43,19.895l0.48,1.763h0.285v-1.775v-19.882h5.256v38.213h-5.104
		l-5.439-19.938l-0.482-1.766h-0.274v1.779v19.924H211.173z"/>
	<path fill="#FFFFFF" d="M231.333,134.041V111.52c0-0.203,0.016-0.495,0.048-0.876c0.031-0.381,0.166-1.05,0.404-2.006
		s0.579-1.799,1.022-2.526s1.146-1.388,2.105-1.98c0.959-0.593,2.145-0.889,3.556-0.889c1.411,0,2.596,0.288,3.556,0.863
		c0.959,0.575,1.661,1.261,2.104,2.057s0.785,1.6,1.023,2.412c0.237,0.812,0.373,1.515,0.404,2.107l0.048,0.838v22.521
		c0,0.203-0.016,0.495-0.048,0.876c-0.031,0.381-0.167,1.05-0.404,2.006c-0.238,0.956-0.579,1.799-1.023,2.526
		s-1.146,1.384-2.104,1.968c-0.959,0.584-2.145,0.876-3.556,0.876c-1.411,0-2.596-0.283-3.556-0.851
		c-0.959-0.567-1.661-1.248-2.105-2.044s-0.785-1.604-1.022-2.425s-0.373-1.502-0.404-2.044L231.333,134.041z M236.589,134.448
		c0,0.211,0.008,0.478,0.025,0.803c0.017,0.324,0.183,0.754,0.499,1.289c0.315,0.534,0.767,0.802,1.355,0.802
		s1.04-0.241,1.355-0.724c0.315-0.482,0.473-0.978,0.473-1.486l0.051-0.684v-23.335c0-0.21-0.009-0.478-0.026-0.802
		c-0.017-0.325-0.183-0.759-0.498-1.303c-0.315-0.543-0.767-0.815-1.355-0.815s-1.04,0.245-1.355,0.736
		c-0.315,0.491-0.473,0.965-0.473,1.421l-0.051,0.763V134.448z"/>
	<path fill="#FFFFFF" d="M248.629,103.674h5.175l2.653,19.805l0.165,1.233h-0.051l0.152-1.24l2.387-19.798h4.062l2.387,19.855
		l0.152,1.244l-0.04-0.063l0.168-1.258l2.64-19.778h5.175l-5.124,38.213h-4.367l-2.59-18.104l-0.33-2.234h-0.203l-0.305,2.234
		l-2.615,18.104h-4.367L248.629,103.674z"/>
</g>
<g>
	<rect x="33.667" y="16.001" fill="none" width="614" height="102.666"/>
	<path d="M107.197,78.057c0.468,0,0.78,0.109,0.78,0.658v18.857c0,0.547-0.312,0.657-0.78,0.657H55.143
		c-0.208,0-0.572-0.438-0.572-1.534V79.482c0-0.549,0.26-1.426,0.572-1.426h12.429V35.848H53.635v14.691
		c0,0.768-0.416,0.768-0.728,0.768H35.539c-0.468,0-0.832-0.549-0.832-1.426V17.539c0-0.768,0.26-1.535,0.624-1.535h90.951
		c0.572,0,0.937,0.219,0.937,2.631v31.137c0,0.768-0.156,1.754-0.624,1.754h-16.745c-0.312,0-0.572,0-0.572-1.316V35.848H94.353
		v42.209H107.197z"/>
	<path d="M129.398,18.087c0-1.425,0.364-2.083,0.832-2.083h50.702c0.468,0,1.092,0.219,1.092,0.986v18.199
		c0,1.097-0.364,1.535-0.78,1.535h-11.804v41.004h11.804c0.521,0,0.78,0.438,0.78,1.205v17.432c0,1.316-0.104,1.864-0.78,1.864
		H130.49c-0.832,0-1.092-0.768-1.092-1.534V79.592c0-1.535,0.364-2.083,0.676-2.083h11.805V36.615h-11.492
		c-0.572,0-0.988-0.439-0.988-1.097V18.087z"/>
	<path d="M262.209,62.051c0.467,0,0.986,0.657,0.727,1.754c-0.832,3.398-3.848,34.425-36.089,34.425
		c-33.177,0-41.446-21.05-41.446-39.578c0-18.419,8.581-42.647,36.87-42.647c10.245,0,16.537,3.837,21.893,9.977l0.364-7.236
		c0.052-1.206,0.416-1.974,0.676-1.974h17.005c0.623,0,0.986,0.438,0.986,2.412v31.246c0,1.097-0.154,1.755-0.779,1.974h-16.38
		c-0.468,0-0.572,0-0.988-0.986c-0.364-0.987-4.004-14.691-15.289-14.691c-11.336,0-13.676,13.814-13.676,19.953
		c0,4.824,1.248,21.16,15.288,21.16c11.285,0,16.329-10.635,17.681-15.021c0.208-0.657,0.521-0.767,0.988-0.767H262.209z"/>
	<path d="M278.896,77.509V36.725h-11.596c-0.52,0-1.041-0.549-1.041-2.193V18.416c0-1.315,0.365-2.412,1.301-2.412h45.293
		c0.676,0,1.197,0.548,1.197,3.289V35.08c0,1.096-0.572,1.645-1.977,1.645h-6.553v20.939l22.83-20.721v-0.219h-11.078
		c-0.779,0-1.195-0.109-1.195-2.74V18.196c0-1.096,0.26-2.192,1.561-2.192h41.602c0.779,0,1.299,0.548,1.299,3.289v15.238
		c0,1.098-0.52,2.193-1.299,2.193h-11.648l-11.336,10.854l13.832,29.931H362.1c0.625,0,0.988,0.877,0.988,2.521v16.007
		c0,0.877-0.26,2.192-1.404,2.192H312.23c-0.625,0-1.041-1.097-1.041-2.96V79.153c0-0.768,0.416-1.645,1.145-1.645h3.641
		l-4.629-10.306l-5.824,5.481v4.824h2.809c0.676,0,0.779,1.097,0.779,2.192v16.664c0,1.097-0.363,1.864-1.248,1.864h-40.717
		c-0.52,0-0.885-0.768-0.885-2.741V79.701c0-1.315,0.365-2.192,0.781-2.192H278.896z"/>
	<path d="M452.891,16.004c0.936,0,1.197,0.767,1.197,2.412v31.247c0,1.096-0.156,1.863-0.678,1.863h-17.889
		c-0.363,0-0.676,0-0.676-0.768V36.943h-30.057v10.416h16.744c0.521,0,0.729,0.219,0.729,1.096v17.213
		c0,0.877-0.623,1.097-1.248,1.097h-16.225v11.073h30.473V64.462c0-0.986,0.156-2.192,0.988-2.192h19.033
		c0.363,0,0.572,0.548,0.572,2.083v32.343c0,0.767-0.209,1.534-1.197,1.534h-88.195c-0.676,0-1.299,0.11-1.299-1.206V79.701
		c0-0.986,0.312-1.863,0.779-1.863h11.805V36.834h-11.855c-0.416,0-0.729,0.22-0.729-1.096V16.99c0-0.548,0.52-0.986,1.299-0.986
		H452.891z"/>
	<path d="M530.422,78.057c0.469,0,0.779,0.109,0.779,0.658v18.857c0,0.547-0.311,0.657-0.779,0.657h-52.055
		c-0.207,0-0.57-0.438-0.57-1.534V79.482c0-0.549,0.26-1.426,0.57-1.426h12.43V35.848h-13.938v14.691
		c0,0.768-0.416,0.768-0.727,0.768h-17.369c-0.469,0-0.832-0.549-0.832-1.426V17.539c0-0.768,0.26-1.535,0.623-1.535h90.951
		c0.572,0,0.938,0.219,0.938,2.631v31.137c0,0.768-0.156,1.754-0.625,1.754h-16.744c-0.312,0-0.572,0-0.572-1.316V35.848h-14.924
		v42.209H530.422z"/>
	<path d="M611.748,17.319c0.104-0.877,0.572-1.206,0.988-1.206h14.248c0.988,0,1.354,1.535,1.354,2.302v20.063
		c0,0.768-0.262,1.316-0.678,1.316h-17.211c-0.209,0-0.469,0-0.572-0.549c-1.717-6.249-7.385-7.674-9.049-7.674h-15.965
		c-1.301,0-5.148,0.328-5.148,5.481c0,5.481,6.24,5.263,8.32,5.263l9.934,0.219c5.146,0,17.107,2.083,20.229,3.508
		c3.016,1.535,13.936,6.03,13.936,23.572c0,25.105-21.424,28.614-28.861,28.614H589.18c-5.877,0-12.117-3.837-15.809-7.455
		l-0.312,6.358c-0.104,0.877-0.416,1.097-0.779,1.097h-17.682c-0.363,0-0.52-0.438-0.52-1.315V74.549
		c0-0.549,0.156-1.316,0.572-1.316h18.564c0.416,0,0.676,0.439,0.779,1.207c1.041,7.235,9.465,7.674,10.037,7.674h18.773
		c0.572,0,3.691-0.658,3.691-4.275c0-4.166-2.912-5.373-3.641-5.373l-15.08-0.219c-4.004,0-16.016-2.631-20.801-5.481
		c-8.527-5.153-12.637-15.239-12.637-23.023c0-10.964,5.668-17.432,8.529-20.611c3.588-4.276,10.557-7.126,18.98-7.126h14.301
		c7.229,0,12.271,3.728,14.924,6.249L611.748,17.319z"/>
</g>
<g>
	<rect x="48.333" y="106.668" fill="none" width="438.667" height="68.666"/>
	<path d="M48.841,144.887l5.326-38.213h7.319l5.312,38.213H61.79l-1.044-7.795h-5.39l-1.045,7.795H48.841z M56.154,131.15h3.796
		l-1.613-12.044l-0.135-1.006l-0.297-0.001l-0.135,1.007L56.154,131.15z"/>
	<path d="M68.214,106.674h5.471l2.796,21.013l0.214,1.61h0.33l0.246-1.61l3.202-21.013h5.008l-5.819,38.213h-6.054L68.214,106.674z"
		/>
	<path d="M86.444,144.887l5.326-38.213h7.319l5.312,38.213h-5.007l-1.044-7.795h-5.39l-1.045,7.795H86.444z M93.758,131.15h3.796
		l-1.613-12.044l-0.135-1.006l-0.297-0.001l-0.135,1.007L93.758,131.15z"/>
	<path d="M107.442,144.887v-38.213h5.256v38.213H107.442z"/>
	<path d="M117.218,144.887v-38.213h5.256v33.262h7.795v4.951H117.218z"/>
	<path d="M130.979,144.887l5.326-38.213h7.319l5.312,38.213h-5.007l-1.044-7.795h-5.39l-1.045,7.795H130.979z M138.293,131.15h3.796
		l-1.613-12.044l-0.135-1.006l-0.297-0.001l-0.135,1.007L138.293,131.15z"/>
	<path d="M151.978,144.887v-38.213h4.77c3.359,0,5.855,0.777,7.485,2.332c1.631,1.554,2.446,4.184,2.446,7.89
		c0,1.8-0.243,3.285-0.728,4.456s-1.37,2.325-2.652,3.463c0.088,0.033,0.206,0.113,0.354,0.238c0.147,0.125,0.419,0.418,0.817,0.878
		s0.748,1.007,1.05,1.643s0.571,1.526,0.807,2.672s0.354,2.421,0.354,3.825c0,7.008-2.714,10.613-8.143,10.816H151.978z
		 M157.233,122.619c0.392,0,0.681-0.009,0.869-0.025c0.187-0.018,0.528-0.104,1.022-0.26c0.493-0.155,0.876-0.401,1.149-0.737
		c0.273-0.337,0.533-0.859,0.779-1.567c0.247-0.707,0.371-1.575,0.371-2.603s-0.124-1.895-0.371-2.603s-0.506-1.23-0.779-1.566
		c-0.272-0.337-0.656-0.583-1.149-0.738c-0.494-0.155-0.835-0.241-1.022-0.259c-0.188-0.018-0.477-0.026-0.869-0.026V122.619z
		 M157.233,139.326c1.26,0,2.188-0.263,2.785-0.787c0.936-0.931,1.405-2.632,1.405-5.104c0-1.388-0.141-2.522-0.422-3.402
		c-0.281-0.88-0.673-1.477-1.175-1.79c-0.502-0.313-0.911-0.504-1.226-0.571s-0.703-0.102-1.163-0.102h-0.204V139.326z"/>
	<path d="M170.894,144.887v-38.213h5.256v33.262h7.795v4.951H170.894z"/>
	<path d="M186.229,144.887v-38.213h12.848v5.764h-7.592v10.029h5.561v6.145h-5.561v10.512h7.592v5.764H186.229z"/>
	<path d="M210.173,144.887v-38.213h5.104l5.43,19.895l0.48,1.763h0.285v-1.775v-19.882h5.256v38.213h-5.104l-5.439-19.938
		l-0.482-1.766h-0.274v1.779v19.924H210.173z"/>
	<path d="M230.333,137.041V114.52c0-0.203,0.016-0.495,0.048-0.876c0.031-0.381,0.166-1.05,0.404-2.006s0.579-1.799,1.022-2.526
		s1.146-1.388,2.105-1.98c0.959-0.593,2.145-0.889,3.556-0.889c1.411,0,2.596,0.288,3.556,0.863
		c0.959,0.575,1.661,1.261,2.104,2.057s0.785,1.6,1.023,2.412c0.237,0.812,0.373,1.515,0.404,2.107l0.048,0.838v22.521
		c0,0.203-0.016,0.495-0.048,0.876c-0.031,0.381-0.167,1.05-0.404,2.006c-0.238,0.956-0.579,1.799-1.023,2.526
		s-1.146,1.384-2.104,1.968c-0.959,0.584-2.145,0.876-3.556,0.876c-1.411,0-2.596-0.283-3.556-0.851
		c-0.959-0.567-1.661-1.248-2.105-2.044s-0.785-1.604-1.022-2.425s-0.373-1.502-0.404-2.044L230.333,137.041z M235.589,137.448
		c0,0.211,0.008,0.478,0.025,0.803c0.017,0.324,0.183,0.754,0.499,1.289c0.315,0.534,0.767,0.802,1.355,0.802
		s1.04-0.241,1.355-0.724c0.315-0.482,0.473-0.978,0.473-1.486l0.051-0.684v-23.335c0-0.21-0.009-0.478-0.026-0.802
		c-0.017-0.325-0.183-0.759-0.498-1.303c-0.315-0.543-0.767-0.815-1.355-0.815s-1.04,0.245-1.355,0.736
		c-0.315,0.491-0.473,0.965-0.473,1.421l-0.051,0.763V137.448z"/>
	<path d="M247.629,106.674h5.175l2.653,19.805l0.165,1.233h-0.051l0.152-1.24l2.387-19.798h4.062l2.387,19.855l0.152,1.244
		l-0.04-0.063l0.168-1.258l2.64-19.778h5.175l-5.124,38.213h-4.367l-2.59-18.104l-0.33-2.234h-0.203l-0.305,2.234l-2.615,18.104
		h-4.367L247.629,106.674z"/>
</g>
<g>
</g>
<g>
</g>
<g>
</g>
<g>
</g>
<g>
</g>
<g>
</g>
</svg>
