<?xml version="1.0" encoding="utf-8"?>
<!-- Generator: Adobe Illustrator 16.0.0, SVG Export Plug-In . SVG Version: 6.00 Build 0)  -->
<!DOCTYPE svg PUBLIC "-//W3C//DTD SVG 1.1//EN" "http://www.w3.org/Graphics/SVG/1.1/DTD/svg11.dtd">
<svg version="1.1" id="Layer_1" xmlns="http://www.w3.org/2000/svg" xmlns:xlink="http://www.w3.org/1999/xlink" x="0px" y="0px"
	 width="1078.446px" height="629.969px" viewBox="0 0 1078.446 629.969" enable-background="new 0 0 1078.446 629.969"
	 xml:space="preserve">
<polygon points="959.31,61.419 210.207,253.353 136.429,543.28 898.438,357.972 "/>
<g>
	<defs>
		<rect id="SVGID_1_" x="-563.72" y="-400.687" width="2181.861" height="1534.651"/>
	</defs>
	<clipPath id="SVGID_2_">
		<use xlink:href="#SVGID_1_"  overflow="visible"/>
	</clipPath>
	<g clip-path="url(#SVGID_2_)">
		<path fill="#FFFFFF" d="M283.715,364.544l29.365-102.409l28.12-7.011c10.514-2.621,17.541-1.911,21.084,2.133
			c3.58,4.157,4.137,10.547,1.664,19.169c-3.677,12.824-11.235,21.154-22.671,24.99c6.035-0.519,9.998,0.71,11.891,3.688
			c1.892,2.978,1.836,7.959-0.168,14.944c-2.522,8.8-7.045,16.497-13.564,23.091c-6.496,6.628-13.782,10.949-21.86,12.963
			L283.715,364.544z M314.113,336.824c0.449-0.07,0.847-0.138,1.188-0.202c0.341-0.063,0.628-0.125,0.859-0.183
			c3.015-0.752,5.688-2.282,8.02-4.592c2.331-2.31,3.945-5.032,4.843-8.164c0.898-3.134,0.704-5.361-0.586-6.684
			s-3.5-1.594-6.631-0.813l-1.913,0.478L314.113,336.824z M326.075,295.107l1.623-0.405c2.899-0.723,5.411-2.067,7.535-4.034
			c2.127-1.967,3.588-4.344,4.387-7.13c1.699-5.924-0.292-8.179-5.974-6.762c-0.271,0.067-0.613,0.164-1.025,0.286
			c-0.412,0.124-0.914,0.279-1.506,0.469L326.075,295.107z"/>
		<path fill="#FFFFFF" d="M418.577,330.919l-26.149,6.521l-1.483-33.503c0.062-0.589,0.094-1.357,0.095-2.303
			c0.002-0.943-0.008-2.07-0.026-3.38l-1.767,6.723l-10.271,35.816l-24.061,5.999l29.365-102.409l24.757-6.172
			c10.9-2.718,18.353-2.298,22.357,1.262c5.079,4.564,5.959,12.637,2.638,24.222c-3.551,12.381-10.623,22.09-21.22,29.124
			L418.577,330.919z M395.278,284.319l1.623-0.404c2.783-0.694,5.451-2.488,8.004-5.384c2.552-2.893,4.367-6.22,5.445-9.979
			c2.193-7.65-0.208-10.604-7.204-8.859l-0.869,0.217L395.278,284.319z"/>
		<path fill="#FFFFFF" d="M505.9,261.931c-4.322,15.072-10.948,28.102-19.876,39.089c-8.88,10.936-18.285,17.643-28.22,20.119
			c-8.813,2.197-15.335,0.475-19.566-5.172c-5.305-7.161-5.336-19.879-0.096-38.153c5.02-17.506,12.994-31.922,23.923-43.25
			c8.117-8.406,16.388-13.66,24.814-15.762c10.321-2.573,17.2,0.033,20.64,7.818C510.956,234.405,510.418,246.176,505.9,261.931z
			 M480.728,268.423c5.209-18.166,4.952-26.535-0.768-25.109c-2.862,0.714-5.825,3.667-8.894,8.86
			c-2.93,4.836-5.626,11.547-8.088,20.131c-2.424,8.455-3.521,14.816-3.292,19.087c0.229,4.271,1.734,6.058,4.518,5.364
			c2.86-0.713,5.723-3.56,8.588-8.542C475.732,283.215,478.378,276.617,480.728,268.423z"/>
		<path fill="#FFFFFF" d="M582.029,242.949c-4.322,15.072-10.947,28.102-19.876,39.089c-8.879,10.936-18.285,17.643-28.219,20.119
			c-8.813,2.197-15.336,0.475-19.567-5.172c-5.304-7.161-5.335-19.879-0.095-38.153c5.02-17.506,12.993-31.922,23.922-43.25
			c8.117-8.406,16.389-13.66,24.815-15.761c10.32-2.573,17.2,0.033,20.639,7.818C587.087,215.424,586.547,227.194,582.029,242.949z
			 M556.856,249.442c5.209-18.166,4.953-26.536-0.768-25.109c-2.861,0.713-5.825,3.666-8.893,8.86
			c-2.93,4.835-5.626,11.546-8.088,20.13c-2.424,8.455-3.521,14.816-3.293,19.087c0.229,4.271,1.735,6.059,4.519,5.364
			c2.86-0.713,5.723-3.56,8.587-8.542C551.861,264.233,554.507,257.637,556.856,249.442z"/>
		<path fill="#FFFFFF" d="M643.46,274.85l-26.092,6.506l-2.518-43.222L601.946,285.2l-24.179,6.028l29.365-102.409l24.179-6.028
			l-13.229,44.067l26.853-47.464l25.513-6.361l-33.477,54.228L643.46,274.85z"/>
		<path fill="#FFFFFF" d="M692.744,262.562l-42.325,10.553l29.365-102.409l24.178-6.028l-22.328,77.867l18.147-4.524
			L692.744,262.562z"/>
		<path fill="#FFFFFF" d="M734.713,252.098l-24.178,6.028l12.438-43.378l-5.279-53.495l25.222-6.289l-0.007,14.104
			c0,2.752-0.054,5.413-0.163,7.985c-0.11,2.574-0.257,5.052-0.437,7.438c1.966-3.979,3.667-7.411,5.105-10.295
			c1.436-2.884,2.646-5.228,3.631-7.034l8.8-16.419l25.048-6.245l-37.742,64.221L734.713,252.098z"/>
		<path fill="#FFFFFF" d="M761.791,245.347l29.365-102.409l23.075-5.754l1.811,32.928c0.048,1.96,0.094,4.206,0.14,6.739
			c0.044,2.536,0.057,5.468,0.034,8.799l-0.094,8.399c1.66-8.667,3.164-16.103,4.514-22.312c1.35-6.207,2.639-11.456,3.868-15.745
			l6.6-23.016l23.31-5.812l-29.365,102.409l-23.31,5.812l-2.104-34.457c-0.199-3.686-0.336-7.151-0.414-10.396
			c-0.078-3.244-0.07-6.356,0.022-9.335c-1.103,6.967-2.198,13.071-3.286,18.309c-1.089,5.24-2.21,9.872-3.363,13.895l-7.494,26.134
			L761.791,245.347z"/>
	</g>
	<g clip-path="url(#SVGID_2_)">
		<path fill="#FFFFFF" d="M255.311,485.139l29.365-102.409l28.121-7.011c10.512-2.621,17.542-1.911,21.083,2.133
			c3.582,4.157,4.137,10.547,1.664,19.169c-3.677,12.824-11.234,21.154-22.67,24.99c6.034-0.519,9.998,0.709,11.891,3.688
			c1.892,2.977,1.836,7.959-0.168,14.945c-2.522,8.799-7.045,16.496-13.565,23.09c-6.497,6.628-13.782,10.949-21.859,12.963
			L255.311,485.139z M285.709,457.419c0.451-0.07,0.848-0.139,1.188-0.203c0.341-0.062,0.628-0.124,0.86-0.182
			c3.014-0.752,5.688-2.283,8.019-4.592c2.331-2.311,3.946-5.032,4.844-8.164c0.898-3.134,0.703-5.361-0.587-6.684
			c-1.29-1.322-3.5-1.594-6.631-0.813l-1.913,0.478L285.709,457.419z M297.671,415.702l1.623-0.405
			c2.899-0.723,5.412-2.067,7.537-4.034c2.125-1.967,3.587-4.344,4.386-7.13c1.699-5.924-0.292-8.179-5.975-6.762
			c-0.271,0.067-0.613,0.163-1.024,0.286s-0.914,0.279-1.507,0.469L297.671,415.702z"/>
		<path fill="#FFFFFF" d="M326.511,467.387l29.365-102.409l44.936-11.204l-7.037,24.542l-20.758,5.175l-3.746,13.066l18.612-4.641
			l-7.037,24.541l-18.612,4.641l-4.508,15.719l20.758-5.175l-7.037,24.541L326.511,467.387z"/>
		<path fill="#FFFFFF" d="M381.767,453.61l29.365-102.41l44.936-11.203l-7.037,24.541l-20.758,5.176l-3.746,13.066l18.611-4.641
			l-7.037,24.541l-18.611,4.641l-4.508,15.719l20.758-5.176l-7.037,24.542L381.767,453.61z"/>
		<path fill="#FFFFFF" d="M461.202,433.805l-24.178,6.028l29.365-102.409l42.73-10.654l-7.037,24.541l-18.553,4.626l-3.747,13.066
			l17.277-4.308l-7.037,24.541l-17.277,4.308L461.202,433.805z"/>
		<path fill="#FFFFFF" d="M488.431,423.139l9.035-31.509c2.625,6.243,6.699,8.675,12.229,7.297c2.088-0.521,3.961-1.551,5.625-3.095
			c1.662-1.543,2.756-3.232,3.282-5.066c0.759-2.645,0.067-4.869-2.07-6.673l-2.97-2.407c-2.006-1.52-3.627-3.126-4.864-4.818
			c-1.237-1.69-2.108-3.534-2.614-5.526c-0.506-1.993-0.68-4.138-0.523-6.435c0.155-2.296,0.619-4.788,1.39-7.476
			c1.321-4.606,3.668-9.667,7.046-15.183c1.638-2.587,3.373-5.01,5.206-7.27c1.832-2.258,3.793-4.341,5.884-6.249
			c5.783-5.402,11.902-8.908,18.359-10.518c5.76-1.437,11.07-1.186,15.935,0.752l-8.811,30.728c-0.97-3.001-2.423-5.195-4.358-6.58
			c-1.937-1.386-4.121-1.775-6.557-1.168c-1.855,0.462-3.554,1.439-5.093,2.931c-1.567,1.461-2.583,3.001-3.047,4.619
			c-0.758,2.644,0.133,4.854,2.674,6.635l2.928,2.179c3.941,2.777,6.402,6.021,7.384,9.734c1.02,3.703,0.711,8.41-0.927,14.12
			c-2.786,9.718-7.771,18.401-14.952,26.048c-7.183,7.649-14.889,12.499-23.123,14.552
			C499.815,424.177,494.127,424.302,488.431,423.139z"/>
		<path fill="#FFFFFF" d="M575.737,405.247l-24.178,6.028l22.328-77.868l-13.336,3.325l7.037-24.541l51.371-12.809l-7.037,24.541
			l-13.857,3.455L575.737,405.247z"/>
		<path fill="#FFFFFF" d="M595.858,400.231l29.365-102.41l44.936-11.203l-7.037,24.541l-20.758,5.175l-3.747,13.066l18.612-4.64
			l-7.037,24.541l-18.612,4.64l-4.507,15.719l20.758-5.175l-7.037,24.542L595.858,400.231z"/>
		<path fill="#FFFFFF" d="M715.589,370.379l-24.99,6.23l1.931-12.553l-16.292,4.062l-5.701,13.493l-24.988,6.23l50.875-107.772
			l29.57-7.373L715.589,370.379z M695.869,343.209l1.858-11.549c-0.027-0.033,0.067-0.61,0.281-1.733
			c0.201-0.952,0.896-4.697,2.091-11.236c0.139-0.731,0.337-1.736,0.595-3.012c0.259-1.275,0.576-2.885,0.953-4.826l2.023-9.496
			c-0.344,0.948-0.748,2.014-1.213,3.197c-0.466,1.184-0.973,2.48-1.52,3.889c-1.056,2.81-1.795,4.759-2.215,5.849
			c-0.421,1.091-0.682,1.752-0.783,1.981l-5.239,12.822l-7.037,16.659L695.869,343.209z"/>
		<path fill="#FFFFFF" d="M788.296,352.25l-26.092,6.506l-2.519-43.221l-12.903,47.066l-24.178,6.027L751.97,266.22l24.178-6.027
			l-13.229,44.066l26.854-47.464l25.512-6.361l-33.477,54.229L788.296,352.25z"/>
	</g>
</g>
</svg>
