<?xml version="1.0" encoding="utf-8"?>
<!-- Generator: Adobe Illustrator 16.0.0, SVG Export Plug-In . SVG Version: 6.00 Build 0)  -->
<!DOCTYPE svg PUBLIC "-//W3C//DTD SVG 1.1//EN" "http://www.w3.org/Graphics/SVG/1.1/DTD/svg11.dtd">
<svg version="1.1" id="Layer_1" xmlns="http://www.w3.org/2000/svg" xmlns:xlink="http://www.w3.org/1999/xlink" x="0px" y="0px"
	 width="356px" height="304px" viewBox="112.5 51.365 356 304" enable-background="new 112.5 51.365 356 304" xml:space="preserve">
<path d="M430.023,185.581c-2.879-1.901-7.842-5.82-11.395-11.211c-3.552-5.392-4.655-6.126-5.023-10.906
	c0,0,8.089,0.429,11.885-6.556c0,0-3.86-4.841-10.965-3c-7.107,1.838-8.024,2.818-8.576,1.96c-0.549-0.856-2.562-5.613-5.005-6.972
	c-0.884-2.682-1.103-7.283,3.849-12.952c0,0-8.628,3.095-9.973,11.565c-1.041,0.034-2.126,0.189-3.237,0.485
	c-1.584,0.421-3.25,1.232-5.087,2.315l0,0c0,0-9.122-3.936-5.357-17.811c0,0-10.435,10.683-2.045,22.663
	c-1.513,1.012-3.128,2.08-4.881,3.17c-7.713,4.824-10.195,5.098-16.812,7.579c-6.616,2.482-19.156,6.894-24.671,6.479
	c-5.511-0.414-15.161-1.187-25.773,0.026c-10.612,1.214-23.152,1.488-32.114,2.038c-8.961,0.552-27.842,0.689-34.319,0
	c-6.477-0.687-12.267-1.101-18.468-0.824c-6.203,0.274-25.222-0.828-33.629,0.138c-8.407,0.964-22.052,6.755-22.052,28.116
	c0,21.362,1.228,21.77,1.01,28.967c-0.44,14.422-5.033,18.374-5.652,28.258c-0.275,4.4,3.033,15.572,6.065,19.019
	c0,0-0.166-5.472,2.5-11.903c2.666-6.438,1.749-21.044,1.472-33.541c-0.277-12.496-0.139-2.137-0.046-12.246
	c0.093-10.106,0.736-16.631,2.573-21.134c0,0,0.09,23.774,10.2,44.936c0,0-2.389,10.843-3.31,14.059
	c-0.917,3.219-2.023,7.172-3.398,8.732c-1.376,1.559-4.319,9.647-2.023,16.627c0,0-1.286,13.696-2.296,18.477
	c-1.01,4.776-2.663,8.448-2.389,9.371c0.273,0.92,0.643,4.502,0.917,4.592c0.274,0.093,1.013,1.103,1.378,0.645
	c0.367-0.459,1.194-1.931,1.194-1.931l1.839,1.472c0,0,0.274,8.637,3.398,9.649c3.124,1.01,6.249,1.379,9.651,1.288
	c3.399-0.095,5.513-1.474,5.513-1.935c0-0.457-4.777-6.888-6.434-7.901c-1.653-1.009-4.134-1.651-4.688-6.431
	c-0.55-4.777-0.366-15.803,0.921-22.052c1.286-6.251,2.848-4.591,3.953-8.732c1.102-4.133,7.901-12.587,9.647-13.509
	c2.974-2.549,10.17-8.625,12.936-12.614c2.765-3.993,6.267-10.445,7.986-14.316c0,0-2.334,10.202-5.16,15.482
	c-2.43,4.55-7.946,11.262-11.516,15.008c0.536,0.456,0.969,0.827,1.179,1.019c1.145,1.042,2.918,4.008,3.225,5.733
	c0.27,1.49-0.039,8.701,3.969,8.627c1.778,0,2.719-2.572,3.179-3.95c0.459-1.379,1.248-3.814,1.618-4.184
	c0,0,0.806,0.26,3.011-0.292c2.206-0.552,3.773-0.158,4.146,0.887c0.694,1.951-0.025,7.805,3.721,7.473
	c2.891-0.26,2.774-6.155,3.027-8.565c0.245-2.314,2.023-2.206,3.584-2.942c1.561-0.735,3.809-2.545,5.462-4.57
	c1.653-2.021,5.256-5.705,8.287-5.518c3.032,0.183,7.396,0.889,11.44,1.809c4.042,0.919,15.897,1.01,23.614-1.289
	c6.89-2.05,17.959-8.194,32.149-5.175c0-0.003,0-0.003,0-0.005c-0.032-13.63,6.331-23.046,6.331-23.046
	c-3.044,18.463-0.435,37.324,0.297,39.713c0.737,2.392-0.365,4.598,0.186,7.72c0.552,3.123,1.19,5.976,1.285,9.374
	c0.088,3.399-0.83,16.263-1.651,19.57c-0.827,3.312-1.288,6.983,0.181,7.076c1.471,0.09,2.022-2.023,3.033-1.379
	c1.006,0.645,1.836,5.329,4.776,7.075c2.942,1.745,7.811,1.562,9.833,1.19c2.023-0.366,4.043-1.285,4.229-2.754
	c0.184-1.475-2.668-3.86-5.239-5.515c-2.574-1.654-5.237-1.749-6.34-8.638c-1.103-6.893-0.827-11.121-0.738-13.784
	c0.093-2.662,0.278-4.502-0.121-6.156c0,0,1.962-1.103,2.882-8.025c0.916-6.924,9.922-16.603,13.782-21.842
	c3.86-5.235,10.292-11.044,13.415-22.247c3.122-11.199,8.543-15.979,12.496-22.043c3.951-6.063,11.581-18.285,13.601-18.837
	c2.022-0.551,4.504-0.735,6.618-0.184s9.282,0.184,12.315,0c3.03-0.182,4.96,1.286,10.291,1.013c0,0,4.042,1.652,7.532,1.837
	c3.49,0.182,7.351-1.013,8.089-2.481c0.733-1.472,1.651-5.513,1.833-6.8C433.333,188.824,432.903,187.479,430.023,185.581z"/>
</svg>
