<?xml version="1.0" encoding="utf-8"?>
<!-- Generator: Adobe Illustrator 16.0.0, SVG Export Plug-In . SVG Version: 6.00 Build 0)  -->
<!DOCTYPE svg PUBLIC "-//W3C//DTD SVG 1.1//EN" "http://www.w3.org/Graphics/SVG/1.1/DTD/svg11.dtd">
<svg version="1.1" id="Layer_1" xmlns="http://www.w3.org/2000/svg" xmlns:xlink="http://www.w3.org/1999/xlink" x="0px" y="0px"
	 width="356px" height="304px" viewBox="0 0 356 304" enable-background="new 0 0 356 304" xml:space="preserve">
<path d="M262.369,120.588c-1.652-1.091-4.5-3.339-6.538-6.433c-2.038-3.094-2.671-3.515-2.882-6.258c0,0,4.642,0.246,6.819-3.762
	c0,0-2.215-2.778-6.292-1.721c-4.078,1.055-4.604,1.617-4.92,1.125c-0.315-0.491-1.471-3.221-2.872-4
	c-0.508-1.539-0.634-4.179,2.208-7.432c0,0-4.95,1.776-5.722,6.636c-0.598,0.02-1.22,0.109-1.857,0.278
	c-0.909,0.242-1.865,0.707-2.919,1.329l0,0c0,0-5.234-2.258-3.074-10.22c0,0-5.987,6.13-1.173,13.003
	c-0.868,0.581-1.795,1.194-2.801,1.819c-4.426,2.768-5.85,2.926-9.646,4.349c-3.796,1.424-10.991,3.955-14.155,3.717
	c-3.163-0.237-8.699-0.681-14.788,0.016s-13.285,0.853-18.427,1.169c-5.142,0.317-15.976,0.396-19.691,0
	c-3.717-0.394-7.039-0.632-10.597-0.473c-3.559,0.157-14.472-0.475-19.295,0.08c-4.825,0.552-12.654,3.875-12.654,16.132
	c0,12.257,0.705,12.49,0.58,16.62c-0.252,8.275-2.888,10.543-3.243,16.214c-0.158,2.525,1.741,8.936,3.48,10.913
	c0,0-0.095-3.14,1.435-6.829c1.53-3.695,1.003-12.075,0.845-19.245s-0.08-1.227-0.026-7.027c0.053-5.799,0.422-9.542,1.476-12.126
	c0,0,0.052,13.641,5.853,25.783c0,0-1.371,6.222-1.898,8.066c-0.527,1.848-1.161,4.115-1.95,5.011
	c-0.79,0.894-2.478,5.534-1.161,9.54c0,0-0.737,7.859-1.317,10.602c-0.58,2.741-1.528,4.848-1.371,5.377
	c0.157,0.527,0.369,2.583,0.526,2.636s0.581,0.632,0.791,0.369c0.211-0.263,0.685-1.107,0.685-1.107l1.056,0.845
	c0,0,0.157,4.955,1.949,5.536c1.793,0.579,3.587,0.791,5.538,0.738c1.95-0.054,3.163-0.845,3.163-1.109
	c0-0.263-2.741-3.953-3.691-4.534c-0.948-0.578-2.372-0.947-2.689-3.689c-0.316-2.741-0.211-9.067,0.527-12.653
	c0.739-3.586,1.635-2.634,2.269-5.011c0.633-2.371,4.533-7.222,5.535-7.75c1.707-1.463,5.836-4.949,7.423-7.238
	c1.587-2.291,3.596-5.993,4.582-8.214c0,0-1.339,5.854-2.961,8.883c-1.394,2.611-4.56,6.463-6.607,8.611
	c0.308,0.262,0.556,0.475,0.677,0.585c0.656,0.598,1.674,2.299,1.85,3.29c0.155,0.854-0.022,4.991,2.278,4.95
	c1.021,0,1.56-1.477,1.823-2.268s0.717-2.188,0.929-2.4c0,0,0.462,0.149,1.728-0.168c1.266-0.316,2.165-0.09,2.379,0.51
	c0.398,1.118-0.015,4.479,2.135,4.288c1.659-0.149,1.592-3.532,1.737-4.916c0.141-1.326,1.16-1.265,2.057-1.688
	c0.896-0.421,2.186-1.46,3.134-2.622c0.949-1.159,3.016-3.273,4.755-3.166c1.74,0.105,4.243,0.51,6.563,1.038
	c2.319,0.527,9.122,0.579,13.55-0.74c3.954-1.175,10.305-4.701,18.446-2.969c0-0.002,0-0.002,0-0.003
	c-0.019-7.82,3.633-13.223,3.633-13.223c-1.747,10.594-0.25,21.416,0.171,22.786c0.422,1.372-0.21,2.639,0.106,4.429
	c0.316,1.792,0.683,3.43,0.737,5.38c0.05,1.949-0.477,9.33-0.948,11.229c-0.475,1.899-0.738,4.007,0.104,4.061
	c0.844,0.052,1.16-1.161,1.74-0.791c0.577,0.369,1.054,3.057,2.74,4.059c1.688,1.001,4.481,0.896,5.643,0.683
	c1.16-0.21,2.319-0.737,2.426-1.58c0.105-0.846-1.531-2.215-3.006-3.165c-1.477-0.948-3.005-1.003-3.638-4.955
	c-0.633-3.955-0.475-6.381-0.424-7.91c0.054-1.527,0.16-2.583-0.069-3.531c0,0,1.126-0.633,1.654-4.604
	c0.525-3.973,5.692-9.526,7.907-12.532c2.215-3.005,5.905-6.338,7.697-12.766c1.792-6.426,4.902-9.168,7.17-12.648
	c2.268-3.479,6.646-10.49,7.804-10.808c1.161-0.316,2.585-0.422,3.798-0.105c1.213,0.315,5.326,0.105,7.066,0
	c1.738-0.104,2.846,0.737,5.904,0.581c0,0,2.319,0.948,4.321,1.055c2.003,0.104,4.219-0.582,4.642-1.424
	c0.421-0.845,0.947-3.163,1.052-3.902C264.269,122.449,264.021,121.677,262.369,120.588z"/>
</svg>
