<?xml version="1.0" encoding="utf-8"?>
<!-- Generator: Adobe Illustrator 16.0.0, SVG Export Plug-In . SVG Version: 6.00 Build 0)  -->
<!DOCTYPE svg PUBLIC "-//W3C//DTD SVG 1.1//EN" "http://www.w3.org/Graphics/SVG/1.1/DTD/svg11.dtd">
<svg version="1.1" id="Layer_1" xmlns="http://www.w3.org/2000/svg" xmlns:xlink="http://www.w3.org/1999/xlink" x="0px" y="0px"
	 width="541px" height="369px" viewBox="0 0 541 369" enable-background="new 0 0 541 369" xml:space="preserve">
<polygon fill="#403D38" points="511.253,77.191 511.253,117.804 501.785,117.804 501.785,77.191 493.913,26.287 502.469,26.287 
	507.03,62.545 511.371,26.287 519.466,26.287 "/>
<polygon fill="#403D38" points="35.09,37.268 35.09,117.803 26.194,117.803 26.194,37.268 19.466,37.268 19.466,26.287 
	41.253,26.287 41.253,37.268 "/>
<polygon fill="#403D38" points="59.386,117.803 59.386,77.88 53.684,77.88 53.684,117.803 44.785,117.803 44.785,26.287 
	53.684,26.287 53.684,67.47 59.386,67.47 59.386,26.287 68.282,26.287 68.282,117.803 "/>
<polygon fill="#403D38" points="72.613,117.803 72.613,26.287 92.003,26.287 92.003,36.347 81.513,36.347 81.513,66.092 
	88.693,66.092 88.693,75.59 81.513,75.59 81.513,108.307 92.003,108.307 92.003,117.803 "/>
<g>
	<defs>
		<rect id="SVGID_1_" x="-131" y="-204" width="800" height="800"/>
	</defs>
	<clipPath id="SVGID_2_">
		<use xlink:href="#SVGID_1_"  overflow="visible"/>
	</clipPath>
	<path clip-path="url(#SVGID_2_)" fill="#403D38" d="M119.492,117.803h-12.095V26.287h12.095c4.675,0,10.717,2.171,10.717,13.84
		v21.618c0,4.348-1.709,7.098-4.446,9.5c2.737,2.4,4.446,5.144,4.446,9.492v23.224C130.209,115.631,124.167,117.803,119.492,117.803
		 M121.316,39.441c0-2.632-0.572-3.662-1.714-3.662h-3.081v31.459h3.081c1.142,0,1.714-1.027,1.714-3.66V39.441z M121.316,79.479
		c0-2.629-0.572-3.664-1.714-3.664h-3.081v32.607h3.081c1.142,0,1.714-1.03,1.714-3.66V79.479z"/>
	<path clip-path="url(#SVGID_2_)" fill="#403D38" d="M149.94,117.804c-0.688-4.007-1.254-9.382-1.254-14.186v-22.08
		c0-2.059-0.68-3.658-2.054-3.658h-2.853v39.924h-9.124V26.287h12.092c4.679,0,10.609,2.171,10.609,13.84v23.909
		c0,4.346-1.826,7.095-4.333,9.496c2.507,2.398,4.561,5.147,4.561,9.493v19.453c0,5.83,0.798,10.865,1.366,15.326H149.94z
		 M148.573,39.44c0-2.632-0.566-3.661-1.71-3.661h-3.083v32.831h3.083c1.144,0,1.71-1.03,1.71-3.66V39.44z"/>
	<path clip-path="url(#SVGID_2_)" fill="#403D38" d="M173.891,118.947c-6.5,0-11.974-5.835-11.974-15.104v-63.6
		c0-9.267,5.474-15.1,11.974-15.1c6.501,0,11.98,5.833,11.98,15.1v63.6C185.871,113.112,180.392,118.947,173.891,118.947
		 M176.629,38.867c0-2.401-0.914-3.66-2.738-3.66c-2.053,0-2.961,1.259-2.961,3.66v66.348c0,2.406,0.908,3.664,2.961,3.664
		c1.824,0,2.738-1.258,2.738-3.664V38.867z"/>
	<path clip-path="url(#SVGID_2_)" fill="#403D38" d="M201.721,118.947c-6.503,0-11.982-5.835-11.982-15.104v-63.6
		c0-9.267,5.479-15.1,11.982-15.1c6.5,0,11.973,5.833,11.973,15.1v63.6C213.693,113.112,208.221,118.947,201.721,118.947
		 M204.458,38.867c0-2.401-0.914-3.66-2.737-3.66c-2.056,0-2.968,1.259-2.968,3.66v66.348c0,2.406,0.912,3.664,2.968,3.664
		c1.823,0,2.737-1.258,2.737-3.664V38.867z"/>
	<polygon clip-path="url(#SVGID_2_)" fill="#403D38" points="232.74,117.803 228.746,80.965 226.697,92.406 226.697,117.803 
		217.795,117.803 217.795,26.287 226.697,26.287 226.697,69.071 232.166,26.287 240.608,26.287 235.249,68.265 241.752,117.803 	"/>
	<polygon clip-path="url(#SVGID_2_)" fill="#403D38" points="244.483,117.803 244.483,26.287 253.609,26.287 253.609,108.307 
		263.873,108.307 263.873,117.803 	"/>
	<polygon clip-path="url(#SVGID_2_)" fill="#403D38" points="276.879,77.191 276.879,117.804 267.415,117.804 267.415,77.191 
		259.541,26.287 268.097,26.287 272.655,62.545 276.994,26.287 285.087,26.287 	"/>
	<polygon clip-path="url(#SVGID_2_)" fill="#403D38" points="306.649,117.803 295.244,67.238 295.244,117.803 287.712,117.803 
		287.712,26.287 295.81,26.287 305.619,77.649 305.619,26.287 312.918,26.287 312.918,117.803 	"/>
	<path clip-path="url(#SVGID_2_)" fill="#403D38" d="M341.542,117.803h-12.089V26.287h12.089c4.679,0,10.725,2.171,10.725,13.84
		v21.618c0,4.348-1.709,7.098-4.451,9.5c2.742,2.4,4.451,5.144,4.451,9.492v23.224C352.267,115.631,346.221,117.803,341.542,117.803
		 M343.374,39.441c0-2.632-0.574-3.662-1.715-3.662h-3.086v31.459h3.086c1.141,0,1.715-1.027,1.715-3.66V39.441z M343.374,79.479
		c0-2.629-0.574-3.664-1.715-3.664h-3.086v32.607h3.086c1.141,0,1.715-1.03,1.715-3.66V79.479z"/>
	<path clip-path="url(#SVGID_2_)" fill="#403D38" d="M371.998,117.804c-0.686-4.007-1.258-9.382-1.258-14.186v-22.08
		c0-2.059-0.68-3.658-2.054-3.658h-2.85v39.924h-9.126V26.287h12.095c4.677,0,10.608,2.171,10.608,13.84v23.909
		c0,4.346-1.829,7.095-4.333,9.496c2.504,2.398,4.562,5.147,4.562,9.493v19.453c0,5.83,0.798,10.865,1.368,15.326H371.998z
		 M370.628,39.44c0-2.632-0.567-3.661-1.71-3.661h-3.081v32.831h3.081c1.143,0,1.71-1.03,1.71-3.66V39.44z"/>
	<polygon clip-path="url(#SVGID_2_)" fill="#403D38" points="384.198,117.803 384.198,26.287 403.589,26.287 403.589,36.347 
		393.096,36.347 393.096,66.092 400.281,66.092 400.281,75.59 393.096,75.59 393.096,108.307 403.589,108.307 403.589,117.803 	"/>
	<polygon clip-path="url(#SVGID_2_)" fill="#403D38" points="434.045,117.803 427.882,117.803 424.007,72.502 420.008,117.803 
		413.509,117.803 405.185,26.287 413.851,26.287 417.842,75.017 421.609,26.287 426.283,26.287 430.275,75.017 434.383,26.287 
		442.597,26.287 	"/>
	<polygon clip-path="url(#SVGID_2_)" fill="#403D38" points="446.014,117.803 446.014,26.287 465.405,26.287 465.405,36.347 
		454.908,36.347 454.908,66.092 462.096,66.092 462.096,75.59 454.908,75.59 454.908,108.307 465.405,108.307 465.405,117.803 	"/>
	<path clip-path="url(#SVGID_2_)" fill="#403D38" d="M483.882,117.804c-0.684-4.007-1.258-9.382-1.258-14.186v-22.08
		c0-2.059-0.682-3.658-2.05-3.658h-2.851v39.924H468.6V26.287h12.087c4.677,0,10.611,2.171,10.611,13.84v23.909
		c0,4.346-1.823,7.095-4.341,9.496c2.518,2.398,4.565,5.147,4.565,9.493v19.453c0,5.83,0.802,10.865,1.372,15.326H483.882z
		 M482.515,39.44c0-2.632-0.572-3.661-1.715-3.661h-3.076v32.831h3.076c1.143,0,1.715-1.03,1.715-3.66V39.44z"/>
	<polygon clip-path="url(#SVGID_2_)" fill="#403D38" points="171.618,347.558 171.618,207.166 141.547,347.558 103.701,347.558 
		75.962,207.166 75.962,347.558 26.194,347.558 26.194,139.567 102.667,139.567 126.514,239.665 149.841,139.567 227.349,139.567 
		227.349,347.558 	"/>
	<path clip-path="url(#SVGID_2_)" fill="#00A66B" d="M270.433,347.558l-2.854-27.293h-26.702l-4.145,27.293h-49.507l36.808-207.991
		h66.616l37.331,207.991H270.433z M255.658,209.763l-8.554,65.781h15.817L255.658,209.763z"/>
	<path clip-path="url(#SVGID_2_)" fill="#403D38" d="M339.195,352.757c-42.514,0-68.176-19.232-68.176-51.478v-23.656h48.735v17.938
		c0,8.061,6.223,13.779,16.848,13.779c10.627,0,15.552-4.679,15.552-13.521c0-17.159-12.959-23.66-42.253-42.113
		c-26.175-16.381-37.328-39.781-37.328-63.44c0-28.338,23.074-55.901,68.178-55.901c36.544,0,61.951,23.141,61.951,51.481v21.062
		h-48.735v-17.163c0-7.279-5.959-11.96-13.216-11.96c-7.258,0-14.773,4.161-14.773,12.222c0,20.797,7.257,24.176,36.804,40.299
		c27.219,14.815,42.771,40.813,42.771,66.555C405.552,325.459,381.965,352.757,339.195,352.757"/>
	<polygon clip-path="url(#SVGID_2_)" fill="#00A66B" points="455.522,347.558 455.522,271.385 422.6,271.385 422.6,347.558 
		366.865,347.558 366.865,139.567 422.6,139.567 422.6,223.804 455.522,223.804 455.522,139.567 511.254,139.567 511.254,347.558 	
		"/>
	<path clip-path="url(#SVGID_2_)" fill="#FFFFFF" d="M308.612-24.773c-30.95,0-56.019-25.152-56.019-56.171
		c0-31.035,25.068-56.193,56.019-56.193c30.934,0,56,25.158,56,56.193C364.612-49.925,339.546-24.773,308.612-24.773"/>
	<path clip-path="url(#SVGID_2_)" fill="#00A66B" d="M308.612-24.772c-30.951,0-56.019-25.152-56.019-56.172
		c0-31.035,25.067-56.193,56.019-56.193c30.933,0,56.001,25.158,56.001,56.193C364.613-49.925,339.545-24.772,308.612-24.772
		 M362.419-64.085c-8.523,0.525-16.542-0.41-22.598-3.407c0,0,0.813-3.524,0.853-3.617c2.393-11.372-3.731-16.936-9.97-21.44
		c3.112-1.463,6.347-2.826,8.896-4.896c7.033-5.643,9.331-18.252,1.249-24.4c-13.081-10.02-33.668-3.554-39.676,8.177
		c-1.145,2.276-2.824,5.036-2.219,9.002c0.289,2.041,1.598,3.833,2.938,4.914c6.175,4.866,12.575-2.722,14.201-7.687
		c0.134-0.396,0.346-1.326,0.346-1.326l-0.536-0.33c-1.018-0.614-2.738-1.61-1.712-4.037c2.456-5.905,14.606-7.515,18.428-2.125
		c3.479,4.906-1.214,11.068-4.236,12.935c-1.971,1.246-6.777,5.604-4.239,0c1.896-4.177,4.382-5.919,7.523-8.157
		c0.042-1.645-3.104-2.191-5.814-1.386c-2.379,0.69-4.7,2.579-6.251,4.142c-4.83,4.752-8.169,11.15-10.698,18.131
		c-1.344,3.695-2.39,7.484-4.245,10.625c-15.409-2.553-31.618-1.485-38.736,8.49c-0.272,0.389-0.664,0.907-0.861,1.297
		c-0.164,0.297-0.521,0.854-0.616,1.043c-3.054,6.498-1.278,13.504,2.096,17.845c7.953,10.179,26.688,12.965,42.154,8.288
		c5.076-1.557,9.883-4.135,14.186-6.584c2.825-1.652,5.552-4.064,8.053-6.174c0.776-0.654,3.756-4.449,4.432-4.449
		c1.092,0,6.229,1.257,8.075,1.496c5.452,0.721,11.227,1.119,16.713,0.037L362.419-64.085z M318.857-87.875
		c8.2,1.127,11.128,7.813,6.773,15.282c-2.619-0.699-5.948-1.713-8.479-2.555c-2.324-0.775-3.536-0.246-2.203-3.074
		C316.6-81.82,317.214-85.224,318.857-87.875 M294.29-69.181c1.363-0.088,3.804,0.019,5.503,0.213
		c-0.966,5.238-9.121,16.271-15.25,9.549c-0.953-1.094-1.422-2.934-0.623-4.666c0.432-0.963,1.891-2.409,2.758-2.996
		C288.61-68.433,291.314-69.047,294.29-69.181 M310.167-66.858c3.228,0.504,5.951,1.75,8.89,2.551
		c-3.843,5.027-12.779,9.432-20.332,9.977c1.41-0.949,3.508-2.598,4.771-3.704C306.459-60.716,307.835-63.56,310.167-66.858"/>
</g>
</svg>
