<?xml version="1.0" encoding="utf-8"?>
<!-- Generator: Adobe Illustrator 16.0.0, SVG Export Plug-In . SVG Version: 6.00 Build 0)  -->
<!DOCTYPE svg PUBLIC "-//W3C//DTD SVG 1.1//EN" "http://www.w3.org/Graphics/SVG/1.1/DTD/svg11.dtd">
<svg version="1.1" id="Layer_1" xmlns="http://www.w3.org/2000/svg" xmlns:xlink="http://www.w3.org/1999/xlink" x="0px" y="0px"
	 width="652.266px" height="201.855px" viewBox="0 0 652.266 201.855" enable-background="new 0 0 652.266 201.855"
	 xml:space="preserve">
<circle cx="156.904" cy="-56.217" r="2.25"/>
<g>
	<rect x="29.133" y="12.763" fill="none" width="614" height="102.666"/>
	<path fill="#FFFFFF" d="M102.664,74.818c0.468,0,0.78,0.109,0.78,0.658v18.857c0,0.547-0.312,0.657-0.78,0.657H50.61
		c-0.208,0-0.572-0.438-0.572-1.534V76.244c0-0.55,0.26-1.427,0.572-1.427h12.429V32.609H49.102V47.3
		c0,0.768-0.416,0.768-0.728,0.768H31.005c-0.468,0-0.832-0.549-0.832-1.426V14.3c0-0.768,0.26-1.535,0.624-1.535h90.951
		c0.572,0,0.937,0.219,0.937,2.631v31.138c0,0.768-0.156,1.754-0.624,1.754h-16.745c-0.312,0-0.572,0-0.572-1.316V32.609H89.82
		v42.209H102.664z"/>
	<path fill="#FFFFFF" d="M124.865,14.849c0-1.425,0.364-2.083,0.832-2.083h50.702c0.468,0,1.092,0.219,1.092,0.986v18.199
		c0,1.097-0.364,1.534-0.78,1.534h-11.804V74.49h11.804c0.521,0,0.78,0.438,0.78,1.204v17.433c0,1.315-0.104,1.864-0.78,1.864
		h-50.754c-0.832,0-1.092-0.769-1.092-1.534V76.354c0-1.535,0.364-2.083,0.676-2.083h11.805V33.377h-11.492
		c-0.572,0-0.988-0.439-0.988-1.097L124.865,14.849L124.865,14.849z"/>
	<path fill="#FFFFFF" d="M257.676,58.812c0.467,0,0.986,0.657,0.727,1.754c-0.832,3.398-3.848,34.426-36.089,34.426
		c-33.177,0-41.446-21.051-41.446-39.578c0-18.419,8.581-42.647,36.87-42.647c10.245,0,16.537,3.837,21.893,9.978l0.364-7.236
		c0.052-1.206,0.416-1.974,0.676-1.974h17.005c0.623,0,0.986,0.438,0.986,2.411V47.19c0,1.098-0.154,1.755-0.779,1.975h-16.38
		c-0.468,0-0.572,0-0.988-0.986c-0.364-0.987-4.004-14.691-15.289-14.691c-11.336,0-13.676,13.814-13.676,19.953
		c0,4.824,1.248,21.16,15.288,21.16c11.285,0,16.329-10.635,17.681-15.021c0.208-0.657,0.521-0.768,0.988-0.768H257.676z"/>
	<path fill="#FFFFFF" d="M274.363,74.271V33.486h-11.596c-0.52,0-1.041-0.549-1.041-2.192V15.177c0-1.315,0.365-2.412,1.301-2.412
		h45.293c0.676,0,1.196,0.548,1.196,3.289v15.787c0,1.096-0.571,1.645-1.977,1.645h-6.553v20.939l22.831-20.721v-0.22H312.74
		c-0.779,0-1.195-0.108-1.195-2.739V14.958c0-1.097,0.26-2.192,1.562-2.192h41.601c0.779,0,1.299,0.548,1.299,3.289v15.238
		c0,1.098-0.52,2.192-1.299,2.192h-11.648L331.723,44.34l13.832,29.931h12.012c0.625,0,0.988,0.877,0.988,2.521v16.007
		c0,0.877-0.26,2.192-1.404,2.192h-49.453c-0.625,0-1.041-1.098-1.041-2.96V75.915c0-0.769,0.416-1.646,1.145-1.646h3.642
		l-4.629-10.306l-5.824,5.48v4.824h2.809c0.676,0,0.779,1.098,0.779,2.192v16.664c0,1.097-0.363,1.864-1.248,1.864h-40.717
		c-0.52,0-0.885-0.769-0.885-2.741V76.463c0-1.315,0.365-2.192,0.781-2.192H274.363z"/>
	<path fill="#FFFFFF" d="M448.358,12.766c0.936,0,1.195,0.768,1.195,2.412v31.247c0,1.096-0.154,1.863-0.678,1.863h-17.889
		c-0.363,0-0.676,0-0.676-0.769V33.705h-30.057v10.416H417c0.521,0,0.729,0.219,0.729,1.096V62.43c0,0.877-0.623,1.097-1.248,1.097
		h-16.225V74.6h30.473V61.224c0-0.986,0.156-2.191,0.988-2.191h19.033c0.363,0,0.572,0.548,0.572,2.083v32.343
		c0,0.767-0.209,1.534-1.197,1.534H361.93c-0.676,0-1.299,0.109-1.299-1.206V76.463c0-0.986,0.312-1.863,0.779-1.863h11.805V33.596
		H361.36c-0.416,0-0.729,0.22-0.729-1.096V13.752c0-0.548,0.52-0.986,1.299-0.986H448.358z"/>
	<path fill="#FFFFFF" d="M525.889,74.818c0.469,0,0.779,0.109,0.779,0.658v18.857c0,0.547-0.311,0.657-0.779,0.657h-52.055
		c-0.207,0-0.57-0.438-0.57-1.534V76.244c0-0.55,0.26-1.427,0.57-1.427h12.43V32.609h-13.938V47.3c0,0.768-0.416,0.768-0.729,0.768
		h-17.367c-0.471,0-0.832-0.549-0.832-1.426V14.3c0-0.768,0.26-1.535,0.623-1.535h90.949c0.572,0,0.939,0.219,0.939,2.631v31.138
		c0,0.768-0.156,1.754-0.625,1.754h-16.744c-0.312,0-0.572,0-0.572-1.316V32.609h-14.924v42.209H525.889z"/>
	<path fill="#FFFFFF" d="M607.215,14.081c0.104-0.877,0.572-1.206,0.988-1.206h14.248c0.988,0,1.354,1.535,1.354,2.302V35.24
		c0,0.768-0.262,1.315-0.678,1.315h-17.211c-0.209,0-0.469,0-0.572-0.549c-1.717-6.249-7.385-7.674-9.049-7.674h-15.965
		c-1.301,0-5.148,0.328-5.148,5.48c0,5.481,6.24,5.264,8.32,5.264l9.934,0.219c5.146,0,17.107,2.083,20.229,3.508
		c3.016,1.535,13.936,6.03,13.936,23.572c0,25.104-21.424,28.614-28.859,28.614h-14.092c-5.877,0-12.117-3.838-15.811-7.455
		l-0.311,6.357c-0.105,0.877-0.416,1.098-0.779,1.098h-17.682c-0.363,0-0.521-0.438-0.521-1.315V71.311
		c0-0.549,0.156-1.315,0.572-1.315h18.564c0.416,0,0.676,0.438,0.779,1.207c1.041,7.234,9.465,7.674,10.037,7.674h18.773
		c0.57,0,3.689-0.658,3.689-4.275c0-4.166-2.912-5.373-3.641-5.373l-15.08-0.219c-4.004,0-16.016-2.631-20.801-5.481
		c-8.527-5.152-12.637-15.238-12.637-23.022c0-10.964,5.668-17.432,8.529-20.611c3.588-4.275,10.557-7.126,18.979-7.126h14.303
		c7.229,0,12.27,3.729,14.924,6.249L607.215,14.081z"/>
</g>
<circle cx="317.75" cy="-56.217" r="2.25"/>
<g>
	<rect x="33.667" y="16.001" fill="none" width="614" height="102.666"/>
	<path d="M107.197,78.057c0.468,0,0.78,0.109,0.78,0.658v18.857c0,0.547-0.312,0.656-0.78,0.656H55.143
		c-0.208,0-0.572-0.438-0.572-1.534V79.482c0-0.549,0.26-1.426,0.572-1.426h12.429V35.848H53.635v14.691
		c0,0.768-0.416,0.768-0.728,0.768H35.539c-0.468,0-0.832-0.549-0.832-1.426V17.539c0-0.769,0.26-1.535,0.624-1.535h90.951
		c0.572,0,0.937,0.219,0.937,2.631v31.137c0,0.769-0.156,1.754-0.624,1.754H109.85c-0.312,0-0.572,0-0.572-1.315V35.848H94.353
		v42.209H107.197z"/>
	<path d="M129.398,18.087c0-1.425,0.364-2.083,0.832-2.083h50.702c0.468,0,1.092,0.219,1.092,0.986v18.198
		c0,1.098-0.364,1.535-0.78,1.535H169.44v41.004h11.804c0.521,0,0.78,0.438,0.78,1.205v17.433c0,1.315-0.104,1.863-0.78,1.863
		H130.49c-0.832,0-1.092-0.768-1.092-1.534V79.592c0-1.535,0.364-2.083,0.676-2.083h11.805V36.615h-11.492
		c-0.572,0-0.988-0.439-0.988-1.098L129.398,18.087L129.398,18.087z"/>
	<path d="M262.209,62.051c0.467,0,0.986,0.657,0.727,1.754c-0.832,3.398-3.848,34.425-36.089,34.425
		c-33.177,0-41.446-21.05-41.446-39.578c0-18.419,8.581-42.646,36.87-42.646c10.245,0,16.537,3.837,21.893,9.977l0.364-7.235
		c0.052-1.206,0.416-1.975,0.676-1.975h17.005c0.623,0,0.986,0.438,0.986,2.412V50.43c0,1.097-0.154,1.755-0.779,1.974h-16.38
		c-0.468,0-0.572,0-0.988-0.985c-0.364-0.987-4.004-14.691-15.289-14.691c-11.336,0-13.676,13.814-13.676,19.953
		c0,4.824,1.248,21.16,15.288,21.16c11.285,0,16.329-10.635,17.681-15.021c0.208-0.656,0.521-0.767,0.988-0.767L262.209,62.051
		L262.209,62.051z"/>
	<path d="M278.896,77.509V36.725H267.3c-0.52,0-1.041-0.549-1.041-2.192V18.416c0-1.315,0.365-2.412,1.301-2.412h45.292
		c0.677,0,1.197,0.548,1.197,3.289V35.08c0,1.096-0.572,1.645-1.977,1.645h-6.553v20.939l22.83-20.722v-0.219h-11.079
		c-0.778,0-1.194-0.108-1.194-2.74V18.196c0-1.096,0.26-2.191,1.561-2.191h41.603c0.777,0,1.299,0.548,1.299,3.289v15.238
		c0,1.098-0.521,2.192-1.299,2.192h-11.648l-11.336,10.854l13.832,29.931H362.1c0.625,0,0.988,0.877,0.988,2.521v16.007
		c0,0.877-0.26,2.191-1.404,2.191H312.23c-0.625,0-1.041-1.097-1.041-2.96V79.153c0-0.768,0.416-1.645,1.145-1.645h3.641
		l-4.629-10.306l-5.824,5.48v4.824h2.809c0.676,0,0.779,1.097,0.779,2.192v16.664c0,1.097-0.363,1.863-1.248,1.863h-40.717
		c-0.52,0-0.885-0.768-0.885-2.741V79.701c0-1.315,0.365-2.192,0.781-2.192H278.896L278.896,77.509z"/>
	<path d="M452.891,16.004c0.936,0,1.197,0.767,1.197,2.412v31.247c0,1.096-0.156,1.862-0.678,1.862H435.52
		c-0.361,0-0.676,0-0.676-0.768V36.943h-30.057v10.416h16.744c0.521,0,0.729,0.22,0.729,1.097v17.213
		c0,0.877-0.623,1.097-1.248,1.097h-16.225v11.073h30.473V64.462c0-0.986,0.156-2.192,0.988-2.192h19.033
		c0.363,0,0.572,0.548,0.572,2.083v32.343c0,0.768-0.209,1.534-1.197,1.534h-88.195c-0.676,0-1.299,0.11-1.299-1.206V79.701
		c0-0.986,0.312-1.863,0.779-1.863h11.805V36.834h-11.855c-0.416,0-0.729,0.22-0.729-1.097V16.99c0-0.549,0.52-0.986,1.299-0.986
		H452.891z"/>
	<path d="M530.422,78.057c0.469,0,0.779,0.109,0.779,0.658v18.857c0,0.547-0.312,0.656-0.779,0.656h-52.055
		c-0.207,0-0.57-0.438-0.57-1.534V79.482c0-0.549,0.26-1.426,0.57-1.426h12.43V35.848H476.86v14.691
		c0,0.768-0.416,0.768-0.729,0.768h-17.369c-0.469,0-0.832-0.549-0.832-1.426V17.539c0-0.769,0.262-1.535,0.623-1.535h90.951
		c0.572,0,0.939,0.219,0.939,2.631v31.137c0,0.769-0.156,1.754-0.625,1.754h-16.744c-0.312,0-0.572,0-0.572-1.315V35.848h-14.924
		v42.209H530.422z"/>
	<path d="M611.749,17.319c0.104-0.877,0.572-1.206,0.988-1.206h14.248c0.986,0,1.354,1.535,1.354,2.303v20.062
		c0,0.769-0.262,1.316-0.678,1.316H610.45c-0.209,0-0.469,0-0.572-0.549c-1.717-6.249-7.385-7.675-9.049-7.675h-15.965
		c-1.303,0-5.148,0.328-5.148,5.481c0,5.481,6.24,5.263,8.32,5.263l9.934,0.22c5.146,0,17.107,2.083,20.229,3.508
		c3.016,1.535,13.936,6.03,13.936,23.572c0,25.104-21.424,28.613-28.861,28.613H589.18c-5.877,0-12.117-3.837-15.809-7.455
		l-0.312,6.358c-0.104,0.877-0.416,1.097-0.779,1.097h-17.682c-0.363,0-0.52-0.438-0.52-1.314V74.549
		c0-0.549,0.156-1.316,0.572-1.316h18.562c0.416,0,0.676,0.439,0.779,1.207c1.041,7.235,9.465,7.675,10.037,7.675h18.773
		c0.572,0,3.691-0.658,3.691-4.275c0-4.166-2.912-5.373-3.643-5.373l-15.078-0.219c-4.006,0-16.018-2.631-20.803-5.481
		c-8.525-5.153-12.637-15.239-12.637-23.022c0-10.965,5.668-17.433,8.529-20.611c3.588-4.276,10.557-7.126,18.98-7.126h14.301
		c7.229,0,12.271,3.728,14.924,6.249L611.749,17.319z"/>
</g>
<g>
	<rect x="52" y="109.356" fill="none" width="527" height="185"/>
	<path d="M53.084,141.205l6.064-0.594c0,5.066,1.02,7.6,3.06,7.6c1.769,0,2.663-1.652,2.683-4.958c0-0.577-0.073-1.169-0.22-1.776
		c-0.146-0.606-0.422-1.339-0.828-2.194c-0.405-0.856-0.72-1.493-0.943-1.912l-1.534-2.36c-0.764-1.136-1.221-1.841-1.374-2.115
		c-1.247-1.918-2.251-3.463-3.013-4.635s-1.45-2.628-2.065-4.368s-0.923-3.36-0.923-4.86c0-2.669,0.676-5.021,2.028-7.056
		s3.398-3.072,6.141-3.11c0.094,0,0.189,0,0.284,0c1.665,0,3.083,0.337,4.255,1.012c1.248,0.713,2.151,1.691,2.709,2.934
		c0.558,1.243,0.956,2.467,1.191,3.671c0.236,1.204,0.355,2.52,0.355,3.944l-6.064,0.594c0-4.294-0.875-6.441-2.624-6.441
		c-1.493,0.04-2.23,1.537-2.21,4.49c0,0.359,0.049,0.754,0.149,1.183c0.099,0.429,0.224,0.818,0.373,1.168
		c0.149,0.349,0.379,0.777,0.69,1.287c0.311,0.509,0.555,0.897,0.732,1.167c0.176,0.269,0.452,0.689,0.827,1.261l0.819,1.248
		l0.947,1.445l0.9,1.37l3.052,4.653c0.483,0.976,1.006,2.363,1.567,4.165s0.842,3.458,0.842,4.971
		c0,7.312-2.917,10.957-8.751,10.938c-1.553,0-2.898-0.247-4.034-0.74c-1.137-0.493-2.027-1.108-2.671-1.844
		s-1.151-1.693-1.52-2.875c-0.37-1.181-0.611-2.318-0.725-3.412C53.141,143.959,53.084,142.677,53.084,141.205z"/>
	<path d="M76.059,144.403v-25.986c0-0.234,0.019-0.571,0.055-1.011c0.037-0.439,0.192-1.211,0.467-2.314
		c0.274-1.104,0.667-2.075,1.18-2.915s1.322-1.602,2.429-2.285s2.474-1.025,4.103-1.025c1.628,0,2.996,0.332,4.103,0.996
		s1.916,1.455,2.428,2.373s0.906,1.846,1.18,2.783s0.43,1.748,0.467,2.432l0.055,0.967v25.986c0,0.234-0.019,0.571-0.055,1.011
		c-0.037,0.439-0.192,1.211-0.467,2.314s-0.668,2.075-1.18,2.915s-1.321,1.597-2.428,2.271s-2.475,1.011-4.103,1.011
		c-1.628,0-2.996-0.327-4.103-0.981s-1.917-1.44-2.429-2.358s-0.906-1.851-1.18-2.798c-0.275-0.947-0.43-1.733-0.467-2.358
		L76.059,144.403z M82.123,144.872c0,0.243,0.01,0.552,0.029,0.926c0.02,0.375,0.211,0.87,0.575,1.487s0.885,0.926,1.563,0.926
		s1.199-0.278,1.563-0.835c0.363-0.557,0.545-1.128,0.545-1.715l0.059-0.789v-26.925c0-0.242-0.01-0.551-0.03-0.926
		c-0.02-0.374-0.211-0.875-0.575-1.502c-0.364-0.627-0.885-0.941-1.563-0.941s-1.2,0.283-1.563,0.85
		c-0.364,0.567-0.545,1.113-0.545,1.64l-0.059,0.88V144.872z"/>
	<path d="M99.18,153.455v-44.092h6.064v38.379h8.994v5.713H99.18z"/>
	<path d="M118.375,153.455v-44.092h4.854c1.674,0,3.102,0.117,4.282,0.352c1.181,0.234,2.227,0.562,3.139,0.981
		s1.655,1.079,2.232,1.978s1.046,1.831,1.409,2.798c0.362,0.967,0.627,2.329,0.795,4.087s0.281,3.486,0.339,5.186
		s0.088,3.931,0.088,6.694s-0.029,4.995-0.088,6.694s-0.172,3.418-0.339,5.156s-0.433,3.086-0.795,4.043
		c-0.363,0.957-0.833,1.885-1.409,2.783s-1.32,1.558-2.232,1.978s-1.958,0.752-3.139,0.996c-1.181,0.244-2.608,0.366-4.282,0.366
		H118.375z M124.439,146.981c1.847,0,3.056-0.4,3.625-1.201c0.766-1.074,1.169-4.199,1.208-9.375v-5.039c0-0.527,0-1.035,0-1.523
		c0-6.445-0.246-10.371-0.737-11.777c-0.453-1.289-1.356-2.012-2.712-2.168c-0.354-0.039-0.816-0.059-1.385-0.059V146.981z"/>
	<path d="M152.488,144.403v-25.986c0-0.234,0.019-0.571,0.055-1.011c0.037-0.439,0.192-1.211,0.467-2.314
		c0.274-1.104,0.667-2.075,1.18-2.915s1.322-1.602,2.429-2.285s2.474-1.025,4.103-1.025c1.628,0,2.996,0.332,4.103,0.996
		s1.916,1.455,2.428,2.373s0.906,1.846,1.18,2.783s0.43,1.748,0.467,2.432l0.055,0.967v25.986c0,0.234-0.019,0.571-0.055,1.011
		c-0.037,0.439-0.192,1.211-0.467,2.314s-0.668,2.075-1.18,2.915s-1.321,1.597-2.428,2.271s-2.475,1.011-4.103,1.011
		c-1.628,0-2.996-0.327-4.103-0.981s-1.917-1.44-2.429-2.358s-0.906-1.851-1.18-2.798c-0.275-0.947-0.43-1.733-0.467-2.358
		L152.488,144.403z M158.553,144.872c0,0.243,0.01,0.552,0.029,0.926c0.02,0.375,0.211,0.87,0.575,1.487s0.885,0.926,1.563,0.926
		s1.199-0.278,1.563-0.835c0.363-0.557,0.545-1.128,0.545-1.715l0.059-0.789v-26.925c0-0.242-0.01-0.551-0.03-0.926
		c-0.02-0.374-0.211-0.875-0.575-1.502c-0.364-0.627-0.885-0.941-1.563-0.941s-1.2,0.283-1.563,0.85
		c-0.364,0.567-0.545,1.113-0.545,1.64l-0.059,0.88V144.872z"/>
	<path d="M175.551,144.403v-35.039h6.064v35.575c0,0.238,0.01,0.541,0.029,0.907c0.02,0.367,0.211,0.854,0.575,1.458
		c0.364,0.605,0.89,0.907,1.578,0.907c0.688,0,1.209-0.272,1.563-0.818c0.354-0.545,0.531-1.105,0.531-1.68l0.088-0.774v-35.575
		h6.064v35.039c0,0.234-0.019,0.571-0.055,1.011c-0.037,0.439-0.197,1.211-0.48,2.314c-0.284,1.104-0.677,2.075-1.18,2.915
		c-0.503,0.84-1.308,1.597-2.415,2.271s-2.479,1.011-4.117,1.011s-3.01-0.327-4.117-0.981s-1.912-1.44-2.415-2.358
		s-0.896-1.851-1.18-2.798c-0.284-0.947-0.443-1.733-0.48-2.358L175.551,144.403z"/>
	<path d="M196.357,116.014v-6.65h19.131v6.65h-6.533v37.441h-6.064v-37.441H196.357z"/>
	<path d="M219.273,109.364h6.768l-1.553,32.197h-3.779L219.273,109.364z M219.625,153.455v-6.65h6.064v6.65H219.625z"/>
</g>
</svg>
