<?xml version="1.0" encoding="utf-8"?>
<!-- Generator: Adobe Illustrator 16.0.0, SVG Export Plug-In . SVG Version: 6.00 Build 0)  -->
<!DOCTYPE svg PUBLIC "-//W3C//DTD SVG 1.1//EN" "http://www.w3.org/Graphics/SVG/1.1/DTD/svg11.dtd">
<svg version="1.1" id="Layer_1" xmlns="http://www.w3.org/2000/svg" xmlns:xlink="http://www.w3.org/1999/xlink" x="0px" y="0px"
	 width="59.573px" height="15.377px" viewBox="0 0 59.573 15.377" enable-background="new 0 0 59.573 15.377" xml:space="preserve">
<g>
	<rect x="3.562" y="2.669" fill="none" width="177.398" height="199.999"/>
	<path d="M6.834,2.744C6.84,2.696,6.865,2.678,6.888,2.678h0.773c0.054,0,0.074,0.084,0.074,0.126v1.098
		c0,0.042-0.014,0.072-0.037,0.072H6.764c-0.011,0-0.025,0-0.031-0.03c-0.093-0.342-0.401-0.42-0.491-0.42H5.375
		c-0.071,0-0.28,0.018-0.28,0.3c0,0.3,0.339,0.288,0.452,0.288l0.539,0.012c0.28,0,0.929,0.114,1.098,0.192
		c0.164,0.084,0.757,0.33,0.757,1.29c0,1.373-1.163,1.565-1.567,1.565H5.609c-0.319,0-0.658-0.21-0.858-0.408L4.734,7.109
		c-0.005,0.048-0.022,0.06-0.042,0.06h-0.96c-0.02,0-0.028-0.024-0.028-0.072V5.874c0-0.03,0.008-0.072,0.031-0.072h1.008
		c0.022,0,0.037,0.024,0.042,0.066c0.057,0.396,0.514,0.42,0.545,0.42h1.019c0.031,0,0.201-0.036,0.201-0.234
		c0-0.228-0.158-0.294-0.198-0.294L5.533,5.748c-0.217,0-0.869-0.144-1.129-0.3C3.941,5.167,3.718,4.615,3.718,4.189
		c0-0.6,0.308-0.953,0.463-1.127c0.195-0.234,0.573-0.39,1.03-0.39h0.776c0.393,0,0.666,0.204,0.81,0.342L6.834,2.744z"/>
	<path d="M8.168,7.169c-0.02,0-0.034-0.036-0.034-0.084V6.15c0-0.048,0.034-0.114,0.059-0.114h0.613V3.805H8.163
		c-0.028,0-0.04-0.03-0.04-0.06V2.726c0-0.048,0.028-0.054,0.048-0.054h3.591c0.788,0,1.349,0.684,1.349,1.397
		c0,1.181-1.067,1.373-1.245,1.373h-1.615v0.594h0.652c0.051,0,0.062,0.06,0.062,0.108v0.912c0,0.078-0.014,0.114-0.062,0.114H8.168
		z M11.268,4.393c0.048,0,0.237-0.048,0.237-0.282c0-0.216-0.158-0.306-0.223-0.306h-1.03v0.588H11.268z"/>
	<path d="M16.839,2.672c0.073,0,0.683,0.042,0.929,0.252c0.175,0.15,0.432,0.456,0.432,0.941c0,0.45-0.288,0.786-0.564,1.014
		C17.858,5.106,18,5.238,18.084,5.856c0.02,0.114,0.045,0.192,0.09,0.192c0.06,0,0.217-0.108,0.217-0.503V5.376
		c0-0.036,0.012-0.06,0.04-0.06h0.333c0.02,0,0.031,0.024,0.031,0.096V6.06c0,0.642-0.443,1.109-0.649,1.109h-1.121
		c-0.183,0-0.355-0.336-0.398-0.504c-0.042-0.15-0.104-0.618-0.133-0.761c-0.09-0.468-0.373-0.492-0.438-0.492h-0.711v0.653h0.658
		c0.026,0,0.042,0.006,0.042,0.036v1.031c0,0.03-0.017,0.036-0.042,0.036h-2.729c-0.014,0-0.031-0.024-0.031-0.084V6.102
		c0-0.03,0.014-0.072,0.031-0.072h0.624V3.751h-0.627c-0.025,0-0.042-0.012-0.042-0.09V2.756c0-0.042,0.011-0.084,0.031-0.084
		H16.839z M15.346,3.775v0.671h0.861c0.184,0,0.406-0.084,0.406-0.318c0-0.282-0.291-0.354-0.338-0.354H15.346z"/>
	<path d="M23.677,2.672c0.051,0,0.065,0.042,0.065,0.132v1.709c0,0.06-0.009,0.102-0.037,0.102h-0.971c-0.02,0-0.037,0-0.037-0.042
		V3.817h-1.631v0.57h0.909c0.028,0,0.04,0.012,0.04,0.06v0.941c0,0.048-0.034,0.06-0.067,0.06h-0.881v0.606h1.654V5.322
		c0-0.054,0.008-0.12,0.054-0.12h1.033c0.02,0,0.031,0.03,0.031,0.114v1.769c0,0.042-0.011,0.084-0.065,0.084h-4.788
		c-0.037,0-0.07,0.006-0.07-0.066V6.156c0-0.054,0.017-0.102,0.042-0.102h0.641V3.811h-0.644c-0.023,0-0.04,0.012-0.04-0.06V2.726
		c0-0.03,0.028-0.054,0.07-0.054H23.677z"/>
	<path d="M26.239,7.169c-0.042,0-0.065-0.054-0.065-0.114V6.18c0-0.054,0.017-0.09,0.045-0.09h0.477L26.53,5.574h-0.875L25.488,6.09
		h0.528c0.031,0,0.045,0.036,0.045,0.072v0.894c0,0.072-0.011,0.114-0.04,0.114h-1.92c-0.064,0-0.113-0.012-0.113-0.096V6.156
		c0-0.066,0.014-0.102,0.057-0.102h0.579l1.095-3.256c0.028-0.09,0.065-0.126,0.099-0.126h1.299c0.056,0,0.09,0.066,0.104,0.126
		l1.138,3.316h0.624c0.048,0,0.048,0.108,0.048,0.198v0.762c0,0.072-0.028,0.096-0.079,0.096H26.239z M25.835,5.022h0.502
		l-0.22-0.708c-0.008-0.018-0.037-0.018-0.042,0L25.835,5.022z"/>
	<path d="M29.861,3.728h-0.624c-0.025,0-0.059,0.012-0.059-0.072V2.792c0-0.048,0.011-0.12,0.056-0.12h3.032
		c0.133,0,1.973,0.318,1.973,2.243c0,1.919-1.482,2.255-2.114,2.255h-2.829c-0.056,0-0.118,0-0.118-0.15V6.306
		c0-0.09,0.005-0.204,0.062-0.204h0.621V3.728z M31.297,6.102h0.52c0.325,0,0.813-0.378,0.813-1.188
		c0-0.845-0.534-1.187-0.672-1.187h-0.661V6.102z"/>
	<path d="M39.777,6.066c0.025,0,0.042,0.006,0.042,0.036v1.031c0,0.03-0.017,0.036-0.042,0.036h-2.826
		c-0.011,0-0.031-0.024-0.031-0.084V6.144c0-0.03,0.014-0.078,0.031-0.078h0.674V3.757h-0.756v0.804c0,0.042-0.022,0.042-0.04,0.042
		h-0.943c-0.025,0-0.045-0.03-0.045-0.078V2.756c0-0.042,0.014-0.084,0.034-0.084h4.937c0.031,0,0.051,0.012,0.051,0.144v1.703
		c0,0.042-0.008,0.096-0.034,0.096h-0.909c-0.017,0-0.031,0-0.031-0.072V3.757h-0.81v2.309H39.777z"/>
	<path d="M43.663,2.672c0.034,0,0.048,0.042,0.048,0.096v0.923c0,0.06-0.028,0.078-0.07,0.078h-0.542v0.629h1.344V3.77h-0.57
		c-0.028,0-0.048-0.018-0.048-0.072V2.792c0-0.054,0.017-0.12,0.059-0.12h2.625c0.028,0,0.056,0.042,0.056,0.12v0.857
		c0,0.042-0.008,0.12-0.045,0.12h-0.624v2.254H46.5c0.042,0,0.079,0.012,0.079,0.12v0.93c0,0.072-0.02,0.096-0.059,0.096h-2.651
		c-0.031,0-0.045-0.024-0.045-0.102V6.09c0-0.042,0.014-0.066,0.034-0.066h0.584V5.376h-1.344v0.647h0.584
		c0.017,0,0.028,0.024,0.028,0.06v1.02c0,0.042-0.022,0.066-0.042,0.066h-2.654c-0.014,0-0.031-0.024-0.031-0.084V6.096
		c0-0.03,0.014-0.072,0.031-0.072h0.652V3.77h-0.655c-0.025,0-0.042-0.024-0.042-0.102V2.756c0-0.042,0.011-0.084,0.031-0.084
		H43.663z"/>
	<path d="M51.46,2.672c0.051,0,0.065,0.042,0.065,0.132v1.709c0,0.06-0.009,0.102-0.037,0.102h-0.971c-0.02,0-0.037,0-0.037-0.042
		V3.817h-1.632v0.57h0.909c0.028,0,0.039,0.012,0.039,0.06v0.941c0,0.048-0.034,0.06-0.067,0.06h-0.881v0.606h1.654V5.322
		c0-0.054,0.008-0.12,0.054-0.12h1.033c0.02,0,0.031,0.03,0.031,0.114v1.769c0,0.042-0.011,0.084-0.065,0.084h-4.788
		c-0.037,0-0.07,0.006-0.07-0.066V6.156c0-0.054,0.017-0.102,0.042-0.102h0.641V3.811h-0.644c-0.023,0-0.04,0.012-0.04-0.06V2.726
		c0-0.03,0.028-0.054,0.07-0.054H51.46z"/>
	<path d="M10.123,8.672c0.04,0,0.048,0.042,0.048,0.09v0.959c0,0.03-0.014,0.054-0.037,0.054H9.499l-1.106,3.334
		c-0.011,0.036-0.02,0.06-0.034,0.06H7.625c-0.011,0-0.017-0.024-0.028-0.054l-0.723-2.002l-0.711,2.021
		c-0.014,0.03-0.023,0.036-0.051,0.036H5.4c-0.02,0-0.025-0.03-0.037-0.054l-1.109-3.34H3.667c-0.022,0-0.048-0.018-0.048-0.09
		v-0.93c0-0.042,0.017-0.084,0.04-0.084h2.368c0.031,0,0.057,0.012,0.057,0.084v0.954c0,0.036-0.014,0.066-0.04,0.066H5.872
		l0.296,0.845l0.271-0.845H6.236c-0.017,0-0.04,0-0.04-0.036V8.768c0-0.06,0.02-0.096,0.082-0.096h1.934
		c0.025,0,0.051,0.024,0.051,0.09v0.948c0,0.036-0.014,0.066-0.04,0.066H8.054l0.285,0.845l0.282-0.845H8.418
		c-0.017,0-0.042-0.024-0.042-0.06V8.756c0-0.06,0.025-0.084,0.087-0.084H10.123z"/>
	<path d="M12.713,8.672c1.301,0,2.125,1.043,2.125,2.117c0,1.098-0.584,2.381-1.996,2.381h-0.511c-1.157,0-1.637-0.528-1.959-1.025
		c-0.249-0.39-0.322-0.941-0.322-1.29c0-0.456,0.152-0.863,0.296-1.157c0.246-0.498,0.873-1.025,1.807-1.025H12.713z M11.725,10.861
		c0,0.642,0.322,1.265,0.74,1.265c0.472,0,0.726-0.624,0.726-1.164c0-0.534-0.282-1.247-0.756-1.247
		C12.072,9.715,11.725,10.255,11.725,10.861z"/>
	<path d="M18.652,8.672c0.073,0,0.683,0.042,0.929,0.252c0.175,0.15,0.432,0.456,0.432,0.941c0,0.45-0.288,0.786-0.564,1.014
		c0.223,0.228,0.364,0.359,0.449,0.977c0.02,0.114,0.045,0.192,0.09,0.192c0.06,0,0.217-0.108,0.217-0.503v-0.168
		c0-0.036,0.012-0.06,0.04-0.06h0.333c0.02,0,0.031,0.024,0.031,0.096v0.647c0,0.642-0.443,1.109-0.649,1.109h-1.121
		c-0.183,0-0.355-0.336-0.398-0.504c-0.042-0.15-0.104-0.618-0.133-0.761c-0.09-0.468-0.373-0.492-0.438-0.492h-0.711v0.653h0.658
		c0.026,0,0.042,0.006,0.042,0.036v1.031c0,0.03-0.017,0.036-0.042,0.036h-2.729c-0.014,0-0.031-0.024-0.031-0.084v-0.983
		c0-0.03,0.014-0.072,0.031-0.072h0.624V9.751h-0.627c-0.025,0-0.042-0.012-0.042-0.09V8.756c0-0.042,0.011-0.084,0.031-0.084
		H18.652z M17.158,9.775v0.671h0.861c0.184,0,0.406-0.084,0.406-0.318c0-0.282-0.291-0.354-0.338-0.354H17.158z"/>
	<path d="M25.647,13.02c0,0.108-0.034,0.15-0.062,0.15h-4.802c-0.028,0-0.056-0.042-0.056-0.12v-0.905
		c0-0.048,0.017-0.108,0.073-0.108h0.612V9.805h-0.624c-0.034,0-0.057-0.048-0.057-0.108V8.774c0-0.06,0.022-0.102,0.065-0.102h2.67
		c0.042,0,0.076,0.042,0.076,0.162v0.852c0,0.072-0.02,0.12-0.056,0.12H22.85v2.231h1.634v-0.684c0-0.06,0.014-0.18,0.062-0.18h1.03
		c0.037,0,0.07,0.048,0.07,0.168V13.02z"/>
	<path d="M26.451,9.728h-0.624c-0.025,0-0.059,0.012-0.059-0.072V8.792c0-0.048,0.011-0.12,0.056-0.12h3.032
		c0.133,0,1.973,0.318,1.973,2.243c0,1.919-1.482,2.255-2.114,2.255h-2.829c-0.056,0-0.118,0-0.118-0.15v-0.713
		c0-0.09,0.005-0.204,0.062-0.204h0.621V9.728z M27.888,12.102h0.52c0.325,0,0.813-0.378,0.813-1.188
		c0-0.845-0.534-1.187-0.672-1.187h-0.661V12.102z"/>
	<path d="M32.396,8.672c0.025,0,0.045,0.03,0.045,0.084c0,0.066-0.087,2.542-0.09,2.59c-0.005,0.12-0.037,0.15-0.056,0.15h-0.909
		c-0.034,0-0.048-0.042-0.051-0.12c0-0.03-0.093-2.531-0.093-2.591c0-0.084,0.025-0.114,0.054-0.114H32.396z M32.345,11.82
		c0.022,0,0.042,0.036,0.042,0.096v1.193c0,0.036-0.034,0.06-0.06,0.06h-0.985c-0.028,0-0.045-0.036-0.045-0.114v-1.158
		c0-0.042,0.022-0.078,0.054-0.078H32.345z"/>
</g>
<g>
</g>
<g>
</g>
<g>
</g>
<g>
</g>
<g>
</g>
<g>
</g>
</svg>
