<?xml version="1.0" encoding="utf-8"?>
<!-- Generator: Adobe Illustrator 16.0.0, SVG Export Plug-In . SVG Version: 6.00 Build 0)  -->
<!DOCTYPE svg PUBLIC "-//W3C//DTD SVG 1.1//EN" "http://www.w3.org/Graphics/SVG/1.1/DTD/svg11.dtd">
<svg version="1.1" id="Layer_1" xmlns="http://www.w3.org/2000/svg" xmlns:xlink="http://www.w3.org/1999/xlink" x="0px" y="0px"
	 width="55.955px" height="18.175px" viewBox="3.619 0 55.955 18.175" enable-background="new 3.619 0 55.955 18.175"
	 xml:space="preserve">
<g>
	<rect x="3.562" y="4.315" fill="none" width="177.398" height="199.999"/>
	<path d="M3.664,8.815c-0.025,0-0.045-0.024-0.045-0.066V7.838c0-0.12,0.017-0.168,0.051-0.168h0.632V5.403H3.695
		c-0.057,0-0.071-0.03-0.071-0.09V4.48c0-0.12,0.022-0.162,0.051-0.162h3.93c0.468,0,1.013,0.468,1.013,1.127
		c0,0.588-0.381,0.959-0.559,1.146C8.172,6.681,8.64,6.813,8.64,7.67c0,0.983-0.7,1.146-0.79,1.146L3.664,8.815L3.664,8.815z
		 M5.733,6.045h1.053c0.082,0,0.209-0.126,0.209-0.3c0-0.174-0.169-0.324-0.285-0.324H5.733V6.045z M5.733,7.706h0.951
		c0.172,0,0.311-0.096,0.311-0.282c0-0.21-0.167-0.354-0.288-0.354H5.733V7.706z"/>
	<path d="M13.592,4.318c0.051,0,0.065,0.042,0.065,0.132v1.709c0,0.06-0.009,0.102-0.037,0.102h-0.971c-0.02,0-0.037,0-0.037-0.042
		V5.463H10.98v0.57h0.909c0.028,0,0.04,0.012,0.04,0.06v0.941c0,0.048-0.034,0.06-0.067,0.06H10.98V7.7h1.654V6.968
		c0-0.054,0.008-0.12,0.054-0.12h1.033c0.02,0,0.031,0.03,0.031,0.114v1.769c0,0.042-0.011,0.084-0.065,0.084H8.9
		c-0.037,0-0.07,0.006-0.07-0.066V7.802C8.83,7.748,8.846,7.7,8.872,7.7h0.641V5.457H8.869c-0.023,0-0.04,0.012-0.04-0.06V4.372
		c0-0.03,0.028-0.054,0.07-0.054H13.592z"/>
	<path d="M19.222,7.712c0.025,0,0.042,0.006,0.042,0.036v1.031c0,0.03-0.017,0.036-0.042,0.036h-2.826
		c-0.011,0-0.031-0.024-0.031-0.084V7.79c0-0.03,0.014-0.078,0.031-0.078h0.674V5.403h-0.756v0.804c0,0.042-0.022,0.042-0.04,0.042
		h-0.943c-0.025,0-0.045-0.03-0.045-0.078V4.402c0-0.042,0.014-0.084,0.034-0.084h4.937c0.031,0,0.051,0.012,0.051,0.144v1.703
		c0,0.042-0.008,0.096-0.034,0.096h-0.909c-0.017,0-0.031,0-0.031-0.072V5.403h-0.81v2.309H19.222z"/>
	<path d="M23.108,4.318c0.034,0,0.048,0.042,0.048,0.096v0.923c0,0.06-0.028,0.078-0.07,0.078h-0.542v0.629h1.344V5.416h-0.57
		c-0.028,0-0.048-0.018-0.048-0.072V4.438c0-0.054,0.017-0.12,0.059-0.12h2.625c0.028,0,0.056,0.042,0.056,0.12v0.857
		c0,0.042-0.008,0.12-0.045,0.12h-0.624V7.67h0.604c0.042,0,0.079,0.012,0.079,0.12v0.93c0,0.072-0.02,0.096-0.059,0.096h-2.651
		c-0.031,0-0.045-0.024-0.045-0.102V7.736c0-0.042,0.014-0.066,0.034-0.066h0.584V7.022h-1.344V7.67h0.584
		c0.017,0,0.028,0.024,0.028,0.06v1.02c0,0.042-0.022,0.066-0.042,0.066H20.46c-0.014,0-0.031-0.024-0.031-0.084v-0.99
		c0-0.03,0.014-0.072,0.031-0.072h0.652V5.416h-0.655c-0.025,0-0.042-0.024-0.042-0.102V4.402c0-0.042,0.011-0.084,0.031-0.084
		H23.108z"/>
	<path d="M30.906,4.318c0.051,0,0.065,0.042,0.065,0.132v1.709c0,0.06-0.009,0.102-0.037,0.102h-0.971c-0.02,0-0.037,0-0.037-0.042
		V5.463h-1.632v0.57h0.909c0.028,0,0.039,0.012,0.039,0.06v0.941c0,0.048-0.034,0.06-0.067,0.06h-0.881V7.7h1.654V6.968
		c0-0.054,0.008-0.12,0.054-0.12h1.033c0.021,0,0.031,0.03,0.031,0.114v1.769c0,0.042-0.011,0.084-0.064,0.084h-4.789
		c-0.037,0-0.07,0.006-0.07-0.066V7.802c0-0.054,0.017-0.102,0.042-0.102h0.641V5.457h-0.644c-0.023,0-0.04,0.012-0.04-0.06V4.372
		c0-0.03,0.028-0.054,0.07-0.054H30.906z"/>
	<path d="M37.315,4.318c0.067,0,0.104,0.042,0.104,0.21v1.631c0,0.06,0,0.15-0.043,0.15h-0.945c-0.042,0-0.062,0.012-0.062-0.06
		V5.391h-1.635v0.684h0.903c0.036,0,0.057,0.042,0.057,0.132v0.81c0,0.042-0.03,0.054-0.057,0.054h-0.89v0.636h0.625
		c0.021,0,0.033,0.024,0.033,0.084v0.996c0,0.03-0.025,0.03-0.059,0.03H32.66c-0.027,0-0.057,0.012-0.057-0.06V7.742
		c0-0.06,0.023-0.09,0.062-0.09h0.617V5.427h-0.609c-0.028,0-0.086,0-0.086-0.072V4.438c0-0.09,0.043-0.12,0.092-0.12H37.315z"/>
	<path d="M37.546,4.432c0-0.078,0.02-0.114,0.045-0.114h2.752c0.025,0,0.06,0.012,0.06,0.054v0.995c0,0.06-0.021,0.084-0.042,0.084
		H39.72v2.243h0.641c0.028,0,0.042,0.024,0.042,0.066v0.954c0,0.072-0.006,0.102-0.042,0.102h-2.755c-0.045,0-0.06-0.042-0.06-0.084
		V7.796c0-0.084,0.02-0.114,0.037-0.114h0.641V5.445H37.6c-0.031,0-0.054-0.024-0.054-0.06V4.432z"/>
	<path d="M44.145,4.318c0.073,0,0.683,0.042,0.929,0.252c0.176,0.15,0.432,0.456,0.432,0.941c0,0.45-0.287,0.786-0.563,1.014
		c0.224,0.228,0.364,0.359,0.449,0.977c0.021,0.114,0.045,0.192,0.09,0.192c0.06,0,0.218-0.108,0.218-0.503V7.022
		c0-0.036,0.012-0.06,0.039-0.06h0.333c0.021,0,0.031,0.024,0.031,0.096v0.647c0,0.642-0.442,1.109-0.649,1.109h-1.121
		c-0.183,0-0.354-0.336-0.397-0.504C43.892,8.16,43.83,7.692,43.8,7.549c-0.09-0.468-0.372-0.492-0.438-0.492h-0.711V7.71h0.658
		c0.025,0,0.042,0.006,0.042,0.036v1.031c0,0.03-0.017,0.036-0.042,0.036h-2.73c-0.014,0-0.031-0.024-0.031-0.084V7.748
		c0-0.03,0.015-0.072,0.031-0.072h0.625V5.397h-0.627c-0.025,0-0.043-0.012-0.043-0.09V4.402c0-0.042,0.012-0.084,0.031-0.084
		H44.145z M42.651,5.421v0.671h0.861c0.184,0,0.405-0.084,0.405-0.318c0-0.282-0.291-0.354-0.338-0.354L42.651,5.421L42.651,5.421z"
		/>
	<path d="M49.435,4.39c0.006-0.048,0.031-0.066,0.054-0.066h0.773c0.054,0,0.073,0.084,0.073,0.126v1.098
		c0,0.042-0.014,0.072-0.037,0.072h-0.935c-0.011,0-0.024,0-0.03-0.03c-0.094-0.342-0.401-0.42-0.492-0.42h-0.865
		c-0.071,0-0.28,0.018-0.28,0.3c0,0.3,0.339,0.288,0.452,0.288l0.539,0.012c0.279,0,0.93,0.114,1.098,0.192
		c0.164,0.084,0.758,0.33,0.758,1.29c0,1.373-1.164,1.565-1.567,1.565H48.21c-0.319,0-0.658-0.21-0.858-0.408l-0.017,0.348
		c-0.006,0.048-0.022,0.06-0.043,0.06h-0.959c-0.02,0-0.027-0.024-0.027-0.072V7.52c0-0.03,0.008-0.072,0.031-0.072h1.008
		c0.021,0,0.037,0.024,0.042,0.066c0.057,0.396,0.514,0.42,0.545,0.42h1.019c0.031,0,0.201-0.036,0.201-0.234
		c0-0.228-0.158-0.294-0.197-0.294l-0.82-0.012c-0.217,0-0.868-0.144-1.129-0.3c-0.463-0.282-0.686-0.833-0.686-1.259
		c0-0.6,0.309-0.953,0.463-1.127c0.195-0.234,0.573-0.39,1.03-0.39h0.776c0.393,0,0.666,0.204,0.81,0.342L49.435,4.39z"/>
	<path d="M54.63,7.712c0.025,0,0.043,0.006,0.043,0.036v1.031c0,0.03-0.018,0.036-0.043,0.036h-2.825
		c-0.011,0-0.031-0.024-0.031-0.084V7.79c0-0.03,0.015-0.078,0.031-0.078h0.674V5.403h-0.756v0.804c0,0.042-0.022,0.042-0.04,0.042
		H50.74c-0.025,0-0.045-0.03-0.045-0.078V4.402c0-0.042,0.014-0.084,0.034-0.084h4.937c0.031,0,0.051,0.012,0.051,0.144v1.703
		c0,0.042-0.008,0.096-0.033,0.096h-0.909c-0.017,0-0.03,0-0.03-0.072V5.403h-0.811v2.309H54.63z"/>
	<path d="M7.554,13.712c0.025,0,0.042,0.006,0.042,0.035v1.031c0,0.03-0.017,0.036-0.042,0.036H4.729
		c-0.011,0-0.031-0.024-0.031-0.084v-0.94c0-0.031,0.014-0.078,0.031-0.078h0.674v-2.31H4.646v0.804c0,0.043-0.022,0.043-0.04,0.043
		H3.664c-0.025,0-0.045-0.031-0.045-0.078v-1.77c0-0.042,0.014-0.084,0.034-0.084H8.59c0.031,0,0.051,0.012,0.051,0.145v1.703
		c0,0.041-0.008,0.096-0.034,0.096H7.698c-0.017,0-0.031,0-0.031-0.072v-0.786h-0.81v2.31H7.554z"/>
	<path d="M11.494,10.318c1.301,0,2.125,1.043,2.125,2.117c0,1.098-0.584,2.381-1.996,2.381h-0.511c-1.157,0-1.637-0.527-1.959-1.025
		c-0.249-0.39-0.322-0.94-0.322-1.289c0-0.457,0.152-0.863,0.296-1.158c0.246-0.497,0.873-1.024,1.807-1.024L11.494,10.318
		L11.494,10.318z M10.506,12.507c0,0.642,0.322,1.265,0.74,1.265c0.472,0,0.726-0.624,0.726-1.164c0-0.534-0.282-1.247-0.756-1.247
		C10.854,11.361,10.506,11.901,10.506,12.507z"/>
	<path d="M15.908,13.682v-2.231h-0.629c-0.028,0-0.056-0.029-0.056-0.119v-0.881c0-0.072,0.02-0.133,0.07-0.133h2.459
		c0.037,0,0.065,0.03,0.065,0.18v0.863c0,0.061-0.031,0.09-0.107,0.09h-0.356v1.146l1.239-1.133v-0.012h-0.601
		c-0.042,0-0.065-0.007-0.065-0.15v-0.863c0-0.061,0.014-0.12,0.085-0.12h2.258c0.042,0,0.071,0.03,0.071,0.181v0.832
		c0,0.061-0.028,0.121-0.071,0.121h-0.632l-0.616,0.594l0.751,1.637h0.652c0.034,0,0.054,0.048,0.054,0.138v0.875
		c0,0.048-0.014,0.12-0.076,0.12h-2.685c-0.034,0-0.056-0.061-0.056-0.162v-0.881c0-0.042,0.022-0.09,0.062-0.09h0.197l-0.251-0.564
		l-0.316,0.301v0.264h0.153c0.037,0,0.042,0.061,0.042,0.12v0.911c0,0.061-0.02,0.103-0.067,0.103h-2.21
		c-0.028,0-0.048-0.042-0.048-0.149v-0.864c0-0.072,0.02-0.12,0.042-0.12L15.908,13.682L15.908,13.682z"/>
	<path d="M23.18,10.318c0.028,0,0.059,0.03,0.087,0.072L24.718,13v-1.547h-0.621c-0.042,0-0.065-0.031-0.065-0.078v-0.924
		c0-0.072,0.02-0.133,0.04-0.133h2.015c0.051,0,0.062,0.09,0.062,0.15v0.875c0,0.078-0.028,0.107-0.065,0.107h-0.602v3.202
		c0,0.103-0.014,0.162-0.051,0.162h-1.739c-0.02,0-0.051-0.006-0.071-0.042l-1.589-2.859v1.769h0.652c0.034,0,0.071,0.03,0.071,0.09
		v0.912c0,0.09-0.023,0.132-0.057,0.132H20.64c-0.028,0-0.042-0.042-0.042-0.12v-0.905c0-0.049,0.014-0.108,0.07-0.108h0.613v-2.231
		H20.65c-0.02,0-0.048-0.018-0.048-0.107v-0.936c0-0.061,0.028-0.091,0.071-0.091L23.18,10.318L23.18,10.318z"/>
	<path d="M29,10.318c1.3,0,2.125,1.043,2.125,2.117c0,1.098-0.584,2.381-1.996,2.381h-0.511c-1.157,0-1.637-0.527-1.959-1.025
		c-0.249-0.39-0.322-0.94-0.322-1.289c0-0.457,0.152-0.863,0.296-1.158c0.246-0.497,0.873-1.024,1.807-1.024L29,10.318L29,10.318z
		 M28.012,12.507c0,0.642,0.322,1.265,0.74,1.265c0.472,0,0.726-0.624,0.726-1.164c0-0.534-0.282-1.247-0.756-1.247
		C28.36,11.361,28.012,11.901,28.012,12.507z"/>
	<path d="M37.507,10.318c0.041,0,0.049,0.042,0.049,0.09v0.959c0,0.03-0.014,0.055-0.037,0.055h-0.635l-1.106,3.334
		c-0.011,0.035-0.021,0.06-0.034,0.06h-0.734c-0.01,0-0.016-0.024-0.027-0.054l-0.723-2.002l-0.711,2.021
		c-0.014,0.03-0.023,0.036-0.051,0.036h-0.711c-0.021,0-0.025-0.029-0.037-0.054l-1.109-3.341h-0.587
		c-0.022,0-0.048-0.018-0.048-0.09v-0.93c0-0.042,0.017-0.084,0.039-0.084h2.369c0.03,0,0.057,0.012,0.057,0.084v0.954
		c0,0.036-0.014,0.065-0.04,0.065h-0.173l0.297,0.846l0.271-0.846h-0.203c-0.018,0-0.041,0-0.041-0.035v-0.971
		c0-0.061,0.021-0.097,0.082-0.097h1.935c0.024,0,0.051,0.024,0.051,0.091v0.947c0,0.036-0.015,0.066-0.04,0.066H35.44l0.285,0.845
		l0.282-0.845h-0.203c-0.018,0-0.042-0.024-0.042-0.061v-0.959c0-0.061,0.024-0.084,0.087-0.084h1.658V10.318z"/>
	<path d="M39.054,10.318c0.025,0,0.045,0.03,0.045,0.084c0,0.066-0.087,2.542-0.09,2.59c-0.006,0.12-0.037,0.15-0.057,0.15h-0.908
		c-0.035,0-0.049-0.042-0.051-0.12c0-0.03-0.094-2.53-0.094-2.591c0-0.084,0.025-0.114,0.055-0.114L39.054,10.318L39.054,10.318z
		 M39.003,13.466c0.021,0,0.041,0.035,0.041,0.096v1.193c0,0.035-0.033,0.06-0.06,0.06H38c-0.027,0-0.045-0.036-0.045-0.114v-1.158
		c0-0.041,0.022-0.078,0.055-0.078h0.994V13.466z"/>
</g>
</svg>
