<?xml version="1.0" encoding="utf-8"?>
<!-- Generator: Adobe Illustrator 16.0.0, SVG Export Plug-In . SVG Version: 6.00 Build 0)  -->
<!DOCTYPE svg PUBLIC "-//W3C//DTD SVG 1.1//EN" "http://www.w3.org/Graphics/SVG/1.1/DTD/svg11.dtd">
<svg version="1.1" id="Layer_1" xmlns="http://www.w3.org/2000/svg" xmlns:xlink="http://www.w3.org/1999/xlink" x="0px" y="0px"
	 width="200.3px" height="100.481px" viewBox="0 0 200.3 100.481" enable-background="new 0 0 200.3 100.481" xml:space="preserve">
<g>
	<rect x="16.93" y="25.883" fill="none" width="198.294" height="68.017"/>
	<path fill="#FFFFFF" d="M16.637,32.541v-6.65h19.131v6.65h-6.533v37.441H23.17V32.541H16.637z"/>
	<path fill="#FFFFFF" d="M38.288,69.982V25.89h6.064v18.223h5.068V25.89h6.064v44.092H49.42V50.792h-5.068v19.189H38.288z"/>
	<path fill="#FFFFFF" d="M59.264,69.982l6.145-44.092h8.445l6.129,44.092h-5.777L73,60.988h-6.218l-1.207,8.994H59.264z
		 M67.703,54.132h4.379l-1.861-13.897l-0.156-1.16l-0.342-0.001l-0.156,1.161L67.703,54.132z"/>
	<path fill="#FFFFFF" d="M83.493,69.982V25.89h5.889l6.266,22.956l0.555,2.034h0.328v-2.048V25.89h6.064v44.092h-5.888
		l-6.276-23.005l-0.556-2.037h-0.316v2.053v22.989H83.493z"/>
	<path fill="#FFFFFF" d="M107.164,69.982V25.89h6.064v14.678V41.3l0.112-0.229l0.315-0.735l5.45-14.446h6.368l-5.73,13.339
		l7.004,30.753h-6.4l-4.461-19.211l-0.206-0.885l-0.533,0.042l-0.381,0.889l-1.538,3.58v15.586H107.164z"/>
	<path fill="#FFFFFF" d="M136.9,25.89h6.329l3.234,14.104l0.079,0.398h0.052l0.167-0.41l3.088-14.092h6.064l-6.328,25.312v18.779
		h-6.064V51.203L136.9,25.89z"/>
	<path fill="#FFFFFF" d="M158.99,60.929V34.943c0-0.234,0.019-0.571,0.055-1.011c0.037-0.439,0.192-1.211,0.467-2.314
		c0.274-1.103,0.667-2.075,1.18-2.915c0.512-0.839,1.322-1.601,2.429-2.285c1.106-0.684,2.475-1.025,4.103-1.025
		s2.996,0.333,4.103,0.996c1.106,0.664,1.916,1.455,2.429,2.373c0.512,0.918,0.905,1.846,1.18,2.783s0.43,1.748,0.467,2.432
		l0.055,0.967v25.986c0,0.234-0.019,0.571-0.055,1.011c-0.037,0.439-0.192,1.211-0.467,2.314c-0.274,1.104-0.668,2.076-1.18,2.915
		c-0.513,0.84-1.322,1.597-2.429,2.271s-2.475,1.011-4.103,1.011s-2.996-0.327-4.103-0.981s-1.917-1.44-2.429-2.358
		c-0.513-0.918-0.905-1.85-1.18-2.798c-0.274-0.947-0.43-1.733-0.467-2.358L158.99,60.929z M165.055,61.399
		c0,0.243,0.01,0.552,0.029,0.926c0.02,0.375,0.212,0.871,0.575,1.487c0.363,0.617,0.885,0.926,1.563,0.926s1.199-0.278,1.563-0.834
		c0.363-0.557,0.546-1.128,0.546-1.715l0.059-0.789V34.474c0-0.243-0.01-0.551-0.029-0.926c-0.021-0.374-0.212-0.875-0.575-1.502
		c-0.364-0.627-0.885-0.941-1.563-0.941s-1.2,0.283-1.563,0.85s-0.546,1.113-0.546,1.639l-0.059,0.88V61.399z"/>
	<path fill="#FFFFFF" d="M180.553,60.929V25.89h6.064v35.576c0,0.238,0.01,0.541,0.029,0.907c0.02,0.367,0.212,0.853,0.575,1.458
		s0.89,0.907,1.578,0.907s1.209-0.272,1.563-0.818c0.354-0.545,0.531-1.105,0.531-1.681l0.088-0.773V25.89h6.064v35.039
		c0,0.234-0.019,0.571-0.055,1.011c-0.037,0.439-0.197,1.211-0.48,2.314c-0.284,1.104-0.677,2.076-1.18,2.915
		c-0.504,0.84-1.309,1.597-2.415,2.271s-2.479,1.011-4.117,1.011s-3.011-0.327-4.117-0.981s-1.912-1.44-2.415-2.358
		c-0.503-0.918-0.896-1.85-1.18-2.798c-0.284-0.947-0.443-1.733-0.48-2.358L180.553,60.929z"/>
</g>
<g>
</g>
<g>
</g>
<g>
</g>
<g>
</g>
<g>
</g>
<g>
</g>
</svg>
