<?xml version="1.0" encoding="utf-8"?>
<!-- Generator: Adobe Illustrator 16.0.0, SVG Export Plug-In . SVG Version: 6.00 Build 0)  -->
<!DOCTYPE svg PUBLIC "-//W3C//DTD SVG 1.1//EN" "http://www.w3.org/Graphics/SVG/1.1/DTD/svg11.dtd">
<svg version="1.1" id="Layer_1" xmlns="http://www.w3.org/2000/svg" xmlns:xlink="http://www.w3.org/1999/xlink" x="0px" y="0px"
	 width="223.54px" height="98.987px" viewBox="0 0 223.54 98.987" enable-background="new 0 0 223.54 98.987" xml:space="preserve">
<g>
	<rect x="7.959" y="37.802" fill="none" width="244.71" height="199.999"/>
	<path fill="#FFFFFF" d="M25.285,49.121c0.11,0,0.184,0.02,0.184,0.12v3.44c0,0.1-0.074,0.12-0.184,0.12H13.02
		c-0.049,0-0.135-0.08-0.135-0.28v-3.141c0-0.1,0.061-0.26,0.135-0.26h2.928v-7.702h-3.284V44.1c0,0.14-0.098,0.14-0.171,0.14H8.4
		c-0.11,0-0.196-0.1-0.196-0.26v-5.901c0-0.14,0.061-0.28,0.147-0.28h21.43c0.135,0,0.221,0.04,0.221,0.48v5.681
		c0,0.14-0.037,0.32-0.147,0.32H25.91c-0.073,0-0.135,0-0.135-0.24v-2.621h-3.517v7.702H25.285z"/>
	<path fill="#FFFFFF" d="M42.133,37.798c0.147,0,0.208,0.14,0.208,0.32v3.081c0,0.2-0.122,0.26-0.306,0.26h-2.353v2.1h5.833v-2.1
		H43.04c-0.123,0-0.208-0.06-0.208-0.24v-3.021c0-0.18,0.074-0.4,0.257-0.4h11.395c0.123,0,0.245,0.14,0.245,0.4v2.86
		c0,0.14-0.037,0.4-0.196,0.4h-2.708v7.521h2.622c0.184,0,0.343,0.04,0.343,0.4v3.101c0,0.24-0.086,0.32-0.257,0.32H43.028
		c-0.135,0-0.196-0.08-0.196-0.34v-3.261c0-0.14,0.062-0.22,0.147-0.22h2.537V46.82h-5.833v2.161h2.537
		c0.073,0,0.122,0.08,0.122,0.2v3.4c0,0.14-0.098,0.22-0.184,0.22H30.64c-0.062,0-0.135-0.08-0.135-0.28v-3.3
		c0-0.1,0.061-0.24,0.135-0.24h2.831v-7.521h-2.843c-0.11,0-0.184-0.08-0.184-0.34v-3.041c0-0.14,0.049-0.28,0.135-0.28H42.133z"/>
	<path fill="#FFFFFF" d="M65.184,52.802c-0.184,0-0.282-0.18-0.282-0.38v-2.921c0-0.18,0.074-0.3,0.196-0.3h2.071l-0.723-1.721
		h-3.798l-0.723,1.721h2.291c0.135,0,0.196,0.12,0.196,0.24v2.981c0,0.24-0.049,0.38-0.172,0.38h-8.332
		c-0.282,0-0.49-0.04-0.49-0.32v-3.061c0-0.22,0.061-0.34,0.245-0.34h2.512l4.754-10.862c0.123-0.3,0.282-0.42,0.429-0.42h5.636
		c0.245,0,0.392,0.22,0.453,0.42l4.938,11.062h2.708c0.208,0,0.208,0.36,0.208,0.66v2.541c0,0.24-0.123,0.32-0.343,0.32H65.184z
		 M63.431,45.64h2.181l-0.956-2.36c-0.037-0.06-0.16-0.06-0.184,0L63.431,45.64z"/>
	<path fill="#FFFFFF" d="M89.114,37.798c0.123,0,0.257,0.1,0.379,0.24l6.298,8.702V41.58h-2.695c-0.184,0-0.282-0.1-0.282-0.26
		v-3.081c0-0.24,0.086-0.44,0.171-0.44h8.749c0.221,0,0.27,0.3,0.27,0.5v2.92c0,0.26-0.123,0.36-0.281,0.36h-2.61v10.682
		c0,0.34-0.062,0.54-0.221,0.54h-7.548c-0.086,0-0.221-0.02-0.307-0.14l-6.898-9.542v5.901h2.831c0.147,0,0.306,0.1,0.306,0.3v3.041
		c0,0.3-0.098,0.44-0.245,0.44h-8.933c-0.123,0-0.184-0.14-0.184-0.4v-3.021c0-0.16,0.061-0.36,0.306-0.36h2.659V41.58h-2.745
		c-0.086,0-0.208-0.06-0.208-0.36v-3.121c0-0.2,0.123-0.3,0.306-0.3H89.114z"/>
	<path fill="#FFFFFF" d="M105.475,49.021V41.58h-2.732c-0.123,0-0.246-0.1-0.246-0.4v-2.94c0-0.24,0.086-0.44,0.307-0.44h10.672
		c0.16,0,0.283,0.1,0.283,0.6v2.881c0,0.2-0.137,0.3-0.467,0.3h-1.543V45.4l5.379-3.781v-0.04h-2.611c-0.184,0-0.281-0.02-0.281-0.5
		v-2.88c0-0.2,0.062-0.4,0.367-0.4h9.803c0.184,0,0.307,0.1,0.307,0.6v2.781c0,0.2-0.123,0.4-0.307,0.4h-2.744l-2.672,1.98
		l3.26,5.461h2.83c0.146,0,0.232,0.16,0.232,0.46v2.921c0,0.16-0.061,0.4-0.33,0.4h-11.652c-0.146,0-0.246-0.2-0.246-0.54v-2.941
		c0-0.14,0.1-0.3,0.27-0.3h0.859l-1.092-1.88l-1.371,1v0.88h0.66c0.16,0,0.186,0.2,0.186,0.4v3.041c0,0.2-0.086,0.34-0.295,0.34
		h-9.594c-0.123,0-0.209-0.14-0.209-0.5v-2.881c0-0.24,0.086-0.4,0.184-0.4H105.475z"/>
	<path fill="#FFFFFF" d="M145.117,41.479c-0.135,0-0.221-0.1-0.221-0.22v-3.061c0-0.26,0.072-0.4,0.195-0.4h8.123
		c0.1,0,0.258,0.04,0.258,0.18v3.181c0,0.2-0.061,0.32-0.158,0.32h-2.795L145.9,47.48v1.541h3.148c0.086,0,0.16,0.04,0.16,0.12v3.42
		c0,0.12-0.012,0.24-0.086,0.24h-12.719c-0.121,0-0.135-0.1-0.135-0.2v-3.38c0-0.12,0.098-0.2,0.172-0.2h3.125v-1.48l-4.633-6.061
		h-2.768c-0.135,0-0.221-0.08-0.221-0.2v-3.101c0-0.26,0.121-0.38,0.244-0.38h11.959c0.16,0,0.258,0.04,0.258,0.18v3.281
		c0,0.2-0.062,0.22-0.16,0.22h-1.824l2.107,3.221l2.426-3.181v-0.04H145.117z"/>
	<path fill="#FFFFFF" d="M164.598,37.798c5.648,0,9.227,3.481,9.227,7.062c0,3.661-2.535,7.942-8.662,7.942h-2.219
		c-5.023,0-7.105-1.76-8.502-3.421c-1.078-1.3-1.396-3.141-1.396-4.301c0-1.521,0.66-2.88,1.285-3.861
		c1.066-1.66,3.787-3.421,7.842-3.421H164.598z M160.311,45.1c0,2.141,1.396,4.221,3.209,4.221c2.047,0,3.15-2.08,3.15-3.88
		c0-1.781-1.227-4.161-3.285-4.161C161.816,41.279,160.311,43.08,160.311,45.1z"/>
	<path fill="#FFFFFF" d="M177.586,41.479h-2.768c-0.111,0-0.197-0.08-0.197-0.32v-3.081c0-0.14,0.062-0.28,0.146-0.28h11.506
		c0.209,0,0.307,0.02,0.307,0.18v3.321c0,0.12-0.172,0.18-0.244,0.18h-2.512v5.401c0,0.58,0.195,2,1.543,2h3.111
		c0.209,0,1.08-0.46,1.08-1.82v-5.581h-2.342c-0.072,0-0.146-0.1-0.146-0.26v-3.241c0-0.08,0.086-0.18,0.172-0.18h8.27
		c0.221,0,0.344,0.12,0.344,0.541v2.88c0,0.16-0.061,0.26-0.158,0.26h-2.807v6.041c0,0.78-0.123,5.281-3.332,5.281h-8.002
		c-0.674,0-3.971-0.4-3.971-4.601V41.479z"/>
	<path fill="#FFFFFF" d="M202.338,37.798c0.111,0,0.197,0.1,0.197,0.28c0,0.22-0.381,8.482-0.393,8.642
		c-0.025,0.4-0.16,0.5-0.246,0.5h-3.945c-0.146,0-0.207-0.14-0.221-0.4c0-0.1-0.404-8.441-0.404-8.642c0-0.28,0.111-0.38,0.234-0.38
		H202.338z M202.117,48.301c0.098,0,0.184,0.12,0.184,0.32v3.98c0,0.12-0.146,0.2-0.256,0.2h-4.277c-0.123,0-0.195-0.12-0.195-0.38
		v-3.861c0-0.14,0.098-0.26,0.232-0.26H202.117z"/>
</g>
<g>
</g>
<g>
</g>
<g>
</g>
<g>
</g>
<g>
</g>
<g>
</g>
</svg>
