<?xml version="1.0" encoding="utf-8"?>
<!-- Generator: Adobe Illustrator 16.0.0, SVG Export Plug-In . SVG Version: 6.00 Build 0)  -->
<!DOCTYPE svg PUBLIC "-//W3C//DTD SVG 1.1//EN" "http://www.w3.org/Graphics/SVG/1.1/DTD/svg11.dtd">
<svg version="1.1" id="Layer_1" xmlns="http://www.w3.org/2000/svg" xmlns:xlink="http://www.w3.org/1999/xlink" x="0px" y="0px"
	 width="502.249px" height="125.191px" viewBox="0 0 502.249 125.191" enable-background="new 0 0 502.249 125.191"
	 xml:space="preserve">
<rect x="20.226" y="19.573" fill="none" stroke="#603913" stroke-miterlimit="10" width="464.045" height="80.899"/>
<rect x="28.09" y="25.314" fill="#603913" stroke="#603913" stroke-miterlimit="10" width="450.438" height="68.54"/>
<g>
	<rect x="61.249" y="54.966" fill="none" width="764.045" height="225.843"/>
	<path fill="#FFFFFF" d="M87.084,59.011c0,0.24-0.08,0.368-0.177,0.368H81.21c-0.16,0-0.289-0.064-0.416-0.24
		c-0.145-0.176-0.929-1.201-4.674-1.201c-3.521,0-4.914,1.857-4.914,3.186c0,2.641,3.312,2.913,5.426,2.913
		c1.36,0,1.824-0.768,1.904-1.44h-3.297c-0.271,0-0.48-0.08-0.48-0.24v-1.665c0-0.32,0.209-0.368,0.448-0.368h15.335
		c0.319,0,0.447,0.208,0.447,0.368v1.504c0,0.352-0.224,0.4-0.544,0.4h-3.281v4.018c0,0.32-0.24,0.352-0.56,0.352h-4.242
		c-0.369,0-0.561-0.032-0.752-0.272l-0.93-0.993c-1.232,1.201-3.744,1.265-6.786,1.265c-0.944,0-11.925-0.096-11.925-5.842
		c0-5.922,8.724-6.163,11.669-6.163c5.298,0,6.162,0.512,7.396,1.137l0.191-0.785c0.032-0.16,0.08-0.352,0.4-0.352h4.962
		c0.319,0,0.496,0.096,0.496,0.608V59.011z"/>
	<path fill="#FFFFFF" d="M118.604,54.961c0.289,0,0.369,0.112,0.369,0.352v4.562c0,0.16-0.049,0.272-0.209,0.272h-5.506
		c-0.112,0-0.209,0-0.209-0.112v-2.017h-9.251v1.521h5.153c0.16,0,0.225,0.032,0.225,0.16v2.513c0,0.128-0.191,0.16-0.384,0.16
		h-4.994v1.617h9.38v-1.953c0-0.144,0.048-0.32,0.305-0.32h5.857c0.112,0,0.176,0.08,0.176,0.304v4.722
		c0,0.112-0.063,0.224-0.367,0.224H92.002c-0.208,0-0.399,0.016-0.399-0.176v-2.529c0-0.144,0.096-0.272,0.239-0.272h3.634v-5.987
		h-3.649c-0.128,0-0.224,0.032-0.224-0.16v-2.737c0-0.08,0.159-0.144,0.399-0.144H118.604z"/>
	<path fill="#FFFFFF" d="M142.459,64.021c0.144,0,0.239,0.016,0.239,0.096v2.753c0,0.08-0.096,0.096-0.239,0.096h-16.022
		c-0.064,0-0.176-0.064-0.176-0.224v-2.513c0-0.08,0.08-0.208,0.176-0.208h3.825v-6.163h-4.29v2.145
		c0,0.112-0.127,0.112-0.224,0.112h-5.347c-0.144,0-0.256-0.08-0.256-0.208v-4.722c0-0.112,0.08-0.224,0.192-0.224h27.995
		c0.176,0,0.288,0.032,0.288,0.384v4.546c0,0.112-0.048,0.256-0.192,0.256h-5.153c-0.097,0-0.177,0-0.177-0.192v-2.097h-4.594v6.163
		H142.459z"/>
	<path fill="#FFFFFF" d="M179.562,64.021c0.144,0,0.239,0.016,0.239,0.096v2.753c0,0.08-0.096,0.096-0.239,0.096H163.54
		c-0.064,0-0.176-0.064-0.176-0.224v-2.513c0-0.08,0.08-0.208,0.176-0.208h3.825v-6.163h-4.29v2.145
		c0,0.112-0.127,0.112-0.224,0.112h-5.347c-0.144,0-0.256-0.08-0.256-0.208v-4.722c0-0.112,0.08-0.224,0.192-0.224h27.995
		c0.176,0,0.288,0.032,0.288,0.384v4.546c0,0.112-0.048,0.256-0.192,0.256h-5.153c-0.097,0-0.177,0-0.177-0.192v-2.097h-4.594v6.163
		H179.562z"/>
	<path fill="#FFFFFF" d="M186.385,55.266c0-0.208,0.112-0.304,0.257-0.304h15.605c0.145,0,0.336,0.032,0.336,0.144v2.657
		c0,0.16-0.111,0.224-0.24,0.224h-3.633v5.986h3.633c0.16,0,0.24,0.064,0.24,0.176v2.545c0,0.192-0.031,0.272-0.24,0.272h-15.621
		c-0.257,0-0.337-0.112-0.337-0.224v-2.497c0-0.224,0.112-0.304,0.208-0.304h3.634v-5.97h-3.538c-0.176,0-0.304-0.064-0.304-0.16
		V55.266z"/>
	<path fill="#FFFFFF" d="M227.259,61.684c0.145,0,0.303,0.096,0.225,0.256c-0.258,0.496-1.186,5.026-11.109,5.026
		c-10.213,0-12.758-3.073-12.758-5.778c0-2.689,2.642-6.227,11.35-6.227c3.152,0,5.09,0.56,6.738,1.457l0.111-1.056
		c0.018-0.176,0.129-0.288,0.209-0.288h5.234c0.191,0,0.303,0.064,0.303,0.352v4.562c0,0.16-0.047,0.256-0.238,0.288h-5.043
		c-0.145,0-0.176,0-0.305-0.144c-0.111-0.144-1.232-2.145-4.705-2.145c-3.49,0-4.21,2.017-4.21,2.913
		c0,0.704,0.384,3.089,4.706,3.089c3.473,0,5.025-1.553,5.441-2.193c0.064-0.096,0.16-0.112,0.305-0.112H227.259z"/>
	<path fill="#FFFFFF" d="M232.386,63.941v-5.954h-3.568c-0.16,0-0.32-0.08-0.32-0.32v-2.353c0-0.192,0.111-0.352,0.4-0.352h13.941
		c0.207,0,0.367,0.08,0.367,0.48v2.305c0,0.16-0.176,0.24-0.607,0.24h-2.018v3.057l7.027-3.025v-0.032h-3.41
		c-0.24,0-0.367-0.016-0.367-0.4v-2.305c0-0.16,0.08-0.32,0.48-0.32h12.805c0.24,0,0.4,0.08,0.4,0.48v2.225
		c0,0.16-0.16,0.32-0.4,0.32h-3.586l-3.488,1.584l4.258,4.37h3.697c0.191,0,0.303,0.128,0.303,0.368v2.337
		c0,0.128-0.08,0.32-0.432,0.32h-15.223c-0.191,0-0.32-0.16-0.32-0.432v-2.353c0-0.112,0.129-0.24,0.354-0.24h1.119l-1.424-1.504
		l-1.793,0.8v0.704h0.865c0.207,0,0.24,0.16,0.24,0.32v2.433c0,0.16-0.113,0.272-0.385,0.272h-12.533c-0.16,0-0.271-0.112-0.271-0.4
		v-2.305c0-0.192,0.111-0.32,0.24-0.32H232.386z"/>
	<path fill="#FFFFFF" d="M285.931,54.961c0.289,0,0.369,0.112,0.369,0.352v4.562c0,0.16-0.049,0.272-0.209,0.272h-5.506
		c-0.111,0-0.209,0-0.209-0.112v-2.017h-9.252v1.521h5.154c0.16,0,0.225,0.032,0.225,0.16v2.513c0,0.128-0.191,0.16-0.385,0.16
		h-4.994v1.617h9.381v-1.953c0-0.144,0.049-0.32,0.305-0.32h5.857c0.113,0,0.176,0.08,0.176,0.304v4.722
		c0,0.112-0.062,0.224-0.367,0.224h-27.146c-0.209,0-0.4,0.016-0.4-0.176v-2.529c0-0.144,0.096-0.272,0.24-0.272h3.633v-5.987h-3.65
		c-0.127,0-0.223,0.032-0.223-0.16v-2.737c0-0.08,0.16-0.144,0.4-0.144H285.931z"/>
	<path fill="#FFFFFF" d="M309.784,64.021c0.145,0,0.24,0.016,0.24,0.096v2.753c0,0.08-0.096,0.096-0.24,0.096h-16.021
		c-0.064,0-0.176-0.064-0.176-0.224v-2.513c0-0.08,0.08-0.208,0.176-0.208h3.826v-6.163h-4.291v2.145
		c0,0.112-0.127,0.112-0.223,0.112h-5.348c-0.143,0-0.256-0.08-0.256-0.208v-4.722c0-0.112,0.08-0.224,0.193-0.224h27.994
		c0.176,0,0.289,0.032,0.289,0.384v4.546c0,0.112-0.049,0.256-0.193,0.256h-5.154c-0.096,0-0.176,0-0.176-0.192v-2.097h-4.594v6.163
		H309.784z"/>
	<path fill="#FFFFFF" d="M334.808,55.153c0.031-0.128,0.176-0.176,0.303-0.176h4.387c0.305,0,0.416,0.224,0.416,0.336v2.929
		c0,0.112-0.08,0.192-0.209,0.192h-5.297c-0.064,0-0.145,0-0.176-0.08c-0.529-0.913-2.273-1.121-2.785-1.121h-4.914
		c-0.4,0-1.586,0.048-1.586,0.8c0,0.8,1.922,0.769,2.562,0.769l3.057,0.032c1.584,0,5.266,0.304,6.227,0.512
		c0.928,0.224,4.289,0.88,4.289,3.441c0,3.666-6.594,4.178-8.883,4.178h-4.338c-1.809,0-3.73-0.56-4.867-1.088l-0.096,0.928
		c-0.031,0.128-0.127,0.16-0.24,0.16h-5.441c-0.111,0-0.16-0.064-0.16-0.192v-3.266c0-0.08,0.049-0.192,0.176-0.192h5.715
		c0.127,0,0.207,0.064,0.24,0.176c0.32,1.057,2.912,1.121,3.09,1.121h5.777c0.176,0,1.137-0.096,1.137-0.624
		c0-0.608-0.896-0.785-1.121-0.785l-4.641-0.032c-1.232,0-4.932-0.384-6.404-0.8c-2.625-0.752-3.889-2.225-3.889-3.361
		c0-1.601,1.744-2.545,2.625-3.009c1.105-0.625,3.25-1.041,5.842-1.041h4.402c2.225,0,3.777,0.544,4.594,0.913L334.808,55.153z"/>
	<path fill="#FFFFFF" d="M364.692,54.961c0.16,0,0.336,0.08,0.496,0.192l8.229,6.963v-4.129h-3.521c-0.24,0-0.369-0.08-0.369-0.208
		v-2.465c0-0.192,0.113-0.352,0.225-0.352h11.428c0.289,0,0.354,0.24,0.354,0.4v2.337c0,0.208-0.16,0.288-0.369,0.288h-3.408v8.547
		c0,0.272-0.08,0.432-0.289,0.432h-9.859c-0.113,0-0.289-0.016-0.4-0.112l-9.012-7.635v4.722h3.697c0.191,0,0.4,0.08,0.4,0.24v2.433
		c0,0.24-0.129,0.352-0.32,0.352h-11.668c-0.16,0-0.24-0.112-0.24-0.32v-2.417c0-0.128,0.08-0.288,0.4-0.288h3.473v-5.954h-3.586
		c-0.111,0-0.271-0.048-0.271-0.288v-2.497c0-0.16,0.16-0.24,0.4-0.24H364.692z"/>
	<path fill="#FFFFFF" d="M397.638,54.961c7.379,0,12.053,2.785,12.053,5.65c0,2.929-3.314,6.354-11.316,6.354h-2.898
		c-6.562,0-9.283-1.409-11.107-2.737c-1.408-1.04-1.824-2.513-1.824-3.441c0-1.216,0.863-2.305,1.68-3.089
		c1.393-1.329,4.945-2.737,10.244-2.737H397.638z M392.034,60.804c0,1.713,1.826,3.377,4.195,3.377c2.672,0,4.113-1.665,4.113-3.105
		c0-1.424-1.602-3.329-4.291-3.329C394.003,57.747,392.034,59.187,392.034,60.804z"/>
	<path fill="#FFFFFF" d="M445.821,54.961c0.225,0,0.271,0.112,0.271,0.24v2.561c0,0.08-0.078,0.144-0.207,0.144h-3.602l-6.275,8.899
		c-0.062,0.096-0.111,0.16-0.191,0.16h-4.162c-0.062,0-0.096-0.064-0.16-0.144l-4.098-5.346l-4.033,5.394
		c-0.08,0.08-0.127,0.096-0.287,0.096h-4.035c-0.111,0-0.143-0.08-0.207-0.144l-6.291-8.916h-3.33c-0.127,0-0.271-0.048-0.271-0.24
		v-2.481c0-0.112,0.096-0.224,0.225-0.224h13.43c0.176,0,0.32,0.032,0.32,0.224v2.545c0,0.096-0.08,0.176-0.225,0.176h-0.977
		l1.682,2.257l1.535-2.257h-1.152c-0.096,0-0.225,0-0.225-0.096v-2.593c0-0.16,0.113-0.256,0.465-0.256h10.965
		c0.145,0,0.287,0.064,0.287,0.24v2.529c0,0.096-0.08,0.176-0.223,0.176h-0.961l1.617,2.257l1.6-2.257h-1.152
		c-0.096,0-0.24-0.064-0.24-0.16v-2.561c0-0.16,0.145-0.224,0.496-0.224H445.821z"/>
	<path fill="#FFFFFF" d="M454.513,54.961c0.145,0,0.258,0.08,0.258,0.224c0,0.176-0.496,6.787-0.514,6.915
		c-0.031,0.32-0.207,0.4-0.32,0.4h-5.152c-0.193,0-0.273-0.112-0.289-0.32c0-0.08-0.527-6.754-0.527-6.915
		c0-0.224,0.143-0.304,0.303-0.304H454.513z M454.226,63.365c0.129,0,0.24,0.096,0.24,0.256v3.185c0,0.096-0.191,0.16-0.336,0.16
		h-5.586c-0.16,0-0.258-0.096-0.258-0.304v-3.089c0-0.112,0.129-0.208,0.305-0.208H454.226z"/>
</g>
<g>
</g>
<g>
</g>
<g>
</g>
<g>
</g>
<g>
</g>
<g>
</g>
</svg>
