<?xml version="1.0" encoding="utf-8"?>
<!-- Generator: Adobe Illustrator 16.0.0, SVG Export Plug-In . SVG Version: 6.00 Build 0)  -->
<!DOCTYPE svg PUBLIC "-//W3C//DTD SVG 1.1//EN" "http://www.w3.org/Graphics/SVG/1.1/DTD/svg11.dtd">
<svg version="1.1" id="Layer_1" xmlns="http://www.w3.org/2000/svg" xmlns:xlink="http://www.w3.org/1999/xlink" x="0px" y="0px"
	 width="100px" height="100px" viewBox="0 0 100 100" enable-background="new 0 0 100 100" xml:space="preserve">
<g id="Captions">
</g>
<g id="Your_Icon">
	<path fill="#FFFFFF" d="M30.025,52.094c-0.028-0.085-3.379-8.273-3.379-13.223l-0.399-16.606c3.44,2.881,12.709,4.904,23.745,4.904
		c11.318,0,20.671-2.092,23.928-5.062c-0.146,7.879-0.771,19.024-3.023,25.046c-0.143,0.354-3.529,8.636-3.525,13.931l-0.619,25.771
		c0,4.094-5.643,6.172-16.786,6.172c-7.728,0-16.944-1.072-16.944-6.137C33.055,85.9,33.887,62.43,30.025,52.094z M75.879,13.116
		L75.879,13.116C75.832,7.844,62.51,4.997,49.971,5c-12.564,0-25.916,2.854-25.916,8.145c0,0.006,0,0.015,0,0.021l0,0l0.615,25.729
		c0,5.319,3.39,13.599,3.519,13.921c3.712,9.938,2.869,33.765,2.861,34.043c0,5.404,6.362,8.146,18.915,8.143
		c12.625,0,18.764-2.662,18.764-8.124l0.612-25.771c0-4.928,3.353-13.114,3.394-13.228C76.586,37.573,75.913,14.109,75.879,13.116z
		 M73.934,21.4c-2.699,2.986-12.57,5.272-23.94,5.272c-11.221,0-20.822-2.146-23.758-5.054l-0.128-5.132
		c4.223,3.136,14.27,4.8,23.864,4.8c9.689,0.003,19.849-1.693,23.989-4.904C73.962,17.74,73.962,19.457,73.934,21.4z M49.971,6.973
		c14.829-0.001,23.938,3.595,23.933,6.172c0.006,2.576-9.1,6.17-23.933,6.17c-14.835,0-23.937-3.591-23.937-6.17v-0.001
		C26.034,10.567,35.136,6.973,49.971,6.973z"/>
	<path fill="#FFFFFF" d="M46.311,18.36c-1.436,0-2.094-0.044-4.312-0.321c-0.131-0.021-0.229-0.138-0.211-0.274
		c0.016-0.138,0.144-0.234,0.274-0.215c2.651,0.325,3.043,0.325,5.258,0.31c0.523,0.003,1.15,0,1.936-0.007
		c13.311,0.001,22.254-2.371,22.254-4.596c0-1.471-3.771-2.925-9.841-3.797c-0.136-0.019-0.231-0.142-0.21-0.275
		c0.02-0.141,0.145-0.232,0.281-0.215c3.08,0.444,10.259,1.744,10.259,4.283c0.006,3.188-11.56,5.094-22.743,5.094
		c-0.779,0-1.412,0-1.93,0.009C46.936,18.36,46.606,18.356,46.311,18.36z"/>
	<path fill="#FFFFFF" d="M56.895,85.659c-0.135,0-0.242-0.099-0.25-0.229c-0.004-0.142,0.1-0.254,0.238-0.262
		c4.789-0.207,7.648-2.023,7.648-4.854l0.516-21.459c0-4.312,2.777-11.107,2.893-11.399c0.057-0.121,0.201-0.181,0.324-0.132
		c0.125,0.053,0.188,0.194,0.135,0.321c-0.028,0.069-2.856,6.991-2.856,11.218L65.027,80.32c0,3.117-3.037,5.117-8.125,5.339
		C56.902,85.659,56.895,85.662,56.895,85.659z"/>
	<path fill="#FFFFFF" d="M40.143,85.659c-0.015,0-0.028,0-0.045-0.002c-3.916-0.716-5.308-3.228-5.313-5.343
		c0.013-0.213,0.717-20.174-2.415-28.56c-0.116-0.282-2.896-7.078-2.896-11.399l-0.512-12.925c-0.005-0.142,0.099-0.256,0.236-0.263
		c0.142-0.005,0.247,0.104,0.257,0.241l0.515,12.936c0,4.23,2.828,11.155,2.86,11.228c3.168,8.488,2.453,28.55,2.448,28.755
		c0,1.901,1.292,4.187,4.906,4.843c0.135,0.028,0.227,0.153,0.197,0.29C40.361,85.577,40.26,85.659,40.143,85.659z"/>
	<path fill="#FFFFFF" d="M64.828,84.005c-1.77,2.175-3.051,3.142-14.845,3.142c-3.987,0-6.782-0.105-8.793-0.34
		c-3.885-0.451-4.879-1.358-6.048-2.8l-0.438-0.544v4.639h0.011c0.255,2.806,4.47,3.854,15.239,3.854
		c11.162,0,15.313-1.122,15.313-4.134v-4.359L64.828,84.005z"/>
</g>
</svg>
